<svg xmlns="http://www.w3.org/2000/svg" xmlns:xlink="http://www.w3.org/1999/xlink" width="563" zoomAndPan="magnify" viewBox="0 0 422.25 109.499999" height="146" preserveAspectRatio="xMidYMid meet" version="1.0"><defs><g/><clipPath id="id1"><path d="M 1.257812 0 L 420.097656 0 L 420.097656 109 L 1.257812 109 Z M 1.257812 0 " clip-rule="nonzero"/></clipPath><clipPath id="id2"><path d="M 26.832031 28.007812 L 68.640625 28.007812 L 68.640625 75.789062 L 26.832031 75.789062 Z M 26.832031 28.007812 " clip-rule="nonzero"/></clipPath><clipPath id="id3"><path d="M 392 75.84375 L 408.910156 75.84375 L 408.910156 92 L 392 92 Z M 392 75.84375 " clip-rule="nonzero"/></clipPath><clipPath id="id4"><path d="M 365.308594 89 L 376 89 L 376 97 L 365.308594 97 Z M 365.308594 89 " clip-rule="nonzero"/></clipPath><clipPath id="id5"><path d="M 376 91 L 384 91 L 384 98.34375 L 376 98.34375 Z M 376 91 " clip-rule="nonzero"/></clipPath><clipPath id="id6"><path d="M 406 94 L 408.910156 94 L 408.910156 97 L 406 97 Z M 406 94 " clip-rule="nonzero"/></clipPath><clipPath id="id7"><path d="M 407 94 L 408.910156 94 L 408.910156 96 L 407 96 Z M 407 94 " clip-rule="nonzero"/></clipPath></defs><g clip-path="url(#id1)"><path fill="#4558be" d="M 416.484375 109 L 4.875 109 C 2.882812 109 1.257812 107.378906 1.257812 105.386719 L 1.257812 3.617188 C 1.257812 1.625 2.882812 0 4.875 0 L 416.484375 0 C 418.472656 0 420.097656 1.625 420.097656 3.617188 L 420.097656 105.386719 C 420.097656 107.378906 418.472656 109 416.484375 109 " fill-opacity="1" fill-rule="nonzero"/></g><g clip-path="url(#id2)"><path fill="#ffffff" d="M 26.859375 69.589844 L 26.859375 34.402344 C 26.859375 34.15625 26.875 33.910156 26.910156 33.667969 C 26.941406 33.425781 26.988281 33.183594 27.054688 32.945312 C 27.117188 32.707031 27.195312 32.476562 27.289062 32.246094 C 27.382812 32.019531 27.492188 31.800781 27.617188 31.585938 C 27.738281 31.371094 27.875 31.167969 28.023438 30.972656 C 28.175781 30.777344 28.335938 30.59375 28.511719 30.417969 C 28.683594 30.246094 28.871094 30.082031 29.066406 29.933594 C 29.261719 29.78125 29.464844 29.644531 29.679688 29.523438 C 29.890625 29.398438 30.109375 29.292969 30.339844 29.195312 C 30.566406 29.101562 30.800781 29.023438 31.035156 28.960938 C 31.273438 28.894531 31.515625 28.847656 31.757812 28.816406 C 32.003906 28.78125 32.25 28.765625 32.496094 28.765625 C 32.742188 28.765625 32.988281 28.78125 33.230469 28.8125 C 33.476562 28.847656 33.714844 28.894531 33.953125 28.957031 C 34.191406 29.019531 34.425781 29.101562 34.652344 29.195312 C 34.878906 29.289062 35.101562 29.394531 35.3125 29.519531 L 65.796875 47.101562 C 66.011719 47.222656 66.214844 47.359375 66.410156 47.511719 C 66.605469 47.660156 66.789062 47.824219 66.964844 47.996094 C 67.136719 48.171875 67.300781 48.355469 67.449219 48.550781 C 67.601562 48.746094 67.738281 48.953125 67.859375 49.164062 C 67.984375 49.378906 68.09375 49.597656 68.1875 49.828125 C 68.28125 50.054688 68.359375 50.285156 68.421875 50.523438 C 68.488281 50.761719 68.535156 51.003906 68.566406 51.25 C 68.597656 51.492188 68.613281 51.738281 68.613281 51.984375 C 68.613281 52.230469 68.597656 52.476562 68.566406 52.71875 C 68.535156 52.964844 68.488281 53.207031 68.421875 53.445312 C 68.359375 53.683594 68.28125 53.914062 68.1875 54.140625 C 68.09375 54.371094 67.984375 54.589844 67.859375 54.804688 C 67.738281 55.015625 67.601562 55.222656 67.449219 55.417969 C 67.300781 55.613281 67.136719 55.796875 66.964844 55.972656 C 66.789062 56.144531 66.605469 56.308594 66.410156 56.457031 C 66.214844 56.609375 66.011719 56.746094 65.796875 56.867188 L 35.75 74.203125 C 34.78125 74.90625 33.695312 75.25 32.496094 75.234375 C 32.128906 75.234375 31.765625 75.195312 31.40625 75.125 C 31.046875 75.054688 30.695312 74.949219 30.359375 74.8125 C 30.019531 74.671875 29.695312 74.5 29.390625 74.296875 C 29.082031 74.09375 28.800781 73.867188 28.539062 73.609375 C 28.277344 73.351562 28.042969 73.070312 27.835938 72.765625 C 27.632812 72.460938 27.457031 72.140625 27.3125 71.804688 C 27.167969 71.464844 27.058594 71.117188 26.984375 70.757812 C 26.910156 70.398438 26.871094 70.035156 26.863281 69.671875 Z M 26.859375 69.589844 " fill-opacity="1" fill-rule="nonzero"/></g><g fill="#ffffff" fill-opacity="1"><g transform="translate(160.534862, 71.762797)"><g><path d="M 18.8125 -39.59375 C 22.96875 -39.59375 26.609375 -38.757812 29.734375 -37.09375 C 32.867188 -35.4375 35.273438 -33.109375 36.953125 -30.109375 C 38.640625 -27.109375 39.484375 -23.679688 39.484375 -19.828125 C 39.484375 -16.003906 38.628906 -12.59375 36.921875 -9.59375 C 35.222656 -6.601562 32.8125 -4.253906 29.6875 -2.546875 C 26.5625 -0.847656 22.9375 0 18.8125 0 L 3.140625 0 L 3.140625 -39.59375 Z M 17.96875 -9.71875 C 21.195312 -9.71875 23.726562 -10.597656 25.5625 -12.359375 C 27.394531 -14.117188 28.3125 -16.609375 28.3125 -19.828125 C 28.3125 -23.085938 27.394531 -25.601562 25.5625 -27.375 C 23.726562 -29.15625 21.195312 -30.046875 17.96875 -30.046875 L 14.15625 -30.046875 L 14.15625 -9.71875 Z M 17.96875 -9.71875 "/></g></g></g><g fill="#ffffff" fill-opacity="1"><g transform="translate(201.815135, 71.762797)"><g><path d="M 28.421875 -20.328125 C 30.742188 -19.804688 32.585938 -18.65625 33.953125 -16.875 C 35.316406 -15.101562 36 -13.070312 36 -10.78125 C 36 -7.414062 34.835938 -4.773438 32.515625 -2.859375 C 30.203125 -0.953125 26.945312 0 22.75 0 L 3.140625 0 L 3.140625 -39.59375 L 22.125 -39.59375 C 26.175781 -39.59375 29.351562 -38.691406 31.65625 -36.890625 C 33.957031 -35.097656 35.109375 -32.578125 35.109375 -29.328125 C 35.109375 -27.003906 34.5 -25.0625 33.28125 -23.5 C 32.0625 -21.945312 30.441406 -20.890625 28.421875 -20.328125 Z M 14.15625 -23.875 L 19.71875 -23.875 C 22.488281 -23.875 23.875 -25.015625 23.875 -27.296875 C 23.875 -29.660156 22.488281 -30.84375 19.71875 -30.84375 L 14.15625 -30.84375 Z M 20.5625 -8.875 C 23.332031 -8.875 24.71875 -10.035156 24.71875 -12.359375 C 24.71875 -13.554688 24.351562 -14.472656 23.625 -15.109375 C 22.894531 -15.742188 21.851562 -16.0625 20.5 -16.0625 L 14.15625 -16.0625 L 14.15625 -8.875 Z M 20.5625 -8.875 "/></g></g></g><path stroke-linecap="butt" transform="matrix(0.000000000000000091, -1.485445, 1.493182, 0.000000000000000091, 254.470337, 73.040125)" fill="none" stroke-linejoin="miter" d="M 0.000715534 -0.00106298 L 30.155293 -0.00106298 " stroke="#ffffff" stroke-width="1" stroke-opacity="1" stroke-miterlimit="4"/><g fill="#ffffff" fill-opacity="1"><g transform="translate(79.934027, 66.206742)"><g><path d="M 19.125 -14.671875 C 19.125 -13.335938 18.816406 -12.125 18.203125 -11.03125 C 17.585938 -9.9375 16.660156 -9.0625 15.421875 -8.40625 C 14.191406 -7.75 12.679688 -7.421875 10.890625 -7.421875 L 7.859375 -7.421875 L 7.859375 0 L 1.75 0 L 1.75 -22 L 10.890625 -22 C 12.660156 -22 14.160156 -21.6875 15.390625 -21.0625 C 16.628906 -20.4375 17.5625 -19.570312 18.1875 -18.46875 C 18.8125 -17.363281 19.125 -16.097656 19.125 -14.671875 Z M 10.296875 -12.296875 C 12.023438 -12.296875 12.890625 -13.085938 12.890625 -14.671875 C 12.890625 -16.265625 12.023438 -17.0625 10.296875 -17.0625 L 7.859375 -17.0625 L 7.859375 -12.296875 Z M 10.296875 -12.296875 "/></g></g></g><g fill="#ffffff" fill-opacity="1"><g transform="translate(99.777228, 66.206742)"><g><path d="M 7.859375 -4.6875 L 14.703125 -4.6875 L 14.703125 0 L 1.75 0 L 1.75 -22 L 7.859375 -22 Z M 7.859375 -4.6875 "/></g></g></g><g fill="#ffffff" fill-opacity="1"><g transform="translate(115.096431, 66.206742)"><g><path d="M 15.65625 -3.59375 L 7.859375 -3.59375 L 6.671875 0 L 0.25 0 L 8.265625 -22 L 15.328125 -22 L 23.3125 0 L 16.84375 0 Z M 14.140625 -8.265625 L 11.765625 -15.390625 L 9.421875 -8.265625 Z M 14.140625 -8.265625 "/></g></g></g><g fill="#ffffff" fill-opacity="1"><g transform="translate(138.652434, 66.206742)"><g><path d="M 21.75 -22 L 14.015625 -6.984375 L 14.015625 0 L 7.859375 0 L 7.859375 -6.984375 L 0.125 -22 L 7.109375 -22 L 10.984375 -13.515625 L 14.859375 -22 Z M 21.75 -22 "/></g></g></g><g fill="#ffffff" fill-opacity="1"><g transform="translate(79.930333, 87.48933)"><g><path d="M 1.421875 -0.9375 C 0.742188 -1.601562 0.40625 -2.445312 0.40625 -3.46875 C 0.40625 -4.5 0.742188 -5.347656 1.421875 -6.015625 C 2.109375 -6.691406 2.945312 -7.03125 3.9375 -7.03125 C 4.65625 -7.03125 5.289062 -6.867188 5.84375 -6.546875 C 6.394531 -6.222656 6.8125 -5.75 7.09375 -5.125 L 6.234375 -5.125 C 6.023438 -5.539062 5.71875 -5.859375 5.3125 -6.078125 C 4.90625 -6.296875 4.445312 -6.40625 3.9375 -6.40625 C 3.125 -6.40625 2.453125 -6.132812 1.921875 -5.59375 C 1.390625 -5.0625 1.125 -4.351562 1.125 -3.46875 C 1.125 -2.59375 1.390625 -1.882812 1.921875 -1.34375 C 2.453125 -0.8125 3.117188 -0.546875 3.921875 -0.546875 C 4.722656 -0.546875 5.375 -0.78125 5.875 -1.25 C 6.375 -1.71875 6.660156 -2.359375 6.734375 -3.171875 L 3.609375 -3.171875 L 3.609375 -3.734375 L 7.46875 -3.734375 L 7.46875 -3.171875 C 7.375 -2.203125 6.992188 -1.421875 6.328125 -0.828125 C 5.671875 -0.234375 4.859375 0.0625 3.890625 0.0625 C 2.929688 0.0625 2.109375 -0.269531 1.421875 -0.9375 Z M 1.421875 -0.9375 "/></g></g></g><g fill="#ffffff" fill-opacity="1"><g transform="translate(90.174946, 87.48933)"><g><path d="M 5.65625 0 L 5.078125 -1.625 L 1.828125 -1.625 L 1.234375 0 L 0.53125 0 L 3.09375 -6.953125 L 3.8125 -6.953125 L 6.375 0 Z M 2.03125 -2.1875 L 4.875 -2.1875 L 3.453125 -6.078125 Z M 2.03125 -2.1875 "/></g></g></g><g fill="#ffffff" fill-opacity="1"><g transform="translate(99.461744, 87.48933)"><g><path d="M 7.640625 -6.953125 L 7.640625 0 L 6.9375 0 L 6.9375 -5.34375 L 4.40625 0 L 3.984375 0 L 1.46875 -5.328125 L 1.46875 0 L 0.75 0 L 0.75 -6.953125 L 1.40625 -6.953125 L 4.203125 -1.015625 L 6.984375 -6.953125 Z M 7.640625 -6.953125 "/></g></g></g><g fill="#ffffff" fill-opacity="1"><g transform="translate(110.240719, 87.48933)"><g><path d="M 4.296875 -6.953125 L 4.296875 -6.375 L 1.46875 -6.375 L 1.46875 -3.78125 L 3.984375 -3.78125 L 3.984375 -3.21875 L 1.46875 -3.21875 L 1.46875 -0.5625 L 4.296875 -0.5625 L 4.296875 0 L 0.75 0 L 0.75 -6.953125 Z M 4.296875 -6.953125 "/></g></g></g><g fill="#ffffff" fill-opacity="1"><g transform="translate(117.531227, 87.48933)"><g/></g></g><g fill="#ffffff" fill-opacity="1"><g transform="translate(122.936347, 87.48933)"><g><path d="M 1.265625 -5.125 C 1.265625 -4.84375 1.332031 -4.613281 1.46875 -4.4375 C 1.613281 -4.269531 1.800781 -4.144531 2.03125 -4.0625 C 2.257812 -3.976562 2.507812 -3.90625 2.78125 -3.84375 C 3.0625 -3.78125 3.335938 -3.710938 3.609375 -3.640625 C 3.890625 -3.566406 4.144531 -3.46875 4.375 -3.34375 C 4.601562 -3.226562 4.789062 -3.050781 4.9375 -2.8125 C 5.082031 -2.570312 5.15625 -2.273438 5.15625 -1.921875 C 5.15625 -1.390625 4.953125 -0.921875 4.546875 -0.515625 C 4.148438 -0.117188 3.609375 0.078125 2.921875 0.078125 C 2.234375 0.078125 1.675781 -0.078125 1.25 -0.390625 C 0.820312 -0.703125 0.609375 -1.117188 0.609375 -1.640625 L 1.34375 -1.640625 C 1.375 -1.316406 1.515625 -1.050781 1.765625 -0.84375 C 2.015625 -0.632812 2.382812 -0.53125 2.875 -0.53125 C 3.375 -0.53125 3.769531 -0.65625 4.0625 -0.90625 C 4.351562 -1.164062 4.5 -1.484375 4.5 -1.859375 C 4.5 -2.234375 4.363281 -2.515625 4.09375 -2.703125 C 3.820312 -2.898438 3.492188 -3.035156 3.109375 -3.109375 C 2.734375 -3.179688 2.351562 -3.265625 1.96875 -3.359375 C 1.59375 -3.460938 1.269531 -3.65625 1 -3.9375 C 0.738281 -4.21875 0.609375 -4.625 0.609375 -5.15625 C 0.609375 -5.695312 0.804688 -6.144531 1.203125 -6.5 C 1.597656 -6.851562 2.125 -7.03125 2.78125 -7.03125 C 3.4375 -7.03125 3.953125 -6.878906 4.328125 -6.578125 C 4.703125 -6.273438 4.929688 -5.867188 5.015625 -5.359375 L 4.21875 -5.359375 C 4.195312 -5.640625 4.054688 -5.882812 3.796875 -6.09375 C 3.546875 -6.3125 3.195312 -6.421875 2.75 -6.421875 C 2.3125 -6.421875 1.953125 -6.304688 1.671875 -6.078125 C 1.398438 -5.859375 1.265625 -5.539062 1.265625 -5.125 Z M 1.265625 -5.125 "/></g></g></g><g fill="#ffffff" fill-opacity="1"><g transform="translate(131.073767, 87.48933)"><g><path d="M 0.5 -6.375 L 0.5 -6.953125 L 4.84375 -6.953125 L 4.84375 -6.375 L 3.015625 -6.375 L 3.015625 0 L 2.3125 0 L 2.3125 -6.375 Z M 0.5 -6.375 "/></g></g></g><g fill="#ffffff" fill-opacity="1"><g transform="translate(138.78773, 87.48933)"><g><path d="M 5.953125 -1.34375 C 6.484375 -1.882812 6.75 -2.59375 6.75 -3.46875 C 6.75 -4.351562 6.484375 -5.0625 5.953125 -5.59375 C 5.421875 -6.132812 4.75 -6.40625 3.9375 -6.40625 C 3.125 -6.40625 2.453125 -6.132812 1.921875 -5.59375 C 1.390625 -5.0625 1.125 -4.351562 1.125 -3.46875 C 1.125 -2.59375 1.390625 -1.882812 1.921875 -1.34375 C 2.453125 -0.800781 3.125 -0.53125 3.9375 -0.53125 C 4.75 -0.53125 5.421875 -0.800781 5.953125 -1.34375 Z M 1.421875 -0.921875 C 0.742188 -1.597656 0.40625 -2.445312 0.40625 -3.46875 C 0.40625 -4.5 0.742188 -5.347656 1.421875 -6.015625 C 2.109375 -6.691406 2.945312 -7.03125 3.9375 -7.03125 C 4.9375 -7.03125 5.773438 -6.691406 6.453125 -6.015625 C 7.140625 -5.347656 7.484375 -4.5 7.484375 -3.46875 C 7.484375 -2.445312 7.140625 -1.597656 6.453125 -0.921875 C 5.773438 -0.253906 4.9375 0.078125 3.9375 0.078125 C 2.945312 0.078125 2.109375 -0.253906 1.421875 -0.921875 Z M 1.421875 -0.921875 "/></g></g></g><g fill="#ffffff" fill-opacity="1"><g transform="translate(149.042425, 87.48933)"><g><path d="M 1.46875 -2.90625 L 1.46875 0 L 0.75 0 L 0.75 -6.953125 L 2.875 -6.953125 C 3.65625 -6.953125 4.25 -6.765625 4.65625 -6.390625 C 5.0625 -6.015625 5.265625 -5.539062 5.265625 -4.96875 C 5.265625 -4.40625 5.101562 -3.945312 4.78125 -3.59375 C 4.46875 -3.238281 4 -3.019531 3.375 -2.9375 L 5.34375 0 L 4.4375 0 L 2.546875 -2.90625 Z M 1.46875 -6.375 L 1.46875 -3.484375 L 2.875 -3.484375 C 3.988281 -3.484375 4.546875 -3.960938 4.546875 -4.921875 C 4.546875 -5.890625 3.988281 -6.375 2.875 -6.375 Z M 1.46875 -6.375 "/></g></g></g><g fill="#ffffff" fill-opacity="1"><g transform="translate(157.502477, 87.48933)"><g><path d="M 4.296875 -6.953125 L 4.296875 -6.375 L 1.46875 -6.375 L 1.46875 -3.78125 L 3.984375 -3.78125 L 3.984375 -3.21875 L 1.46875 -3.21875 L 1.46875 -0.5625 L 4.296875 -0.5625 L 4.296875 0 L 0.75 0 L 0.75 -6.953125 Z M 4.296875 -6.953125 "/></g></g></g><g fill="#ffffff" fill-opacity="1"><g transform="translate(164.792985, 87.48933)"><g/></g></g><g fill="#ffffff" fill-opacity="1"><g transform="translate(170.198105, 87.48933)"><g><path d="M 1.46875 -0.546875 L 2.890625 -0.546875 C 3.828125 -0.546875 4.535156 -0.796875 5.015625 -1.296875 C 5.503906 -1.804688 5.75 -2.519531 5.75 -3.4375 C 5.75 -4.351562 5.503906 -5.0625 5.015625 -5.5625 C 4.535156 -6.070312 3.828125 -6.328125 2.890625 -6.328125 L 1.46875 -6.328125 Z M 2.890625 -6.953125 C 4.015625 -6.953125 4.894531 -6.640625 5.53125 -6.015625 C 6.164062 -5.398438 6.484375 -4.539062 6.484375 -3.4375 C 6.484375 -2.332031 6.164062 -1.484375 5.53125 -0.890625 C 4.894531 -0.296875 4.015625 0 2.890625 0 L 0.75 0 L 0.75 -6.953125 Z M 2.890625 -6.953125 "/></g></g></g><g fill="#ffffff" fill-opacity="1"><g transform="translate(179.484901, 87.48933)"><g><path d="M 5.65625 0 L 5.078125 -1.625 L 1.828125 -1.625 L 1.234375 0 L 0.53125 0 L 3.09375 -6.953125 L 3.8125 -6.953125 L 6.375 0 Z M 2.03125 -2.1875 L 4.875 -2.1875 L 3.453125 -6.078125 Z M 2.03125 -2.1875 "/></g></g></g><g fill="#ffffff" fill-opacity="1"><g transform="translate(188.771696, 87.48933)"><g><path d="M 0.5 -6.375 L 0.5 -6.953125 L 4.84375 -6.953125 L 4.84375 -6.375 L 3.015625 -6.375 L 3.015625 0 L 2.3125 0 L 2.3125 -6.375 Z M 0.5 -6.375 "/></g></g></g><g fill="#ffffff" fill-opacity="1"><g transform="translate(196.485656, 87.48933)"><g><path d="M 5.65625 0 L 5.078125 -1.625 L 1.828125 -1.625 L 1.234375 0 L 0.53125 0 L 3.09375 -6.953125 L 3.8125 -6.953125 L 6.375 0 Z M 2.03125 -2.1875 L 4.875 -2.1875 L 3.453125 -6.078125 Z M 2.03125 -2.1875 "/></g></g></g><g fill="#ffffff" fill-opacity="1"><g transform="translate(205.77246, 87.48933)"><g><path d="M 0.75 -6.953125 L 3.109375 -6.953125 C 3.816406 -6.953125 4.359375 -6.78125 4.734375 -6.4375 C 5.117188 -6.09375 5.3125 -5.644531 5.3125 -5.09375 C 5.3125 -4.320312 4.867188 -3.820312 3.984375 -3.59375 C 4.421875 -3.519531 4.773438 -3.316406 5.046875 -2.984375 C 5.328125 -2.648438 5.46875 -2.242188 5.46875 -1.765625 C 5.46875 -1.296875 5.257812 -0.882812 4.84375 -0.53125 C 4.425781 -0.175781 3.882812 0 3.21875 0 L 0.75 0 Z M 1.46875 -6.375 L 1.46875 -3.875 L 3.109375 -3.875 C 3.578125 -3.875 3.941406 -3.984375 4.203125 -4.203125 C 4.460938 -4.429688 4.59375 -4.734375 4.59375 -5.109375 C 4.59375 -5.492188 4.460938 -5.800781 4.203125 -6.03125 C 3.941406 -6.257812 3.578125 -6.375 3.109375 -6.375 Z M 1.46875 -0.5625 L 3.203125 -0.5625 C 3.703125 -0.5625 4.085938 -0.679688 4.359375 -0.921875 C 4.640625 -1.171875 4.78125 -1.503906 4.78125 -1.921875 C 4.78125 -2.347656 4.628906 -2.679688 4.328125 -2.921875 C 4.023438 -3.171875 3.617188 -3.296875 3.109375 -3.296875 L 1.46875 -3.296875 Z M 1.46875 -0.5625 "/></g></g></g><g fill="#ffffff" fill-opacity="1"><g transform="translate(214.151854, 87.48933)"><g><path d="M 5.65625 0 L 5.078125 -1.625 L 1.828125 -1.625 L 1.234375 0 L 0.53125 0 L 3.09375 -6.953125 L 3.8125 -6.953125 L 6.375 0 Z M 2.03125 -2.1875 L 4.875 -2.1875 L 3.453125 -6.078125 Z M 2.03125 -2.1875 "/></g></g></g><g fill="#ffffff" fill-opacity="1"><g transform="translate(223.43865, 87.48933)"><g><path d="M 1.265625 -5.125 C 1.265625 -4.84375 1.332031 -4.613281 1.46875 -4.4375 C 1.613281 -4.269531 1.800781 -4.144531 2.03125 -4.0625 C 2.257812 -3.976562 2.507812 -3.90625 2.78125 -3.84375 C 3.0625 -3.78125 3.335938 -3.710938 3.609375 -3.640625 C 3.890625 -3.566406 4.144531 -3.46875 4.375 -3.34375 C 4.601562 -3.226562 4.789062 -3.050781 4.9375 -2.8125 C 5.082031 -2.570312 5.15625 -2.273438 5.15625 -1.921875 C 5.15625 -1.390625 4.953125 -0.921875 4.546875 -0.515625 C 4.148438 -0.117188 3.609375 0.078125 2.921875 0.078125 C 2.234375 0.078125 1.675781 -0.078125 1.25 -0.390625 C 0.820312 -0.703125 0.609375 -1.117188 0.609375 -1.640625 L 1.34375 -1.640625 C 1.375 -1.316406 1.515625 -1.050781 1.765625 -0.84375 C 2.015625 -0.632812 2.382812 -0.53125 2.875 -0.53125 C 3.375 -0.53125 3.769531 -0.65625 4.0625 -0.90625 C 4.351562 -1.164062 4.5 -1.484375 4.5 -1.859375 C 4.5 -2.234375 4.363281 -2.515625 4.09375 -2.703125 C 3.820312 -2.898438 3.492188 -3.035156 3.109375 -3.109375 C 2.734375 -3.179688 2.351562 -3.265625 1.96875 -3.359375 C 1.59375 -3.460938 1.269531 -3.65625 1 -3.9375 C 0.738281 -4.21875 0.609375 -4.625 0.609375 -5.15625 C 0.609375 -5.695312 0.804688 -6.144531 1.203125 -6.5 C 1.597656 -6.851562 2.125 -7.03125 2.78125 -7.03125 C 3.4375 -7.03125 3.953125 -6.878906 4.328125 -6.578125 C 4.703125 -6.273438 4.929688 -5.867188 5.015625 -5.359375 L 4.21875 -5.359375 C 4.195312 -5.640625 4.054688 -5.882812 3.796875 -6.09375 C 3.546875 -6.3125 3.195312 -6.421875 2.75 -6.421875 C 2.3125 -6.421875 1.953125 -6.304688 1.671875 -6.078125 C 1.398438 -5.859375 1.265625 -5.539062 1.265625 -5.125 Z M 1.265625 -5.125 "/></g></g></g><g fill="#ffffff" fill-opacity="1"><g transform="translate(231.576069, 87.48933)"><g><path d="M 4.296875 -6.953125 L 4.296875 -6.375 L 1.46875 -6.375 L 1.46875 -3.78125 L 3.984375 -3.78125 L 3.984375 -3.21875 L 1.46875 -3.21875 L 1.46875 -0.5625 L 4.296875 -0.5625 L 4.296875 0 L 0.75 0 L 0.75 -6.953125 Z M 4.296875 -6.953125 "/></g></g></g><g fill="#ffffff" fill-opacity="1"><g transform="translate(269.482034, 55.122172)"><g><path d="M 0.84375 -7.828125 L 1.640625 -7.828125 L 1.640625 -0.609375 L 4.484375 -0.609375 L 4.484375 0 L 0.84375 0 Z M 0.84375 -7.828125 "/></g></g></g><g fill="#ffffff" fill-opacity="1"><g transform="translate(274.197258, 55.122172)"><g><path d="M 3.4375 0.109375 C 2.550781 0.109375 1.832031 -0.179688 1.28125 -0.765625 C 0.726562 -1.359375 0.453125 -2.132812 0.453125 -3.09375 C 0.453125 -4.0625 0.734375 -4.835938 1.296875 -5.421875 C 1.859375 -6.015625 2.585938 -6.3125 3.484375 -6.3125 C 4.378906 -6.3125 5.09375 -6.035156 5.625 -5.484375 C 6.15625 -4.929688 6.421875 -4.242188 6.421875 -3.421875 C 6.421875 -3.203125 6.40625 -3 6.375 -2.8125 L 1.265625 -2.8125 C 1.296875 -2.101562 1.507812 -1.539062 1.90625 -1.125 C 2.3125 -0.71875 2.820312 -0.515625 3.4375 -0.515625 C 3.914062 -0.515625 4.320312 -0.625 4.65625 -0.84375 C 4.988281 -1.070312 5.222656 -1.363281 5.359375 -1.71875 L 6.203125 -1.71875 C 6.003906 -1.1875 5.671875 -0.75 5.203125 -0.40625 C 4.742188 -0.0625 4.15625 0.109375 3.4375 0.109375 Z M 5.609375 -3.4375 C 5.609375 -4.113281 5.398438 -4.65625 4.984375 -5.0625 C 4.578125 -5.46875 4.066406 -5.671875 3.453125 -5.671875 C 2.847656 -5.671875 2.34375 -5.472656 1.9375 -5.078125 C 1.53125 -4.679688 1.304688 -4.132812 1.265625 -3.4375 Z M 5.609375 -3.4375 "/></g></g></g><g fill="#ffffff" fill-opacity="1"><g transform="translate(281.054735, 55.122172)"><g><path d="M 0.15625 -6.1875 L 1.015625 -6.1875 L 3.046875 -0.78125 L 5.078125 -6.1875 L 5.9375 -6.1875 L 3.453125 0 L 2.640625 0 Z M 0.15625 -6.1875 "/></g></g></g><g fill="#ffffff" fill-opacity="1"><g transform="translate(287.141456, 55.122172)"><g><path d="M 3.4375 0.109375 C 2.550781 0.109375 1.832031 -0.179688 1.28125 -0.765625 C 0.726562 -1.359375 0.453125 -2.132812 0.453125 -3.09375 C 0.453125 -4.0625 0.734375 -4.835938 1.296875 -5.421875 C 1.859375 -6.015625 2.585938 -6.3125 3.484375 -6.3125 C 4.378906 -6.3125 5.09375 -6.035156 5.625 -5.484375 C 6.15625 -4.929688 6.421875 -4.242188 6.421875 -3.421875 C 6.421875 -3.203125 6.40625 -3 6.375 -2.8125 L 1.265625 -2.8125 C 1.296875 -2.101562 1.507812 -1.539062 1.90625 -1.125 C 2.3125 -0.71875 2.820312 -0.515625 3.4375 -0.515625 C 3.914062 -0.515625 4.320312 -0.625 4.65625 -0.84375 C 4.988281 -1.070312 5.222656 -1.363281 5.359375 -1.71875 L 6.203125 -1.71875 C 6.003906 -1.1875 5.671875 -0.75 5.203125 -0.40625 C 4.742188 -0.0625 4.15625 0.109375 3.4375 0.109375 Z M 5.609375 -3.4375 C 5.609375 -4.113281 5.398438 -4.65625 4.984375 -5.0625 C 4.578125 -5.46875 4.066406 -5.671875 3.453125 -5.671875 C 2.847656 -5.671875 2.34375 -5.472656 1.9375 -5.078125 C 1.53125 -4.679688 1.304688 -4.132812 1.265625 -3.4375 Z M 5.609375 -3.4375 "/></g></g></g><g fill="#ffffff" fill-opacity="1"><g transform="translate(293.998932, 55.122172)"><g><path d="M 0.84375 0 L 0.84375 -8.390625 L 1.640625 -8.390625 L 1.640625 0 Z M 0.84375 0 "/></g></g></g><g fill="#ffffff" fill-opacity="1"><g transform="translate(296.492562, 55.122172)"><g/></g></g><g fill="#ffffff" fill-opacity="1"><g transform="translate(299.892966, 55.122172)"><g><path d="M 5.265625 -6.1875 L 6.0625 -6.1875 L 6.0625 0 L 5.265625 0 L 5.265625 -1.015625 C 4.847656 -0.265625 4.160156 0.109375 3.203125 0.109375 C 2.515625 0.109375 1.941406 -0.113281 1.484375 -0.5625 C 1.023438 -1.007812 0.796875 -1.65625 0.796875 -2.5 L 0.796875 -6.1875 L 1.578125 -6.1875 L 1.578125 -2.65625 C 1.578125 -1.976562 1.738281 -1.457031 2.0625 -1.09375 C 2.394531 -0.738281 2.847656 -0.5625 3.421875 -0.5625 C 3.992188 -0.5625 4.441406 -0.738281 4.765625 -1.09375 C 5.097656 -1.457031 5.265625 -1.976562 5.265625 -2.65625 Z M 5.265625 -6.1875 "/></g></g></g><g fill="#ffffff" fill-opacity="1"><g transform="translate(306.795783, 55.122172)"><g><path d="M 3.9375 -0.5625 C 4.570312 -0.5625 5.113281 -0.800781 5.5625 -1.28125 C 6.007812 -1.769531 6.234375 -2.390625 6.234375 -3.140625 C 6.234375 -3.898438 6.007812 -4.503906 5.5625 -4.953125 C 5.125 -5.398438 4.582031 -5.625 3.9375 -5.625 C 3.300781 -5.625 2.757812 -5.390625 2.3125 -4.921875 C 1.863281 -4.460938 1.640625 -3.851562 1.640625 -3.09375 C 1.640625 -2.34375 1.863281 -1.734375 2.3125 -1.265625 C 2.757812 -0.796875 3.300781 -0.5625 3.9375 -0.5625 Z M 4.0625 -6.3125 C 4.925781 -6.3125 5.640625 -6.019531 6.203125 -5.4375 C 6.773438 -4.863281 7.0625 -4.097656 7.0625 -3.140625 C 7.0625 -2.191406 6.773438 -1.410156 6.203125 -0.796875 C 5.640625 -0.191406 4.925781 0.109375 4.0625 0.109375 C 3.5 0.109375 3.003906 -0.0234375 2.578125 -0.296875 C 2.160156 -0.578125 1.847656 -0.929688 1.640625 -1.359375 L 1.640625 2.921875 L 0.84375 2.921875 L 0.84375 -6.1875 L 1.640625 -6.1875 L 1.640625 -4.84375 C 1.847656 -5.269531 2.160156 -5.617188 2.578125 -5.890625 C 3.003906 -6.171875 3.5 -6.3125 4.0625 -6.3125 Z M 4.0625 -6.3125 "/></g></g></g><g fill="#ffffff" fill-opacity="1"><g transform="translate(314.299338, 55.122172)"><g/></g></g><g fill="#ffffff" fill-opacity="1"><g transform="translate(317.699741, 55.122172)"><g><path d="M 2.625 -0.09375 L 0.15625 -6.1875 L 1.015625 -6.1875 L 3.046875 -0.9375 L 5.09375 -6.1875 L 5.90625 -6.1875 L 2.21875 2.875 L 1.421875 2.875 Z M 2.625 -0.09375 "/></g></g></g><g fill="#ffffff" fill-opacity="1"><g transform="translate(323.76379, 55.122172)"><g><path d="M 3.4375 -0.515625 C 4.082031 -0.515625 4.640625 -0.742188 5.109375 -1.203125 C 5.578125 -1.671875 5.8125 -2.300781 5.8125 -3.09375 C 5.8125 -3.894531 5.585938 -4.523438 5.140625 -4.984375 C 4.703125 -5.441406 4.160156 -5.671875 3.515625 -5.671875 C 2.867188 -5.671875 2.332031 -5.441406 1.90625 -4.984375 C 1.476562 -4.535156 1.265625 -3.90625 1.265625 -3.09375 C 1.265625 -2.289062 1.46875 -1.660156 1.875 -1.203125 C 2.28125 -0.742188 2.800781 -0.515625 3.4375 -0.515625 Z M 3.453125 0.109375 C 2.566406 0.109375 1.84375 -0.179688 1.28125 -0.765625 C 0.726562 -1.359375 0.453125 -2.132812 0.453125 -3.09375 C 0.453125 -4.050781 0.742188 -4.828125 1.328125 -5.421875 C 1.921875 -6.015625 2.660156 -6.3125 3.546875 -6.3125 C 4.429688 -6.3125 5.164062 -6.015625 5.75 -5.421875 C 6.34375 -4.828125 6.640625 -4.050781 6.640625 -3.09375 C 6.640625 -2.144531 6.328125 -1.375 5.703125 -0.78125 C 5.085938 -0.1875 4.335938 0.109375 3.453125 0.109375 Z M 3.453125 0.109375 "/></g></g></g><g fill="#ffffff" fill-opacity="1"><g transform="translate(330.859291, 55.122172)"><g><path d="M 5.265625 -6.1875 L 6.0625 -6.1875 L 6.0625 0 L 5.265625 0 L 5.265625 -1.015625 C 4.847656 -0.265625 4.160156 0.109375 3.203125 0.109375 C 2.515625 0.109375 1.941406 -0.113281 1.484375 -0.5625 C 1.023438 -1.007812 0.796875 -1.65625 0.796875 -2.5 L 0.796875 -6.1875 L 1.578125 -6.1875 L 1.578125 -2.65625 C 1.578125 -1.976562 1.738281 -1.457031 2.0625 -1.09375 C 2.394531 -0.738281 2.847656 -0.5625 3.421875 -0.5625 C 3.992188 -0.5625 4.441406 -0.738281 4.765625 -1.09375 C 5.097656 -1.457031 5.265625 -1.976562 5.265625 -2.65625 Z M 5.265625 -6.1875 "/></g></g></g><g fill="#ffffff" fill-opacity="1"><g transform="translate(337.762108, 55.122172)"><g><path d="M 1.640625 -6.1875 L 1.640625 -5.171875 C 1.984375 -5.929688 2.625 -6.3125 3.5625 -6.3125 L 3.5625 -5.484375 L 3.328125 -5.484375 C 2.785156 -5.484375 2.367188 -5.332031 2.078125 -5.03125 C 1.785156 -4.738281 1.640625 -4.234375 1.640625 -3.515625 L 1.640625 0 L 0.84375 0 L 0.84375 -6.1875 Z M 1.640625 -6.1875 "/></g></g></g><g fill="#ffffff" fill-opacity="1"><g transform="translate(341.763249, 55.122172)"><g/></g></g><g fill="#ffffff" fill-opacity="1"><g transform="translate(345.163653, 55.122172)"><g><path d="M 3.9375 -0.5625 C 4.570312 -0.5625 5.113281 -0.800781 5.5625 -1.28125 C 6.007812 -1.769531 6.234375 -2.390625 6.234375 -3.140625 C 6.234375 -3.898438 6.007812 -4.503906 5.5625 -4.953125 C 5.125 -5.398438 4.582031 -5.625 3.9375 -5.625 C 3.300781 -5.625 2.757812 -5.390625 2.3125 -4.921875 C 1.863281 -4.460938 1.640625 -3.851562 1.640625 -3.09375 C 1.640625 -2.34375 1.863281 -1.734375 2.3125 -1.265625 C 2.757812 -0.796875 3.300781 -0.5625 3.9375 -0.5625 Z M 4.0625 -6.3125 C 4.925781 -6.3125 5.640625 -6.019531 6.203125 -5.4375 C 6.773438 -4.863281 7.0625 -4.097656 7.0625 -3.140625 C 7.0625 -2.191406 6.773438 -1.410156 6.203125 -0.796875 C 5.640625 -0.191406 4.925781 0.109375 4.0625 0.109375 C 3.5 0.109375 3.003906 -0.0234375 2.578125 -0.296875 C 2.160156 -0.578125 1.847656 -0.929688 1.640625 -1.359375 L 1.640625 0 L 0.84375 0 L 0.84375 -8.390625 L 1.640625 -8.390625 L 1.640625 -4.84375 C 1.847656 -5.269531 2.160156 -5.617188 2.578125 -5.890625 C 3.003906 -6.171875 3.5 -6.3125 4.0625 -6.3125 Z M 4.0625 -6.3125 "/></g></g></g><g fill="#ffffff" fill-opacity="1"><g transform="translate(352.667207, 55.122172)"><g><path d="M 5.265625 -6.1875 L 6.0625 -6.1875 L 6.0625 0 L 5.265625 0 L 5.265625 -1.015625 C 4.847656 -0.265625 4.160156 0.109375 3.203125 0.109375 C 2.515625 0.109375 1.941406 -0.113281 1.484375 -0.5625 C 1.023438 -1.007812 0.796875 -1.65625 0.796875 -2.5 L 0.796875 -6.1875 L 1.578125 -6.1875 L 1.578125 -2.65625 C 1.578125 -1.976562 1.738281 -1.457031 2.0625 -1.09375 C 2.394531 -0.738281 2.847656 -0.5625 3.421875 -0.5625 C 3.992188 -0.5625 4.441406 -0.738281 4.765625 -1.09375 C 5.097656 -1.457031 5.265625 -1.976562 5.265625 -2.65625 Z M 5.265625 -6.1875 "/></g></g></g><g fill="#ffffff" fill-opacity="1"><g transform="translate(359.570025, 55.122172)"><g><path d="M 0.6875 -4.484375 C 0.6875 -4.992188 0.894531 -5.425781 1.3125 -5.78125 C 1.738281 -6.132812 2.28125 -6.3125 2.9375 -6.3125 C 3.59375 -6.3125 4.101562 -6.140625 4.46875 -5.796875 C 4.84375 -5.453125 5.046875 -4.976562 5.078125 -4.375 L 4.265625 -4.375 C 4.253906 -4.75 4.125 -5.054688 3.875 -5.296875 C 3.632812 -5.546875 3.296875 -5.671875 2.859375 -5.671875 C 2.429688 -5.671875 2.09375 -5.5625 1.84375 -5.34375 C 1.601562 -5.132812 1.484375 -4.878906 1.484375 -4.578125 C 1.484375 -4.285156 1.570312 -4.050781 1.75 -3.875 C 1.9375 -3.707031 2.164062 -3.59375 2.4375 -3.53125 C 2.71875 -3.46875 3.019531 -3.394531 3.34375 -3.3125 C 3.664062 -3.226562 3.960938 -3.140625 4.234375 -3.046875 C 4.515625 -2.953125 4.742188 -2.78125 4.921875 -2.53125 C 5.109375 -2.289062 5.203125 -1.976562 5.203125 -1.59375 C 5.203125 -1.09375 4.992188 -0.679688 4.578125 -0.359375 C 4.160156 -0.046875 3.613281 0.109375 2.9375 0.109375 C 2.257812 0.109375 1.722656 -0.0625 1.328125 -0.40625 C 0.929688 -0.757812 0.71875 -1.234375 0.6875 -1.828125 L 1.5 -1.828125 C 1.507812 -1.441406 1.644531 -1.125 1.90625 -0.875 C 2.164062 -0.632812 2.519531 -0.515625 2.96875 -0.515625 C 3.414062 -0.515625 3.765625 -0.609375 4.015625 -0.796875 C 4.265625 -0.992188 4.390625 -1.242188 4.390625 -1.546875 C 4.390625 -1.859375 4.296875 -2.097656 4.109375 -2.265625 C 3.929688 -2.441406 3.703125 -2.5625 3.421875 -2.625 C 3.148438 -2.6875 2.851562 -2.757812 2.53125 -2.84375 C 2.207031 -2.925781 1.90625 -3.015625 1.625 -3.109375 C 1.351562 -3.203125 1.128906 -3.363281 0.953125 -3.59375 C 0.773438 -3.832031 0.6875 -4.128906 0.6875 -4.484375 Z M 0.6875 -4.484375 "/></g></g></g><g fill="#ffffff" fill-opacity="1"><g transform="translate(365.441386, 55.122172)"><g><path d="M 1.84375 -7.9375 C 1.84375 -7.78125 1.785156 -7.644531 1.671875 -7.53125 C 1.566406 -7.414062 1.429688 -7.359375 1.265625 -7.359375 C 1.097656 -7.359375 0.957031 -7.414062 0.84375 -7.53125 C 0.738281 -7.644531 0.6875 -7.78125 0.6875 -7.9375 C 0.6875 -8.101562 0.738281 -8.242188 0.84375 -8.359375 C 0.957031 -8.472656 1.097656 -8.53125 1.265625 -8.53125 C 1.429688 -8.53125 1.566406 -8.472656 1.671875 -8.359375 C 1.785156 -8.242188 1.84375 -8.101562 1.84375 -7.9375 Z M 0.84375 0 L 0.84375 -6.1875 L 1.640625 -6.1875 L 1.640625 0 Z M 0.84375 0 "/></g></g></g><g fill="#ffffff" fill-opacity="1"><g transform="translate(367.935016, 55.122172)"><g><path d="M 1.640625 -6.1875 L 1.640625 -5.1875 C 2.054688 -5.9375 2.742188 -6.3125 3.703125 -6.3125 C 4.390625 -6.3125 4.960938 -6.082031 5.421875 -5.625 C 5.878906 -5.175781 6.109375 -4.53125 6.109375 -3.6875 L 6.109375 0 L 5.328125 0 L 5.328125 -3.546875 C 5.328125 -4.222656 5.160156 -4.738281 4.828125 -5.09375 C 4.503906 -5.445312 4.054688 -5.625 3.484375 -5.625 C 2.910156 -5.625 2.457031 -5.445312 2.125 -5.09375 C 1.800781 -4.738281 1.640625 -4.222656 1.640625 -3.546875 L 1.640625 0 L 0.84375 0 L 0.84375 -6.1875 Z M 1.640625 -6.1875 "/></g></g></g><g fill="#ffffff" fill-opacity="1"><g transform="translate(374.837833, 55.122172)"><g><path d="M 3.4375 0.109375 C 2.550781 0.109375 1.832031 -0.179688 1.28125 -0.765625 C 0.726562 -1.359375 0.453125 -2.132812 0.453125 -3.09375 C 0.453125 -4.0625 0.734375 -4.835938 1.296875 -5.421875 C 1.859375 -6.015625 2.585938 -6.3125 3.484375 -6.3125 C 4.378906 -6.3125 5.09375 -6.035156 5.625 -5.484375 C 6.15625 -4.929688 6.421875 -4.242188 6.421875 -3.421875 C 6.421875 -3.203125 6.40625 -3 6.375 -2.8125 L 1.265625 -2.8125 C 1.296875 -2.101562 1.507812 -1.539062 1.90625 -1.125 C 2.3125 -0.71875 2.820312 -0.515625 3.4375 -0.515625 C 3.914062 -0.515625 4.320312 -0.625 4.65625 -0.84375 C 4.988281 -1.070312 5.222656 -1.363281 5.359375 -1.71875 L 6.203125 -1.71875 C 6.003906 -1.1875 5.671875 -0.75 5.203125 -0.40625 C 4.742188 -0.0625 4.15625 0.109375 3.4375 0.109375 Z M 5.609375 -3.4375 C 5.609375 -4.113281 5.398438 -4.65625 4.984375 -5.0625 C 4.578125 -5.46875 4.066406 -5.671875 3.453125 -5.671875 C 2.847656 -5.671875 2.34375 -5.472656 1.9375 -5.078125 C 1.53125 -4.679688 1.304688 -4.132812 1.265625 -3.4375 Z M 5.609375 -3.4375 "/></g></g></g><g fill="#ffffff" fill-opacity="1"><g transform="translate(381.695313, 55.122172)"><g><path d="M 0.6875 -4.484375 C 0.6875 -4.992188 0.894531 -5.425781 1.3125 -5.78125 C 1.738281 -6.132812 2.28125 -6.3125 2.9375 -6.3125 C 3.59375 -6.3125 4.101562 -6.140625 4.46875 -5.796875 C 4.84375 -5.453125 5.046875 -4.976562 5.078125 -4.375 L 4.265625 -4.375 C 4.253906 -4.75 4.125 -5.054688 3.875 -5.296875 C 3.632812 -5.546875 3.296875 -5.671875 2.859375 -5.671875 C 2.429688 -5.671875 2.09375 -5.5625 1.84375 -5.34375 C 1.601562 -5.132812 1.484375 -4.878906 1.484375 -4.578125 C 1.484375 -4.285156 1.570312 -4.050781 1.75 -3.875 C 1.9375 -3.707031 2.164062 -3.59375 2.4375 -3.53125 C 2.71875 -3.46875 3.019531 -3.394531 3.34375 -3.3125 C 3.664062 -3.226562 3.960938 -3.140625 4.234375 -3.046875 C 4.515625 -2.953125 4.742188 -2.78125 4.921875 -2.53125 C 5.109375 -2.289062 5.203125 -1.976562 5.203125 -1.59375 C 5.203125 -1.09375 4.992188 -0.679688 4.578125 -0.359375 C 4.160156 -0.046875 3.613281 0.109375 2.9375 0.109375 C 2.257812 0.109375 1.722656 -0.0625 1.328125 -0.40625 C 0.929688 -0.757812 0.71875 -1.234375 0.6875 -1.828125 L 1.5 -1.828125 C 1.507812 -1.441406 1.644531 -1.125 1.90625 -0.875 C 2.164062 -0.632812 2.519531 -0.515625 2.96875 -0.515625 C 3.414062 -0.515625 3.765625 -0.609375 4.015625 -0.796875 C 4.265625 -0.992188 4.390625 -1.242188 4.390625 -1.546875 C 4.390625 -1.859375 4.296875 -2.097656 4.109375 -2.265625 C 3.929688 -2.441406 3.703125 -2.5625 3.421875 -2.625 C 3.148438 -2.6875 2.851562 -2.757812 2.53125 -2.84375 C 2.207031 -2.925781 1.90625 -3.015625 1.625 -3.109375 C 1.351562 -3.203125 1.128906 -3.363281 0.953125 -3.59375 C 0.773438 -3.832031 0.6875 -4.128906 0.6875 -4.484375 Z M 0.6875 -4.484375 "/></g></g></g><g fill="#ffffff" fill-opacity="1"><g transform="translate(387.566675, 55.122172)"><g><path d="M 0.6875 -4.484375 C 0.6875 -4.992188 0.894531 -5.425781 1.3125 -5.78125 C 1.738281 -6.132812 2.28125 -6.3125 2.9375 -6.3125 C 3.59375 -6.3125 4.101562 -6.140625 4.46875 -5.796875 C 4.84375 -5.453125 5.046875 -4.976562 5.078125 -4.375 L 4.265625 -4.375 C 4.253906 -4.75 4.125 -5.054688 3.875 -5.296875 C 3.632812 -5.546875 3.296875 -5.671875 2.859375 -5.671875 C 2.429688 -5.671875 2.09375 -5.5625 1.84375 -5.34375 C 1.601562 -5.132812 1.484375 -4.878906 1.484375 -4.578125 C 1.484375 -4.285156 1.570312 -4.050781 1.75 -3.875 C 1.9375 -3.707031 2.164062 -3.59375 2.4375 -3.53125 C 2.71875 -3.46875 3.019531 -3.394531 3.34375 -3.3125 C 3.664062 -3.226562 3.960938 -3.140625 4.234375 -3.046875 C 4.515625 -2.953125 4.742188 -2.78125 4.921875 -2.53125 C 5.109375 -2.289062 5.203125 -1.976562 5.203125 -1.59375 C 5.203125 -1.09375 4.992188 -0.679688 4.578125 -0.359375 C 4.160156 -0.046875 3.613281 0.109375 2.9375 0.109375 C 2.257812 0.109375 1.722656 -0.0625 1.328125 -0.40625 C 0.929688 -0.757812 0.71875 -1.234375 0.6875 -1.828125 L 1.5 -1.828125 C 1.507812 -1.441406 1.644531 -1.125 1.90625 -0.875 C 2.164062 -0.632812 2.519531 -0.515625 2.96875 -0.515625 C 3.414062 -0.515625 3.765625 -0.609375 4.015625 -0.796875 C 4.265625 -0.992188 4.390625 -1.242188 4.390625 -1.546875 C 4.390625 -1.859375 4.296875 -2.097656 4.109375 -2.265625 C 3.929688 -2.441406 3.703125 -2.5625 3.421875 -2.625 C 3.148438 -2.6875 2.851562 -2.757812 2.53125 -2.84375 C 2.207031 -2.925781 1.90625 -3.015625 1.625 -3.109375 C 1.351562 -3.203125 1.128906 -3.363281 0.953125 -3.59375 C 0.773438 -3.832031 0.6875 -4.128906 0.6875 -4.484375 Z M 0.6875 -4.484375 "/></g></g></g><g clip-path="url(#id3)"><path fill="#ffffff" d="M 393.03125 75.945312 C 392.917969 76.003906 392.757812 76.199219 392.667969 76.382812 C 392.53125 76.660156 392.523438 76.742188 392.617188 77.046875 C 392.667969 77.238281 392.90625 77.660156 393.148438 77.984375 C 393.726562 78.757812 393.816406 78.933594 394.152344 79.882812 C 394.492188 80.863281 394.816406 81.519531 395.09375 81.820312 C 395.285156 82.023438 395.292969 82.082031 395.21875 82.285156 C 395.101562 82.578125 394.902344 83.476562 394.835938 84.03125 C 394.761719 84.558594 394.894531 85.515625 395.128906 86.144531 C 395.351562 86.742188 395.902344 87.34375 396.238281 87.34375 C 396.570312 87.34375 396.84375 87.019531 396.914062 86.539062 C 396.945312 86.3125 396.996094 86.011719 397.027344 85.875 L 397.09375 85.625 L 397.328125 86.085938 C 397.636719 86.714844 397.972656 87.101562 398.882812 87.941406 C 399.648438 88.636719 399.65625 88.636719 399.230469 88.144531 C 398.539062 87.320312 397.488281 85.5 397.203125 84.632812 C 397.121094 84.367188 397.085938 84.332031 396.980469 84.414062 C 396.730469 84.632812 396.460938 85.230469 396.371094 85.792969 C 396.195312 86.824219 396.21875 86.773438 396.027344 86.664062 C 395.609375 86.449219 395.21875 84.953125 395.308594 83.945312 C 395.335938 83.660156 395.453125 83.140625 395.570312 82.777344 C 395.6875 82.417969 395.785156 82.066406 395.785156 82.007812 C 395.785156 81.949219 395.675781 81.773438 395.542969 81.621094 C 395.183594 81.210938 394.917969 80.664062 394.585938 79.640625 C 394.410156 79.117188 394.160156 78.558594 393.992188 78.320312 C 393.015625 76.9375 392.925781 76.742188 393.132812 76.535156 C 393.367188 76.296875 394.109375 76.542969 394.96875 77.121094 C 395.378906 77.390625 395.542969 77.449219 396.144531 77.515625 C 396.527344 77.558594 397.003906 77.660156 397.210938 77.742188 C 398.414062 78.203125 400.007812 79.480469 400.898438 80.679688 C 401.46875 81.4375 401.707031 81.890625 402.460938 83.566406 C 403.226562 85.28125 403.445312 85.71875 403.652344 85.925781 C 403.769531 86.035156 404.195312 86.238281 404.59375 86.378906 C 405.09375 86.546875 405.621094 86.816406 406.214844 87.203125 C 407.566406 88.101562 407.546875 88.042969 406.546875 88.160156 C 405.65625 88.261719 404.914062 88.480469 404.84375 88.65625 C 404.769531 88.839844 405.269531 89.496094 405.789062 89.898438 C 406.070312 90.117188 406.554688 90.410156 406.863281 90.550781 C 407.171875 90.695312 407.671875 90.988281 407.992188 91.214844 C 408.300781 91.441406 408.550781 91.59375 408.550781 91.542969 C 408.550781 91.433594 407.683594 90.476562 407.296875 90.175781 C 407.140625 90.039062 406.753906 89.761719 406.4375 89.554688 C 405.570312 88.972656 405.570312 88.914062 406.488281 88.738281 C 407.730469 88.511719 408.046875 88.429688 408.046875 88.328125 C 408.046875 88.269531 407.90625 88.074219 407.730469 87.882812 C 407.113281 87.203125 405.878906 86.339844 404.863281 85.886719 L 404.144531 85.566406 L 403.578125 84.414062 C 403.277344 83.785156 402.875 82.921875 402.703125 82.492188 C 401.574219 79.722656 398.3125 76.9375 396.203125 76.9375 C 395.910156 76.9375 395.746094 76.878906 395.4375 76.660156 C 394.550781 76.023438 393.484375 75.710938 393.03125 75.945312 Z M 393.03125 75.945312 " fill-opacity="1" fill-rule="nonzero"/></g><path fill="#ffffff" d="M 396.09375 79.117188 C 396.363281 79.574219 396.402344 79.605469 396.503906 79.472656 C 396.5625 79.394531 396.621094 79.253906 396.621094 79.152344 C 396.621094 78.917969 396.285156 78.617188 396.019531 78.617188 L 395.800781 78.617188 Z M 396.09375 79.117188 " fill-opacity="1" fill-rule="nonzero"/><g clip-path="url(#id4)"><path fill="#ffffff" d="M 366.230469 89.730469 C 365.804688 89.890625 365.6875 90 365.589844 90.359375 C 365.539062 90.535156 365.503906 91.84375 365.503906 93.492188 L 365.503906 96.328125 L 366.921875 96.328125 L 366.941406 93.507812 L 366.964844 90.6875 L 368.089844 93.222656 C 368.808594 94.84375 369.308594 95.867188 369.46875 96.042969 C 369.933594 96.539062 371.011719 96.539062 371.46875 96.035156 C 371.628906 95.867188 372.136719 94.824219 372.84375 93.230469 L 373.972656 90.695312 L 373.996094 93.507812 L 374.011719 96.328125 L 375.441406 96.328125 L 375.414062 93.273438 L 375.390625 90.214844 L 375.199219 90.007812 C 374.972656 89.773438 374.457031 89.613281 373.886719 89.613281 C 373.460938 89.613281 373.144531 89.746094 372.871094 90.046875 C 372.777344 90.148438 372.195312 91.367188 371.585938 92.734375 C 370.976562 94.113281 370.453125 95.210938 370.417969 95.167969 C 370.382812 95.136719 369.941406 94.128906 369.425781 92.929688 C 368.242188 90.167969 368.140625 89.972656 367.742188 89.773438 C 367.375 89.585938 366.699219 89.5625 366.230469 89.730469 Z M 366.230469 89.730469 " fill-opacity="1" fill-rule="nonzero"/></g><path fill="#ffffff" d="M 386.101562 89.773438 C 385.46875 89.863281 384.925781 90.191406 384.714844 90.621094 C 384.484375 91.074219 384.449219 92.082031 384.648438 92.464844 C 384.984375 93.113281 385.765625 93.390625 387.234375 93.390625 C 388.378906 93.390625 389.070312 93.492188 389.296875 93.699219 C 389.503906 93.894531 389.511719 94.800781 389.304688 95.058594 C 389.070312 95.34375 388.628906 95.40625 386.507812 95.40625 L 384.523438 95.40625 L 384.523438 96.328125 L 386.800781 96.328125 C 389.246094 96.328125 389.628906 96.277344 390.195312 95.890625 C 390.714844 95.53125 390.824219 95.304688 390.847656 94.457031 C 390.882812 93.539062 390.746094 93.253906 390.179688 92.960938 C 389.589844 92.660156 389.378906 92.625 387.804688 92.566406 C 385.992188 92.5 386 92.507812 385.960938 91.644531 C 385.910156 90.652344 385.992188 90.628906 388.929688 90.621094 L 390.949219 90.621094 L 390.949219 89.695312 L 388.71875 89.703125 C 387.484375 89.714844 386.308594 89.746094 386.101562 89.773438 Z M 386.101562 89.773438 " fill-opacity="1" fill-rule="nonzero"/><path fill="#ffffff" d="M 393.492188 89.773438 C 392.976562 89.855469 392.472656 90.066406 392.207031 90.308594 C 391.816406 90.667969 391.78125 90.898438 391.78125 93.039062 C 391.78125 94.960938 391.789062 95.058594 391.972656 95.414062 C 392.125 95.707031 392.265625 95.832031 392.65625 96.035156 L 393.160156 96.285156 L 394.910156 96.300781 L 396.660156 96.320312 L 397.230469 96.824219 L 397.789062 97.335938 L 398.605469 97.335938 L 399.414062 97.328125 L 399.082031 97.015625 C 398.898438 96.847656 398.582031 96.5625 398.378906 96.386719 C 398.1875 96.210938 398.039062 96.050781 398.054688 96.042969 C 398.0625 96.035156 398.207031 95.933594 398.355469 95.832031 C 398.832031 95.496094 398.871094 95.277344 398.871094 93.046875 C 398.871094 91.835938 398.839844 90.957031 398.78125 90.8125 C 398.648438 90.441406 398.296875 90.132812 397.796875 89.941406 C 397.378906 89.78125 397.136719 89.753906 395.621094 89.730469 C 394.675781 89.722656 393.726562 89.738281 393.492188 89.773438 Z M 397.335938 90.980469 C 397.539062 91.214844 397.539062 91.230469 397.539062 93.039062 C 397.539062 94.554688 397.511719 94.890625 397.40625 95.050781 C 397.335938 95.152344 397.246094 95.238281 397.195312 95.238281 C 397.152344 95.238281 396.894531 95.027344 396.621094 94.773438 L 396.121094 94.3125 L 395.308594 94.3125 L 394.492188 94.320312 L 395.078125 94.859375 L 395.660156 95.394531 L 394.816406 95.40625 C 394.074219 95.40625 393.941406 95.378906 393.691406 95.210938 C 393.542969 95.109375 393.390625 94.933594 393.359375 94.816406 C 393.285156 94.546875 393.265625 91.652344 393.332031 91.292969 C 393.375 91.113281 393.484375 90.964844 393.652344 90.863281 C 393.882812 90.710938 394.050781 90.703125 395.519531 90.71875 L 397.136719 90.746094 Z M 397.335938 90.980469 " fill-opacity="1" fill-rule="nonzero"/><path fill="#ffffff" d="M 399.808594 92.449219 L 399.832031 95.210938 L 400.066406 95.511719 C 400.582031 96.203125 401.199219 96.328125 404.019531 96.328125 L 406.128906 96.328125 L 406.128906 95.414062 L 403.929688 95.386719 C 401.832031 95.363281 401.707031 95.355469 401.484375 95.1875 L 401.25 95.011719 L 401.226562 92.347656 L 401.207031 89.695312 L 399.78125 89.695312 Z M 399.808594 92.449219 " fill-opacity="1" fill-rule="nonzero"/><g clip-path="url(#id5)"><path fill="#ffffff" d="M 376.597656 93.347656 C 376.597656 95.195312 376.648438 95.40625 377.125 95.78125 C 377.660156 96.183594 378.035156 96.242188 380.128906 96.242188 L 382.046875 96.242188 L 381.996094 96.628906 C 381.914062 97.367188 381.746094 97.410156 378.875 97.417969 L 376.683594 97.417969 L 376.683594 98.359375 L 379.253906 98.324219 C 381.394531 98.292969 381.886719 98.265625 382.253906 98.140625 C 382.832031 97.957031 383.316406 97.476562 383.382812 97.03125 C 383.414062 96.855469 383.441406 95.582031 383.441406 94.203125 L 383.441406 91.710938 L 382.023438 91.710938 L 382.023438 95.40625 L 380.226562 95.40625 C 377.835938 95.40625 378.019531 95.574219 378.019531 93.347656 L 378.019531 91.710938 L 376.597656 91.710938 Z M 376.597656 93.347656 " fill-opacity="1" fill-rule="nonzero"/></g><g clip-path="url(#id6)"><path fill="#ffffff" d="M 407.363281 94.40625 C 407.046875 94.523438 406.796875 94.96875 406.796875 95.40625 C 406.796875 95.691406 406.847656 95.808594 407.074219 96.035156 C 407.429688 96.394531 407.730469 96.46875 408.164062 96.320312 C 408.816406 96.09375 409.066406 95.371094 408.691406 94.808594 C 408.382812 94.347656 407.914062 94.203125 407.363281 94.40625 Z M 408.40625 94.800781 C 408.917969 95.277344 408.539062 96.160156 407.816406 96.160156 C 406.921875 96.160156 406.714844 94.808594 407.582031 94.582031 C 407.921875 94.488281 408.125 94.539062 408.40625 94.800781 Z M 408.40625 94.800781 " fill-opacity="1" fill-rule="nonzero"/></g><g clip-path="url(#id7)"><path fill="#ffffff" d="M 407.382812 95.320312 C 407.382812 95.789062 407.40625 95.90625 407.507812 95.90625 C 407.589844 95.90625 407.632812 95.824219 407.632812 95.65625 C 407.632812 95.511719 407.664062 95.40625 407.707031 95.40625 C 407.757812 95.40625 407.855469 95.511719 407.941406 95.65625 C 408.015625 95.789062 408.132812 95.90625 408.191406 95.90625 C 408.273438 95.90625 408.265625 95.847656 408.15625 95.691406 C 408.023438 95.488281 408.023438 95.464844 408.15625 95.386719 C 408.347656 95.285156 408.339844 94.925781 408.140625 94.816406 C 408.046875 94.773438 407.839844 94.734375 407.683594 94.734375 L 407.382812 94.734375 Z M 408.089844 95.070312 C 408.089844 95.144531 408 95.203125 407.863281 95.21875 C 407.671875 95.246094 407.632812 95.210938 407.632812 95.070312 C 407.632812 94.925781 407.671875 94.890625 407.863281 94.917969 C 408 94.933594 408.089844 94.992188 408.089844 95.070312 Z M 408.089844 95.070312 " fill-opacity="1" fill-rule="nonzero"/></g><g fill="#ffffff" fill-opacity="1"><g transform="translate(351.901261, 85.031021)"><g><path d="M 2.859375 -3.921875 C 3.109375 -3.691406 3.234375 -3.390625 3.234375 -3.015625 C 3.234375 -2.648438 3.109375 -2.351562 2.859375 -2.125 C 2.617188 -1.894531 2.253906 -1.78125 1.765625 -1.78125 L 0.890625 -1.78125 L 0.890625 0 L 0.46875 0 L 0.46875 -4.265625 L 1.765625 -4.265625 C 2.242188 -4.265625 2.609375 -4.148438 2.859375 -3.921875 Z M 0.890625 -2.140625 L 1.765625 -2.140625 C 2.453125 -2.140625 2.796875 -2.4375 2.796875 -3.03125 C 2.796875 -3.625 2.453125 -3.921875 1.765625 -3.921875 L 0.890625 -3.921875 Z M 0.890625 -2.140625 "/></g></g></g><g fill="#ffffff" fill-opacity="1"><g transform="translate(355.373832, 85.031021)"><g><path d="M 1.875 -0.28125 C 2.226562 -0.28125 2.53125 -0.40625 2.78125 -0.65625 C 3.039062 -0.914062 3.171875 -1.257812 3.171875 -1.6875 C 3.171875 -2.125 3.046875 -2.46875 2.796875 -2.71875 C 2.554688 -2.96875 2.257812 -3.09375 1.90625 -3.09375 C 1.5625 -3.09375 1.269531 -2.96875 1.03125 -2.71875 C 0.800781 -2.46875 0.6875 -2.125 0.6875 -1.6875 C 0.6875 -1.25 0.796875 -0.90625 1.015625 -0.65625 C 1.242188 -0.40625 1.53125 -0.28125 1.875 -0.28125 Z M 1.875 0.0625 C 1.394531 0.0625 1.003906 -0.0976562 0.703125 -0.421875 C 0.398438 -0.742188 0.25 -1.164062 0.25 -1.6875 C 0.25 -2.207031 0.410156 -2.628906 0.734375 -2.953125 C 1.054688 -3.273438 1.457031 -3.4375 1.9375 -3.4375 C 2.414062 -3.4375 2.816406 -3.273438 3.140625 -2.953125 C 3.460938 -2.628906 3.625 -2.207031 3.625 -1.6875 C 3.625 -1.175781 3.453125 -0.753906 3.109375 -0.421875 C 2.773438 -0.0976562 2.363281 0.0625 1.875 0.0625 Z M 1.875 0.0625 "/></g></g></g><g fill="#ffffff" fill-opacity="1"><g transform="translate(359.241856, 85.031021)"><g><path d="M 4.359375 -3.375 L 4.8125 -3.375 L 3.734375 0 L 3.296875 0 L 2.453125 -2.84375 L 1.609375 0 L 1.171875 0 L 0.09375 -3.375 L 0.546875 -3.375 L 1.390625 -0.46875 L 2.265625 -3.375 L 2.703125 -3.375 L 3.515625 -0.46875 Z M 4.359375 -3.375 "/></g></g></g><g fill="#ffffff" fill-opacity="1"><g transform="translate(364.135584, 85.031021)"><g><path d="M 1.875 0.0625 C 1.394531 0.0625 1.003906 -0.0976562 0.703125 -0.421875 C 0.398438 -0.742188 0.25 -1.164062 0.25 -1.6875 C 0.25 -2.21875 0.398438 -2.640625 0.703125 -2.953125 C 1.015625 -3.273438 1.414062 -3.4375 1.90625 -3.4375 C 2.394531 -3.4375 2.78125 -3.285156 3.0625 -2.984375 C 3.351562 -2.679688 3.5 -2.3125 3.5 -1.875 C 3.5 -1.75 3.492188 -1.632812 3.484375 -1.53125 L 0.6875 -1.53125 C 0.707031 -1.144531 0.828125 -0.835938 1.046875 -0.609375 C 1.265625 -0.390625 1.539062 -0.28125 1.875 -0.28125 C 2.132812 -0.28125 2.351562 -0.335938 2.53125 -0.453125 C 2.71875 -0.578125 2.847656 -0.738281 2.921875 -0.9375 L 3.390625 -0.9375 C 3.273438 -0.644531 3.09375 -0.40625 2.84375 -0.21875 C 2.59375 -0.03125 2.269531 0.0625 1.875 0.0625 Z M 3.0625 -1.875 C 3.0625 -2.25 2.945312 -2.546875 2.71875 -2.765625 C 2.488281 -2.984375 2.207031 -3.09375 1.875 -3.09375 C 1.550781 -3.09375 1.273438 -2.984375 1.046875 -2.765625 C 0.828125 -2.546875 0.707031 -2.25 0.6875 -1.875 Z M 3.0625 -1.875 "/></g></g></g><g fill="#ffffff" fill-opacity="1"><g transform="translate(367.873846, 85.031021)"><g><path d="M 0.890625 -3.375 L 0.890625 -2.828125 C 1.078125 -3.234375 1.425781 -3.4375 1.9375 -3.4375 L 1.9375 -2.984375 L 1.8125 -2.984375 C 1.519531 -2.984375 1.289062 -2.898438 1.125 -2.734375 C 0.96875 -2.578125 0.890625 -2.304688 0.890625 -1.921875 L 0.890625 0 L 0.46875 0 L 0.46875 -3.375 Z M 0.890625 -3.375 "/></g></g></g><g fill="#ffffff" fill-opacity="1"><g transform="translate(370.055017, 85.031021)"><g><path d="M 1.875 0.0625 C 1.394531 0.0625 1.003906 -0.0976562 0.703125 -0.421875 C 0.398438 -0.742188 0.25 -1.164062 0.25 -1.6875 C 0.25 -2.21875 0.398438 -2.640625 0.703125 -2.953125 C 1.015625 -3.273438 1.414062 -3.4375 1.90625 -3.4375 C 2.394531 -3.4375 2.78125 -3.285156 3.0625 -2.984375 C 3.351562 -2.679688 3.5 -2.3125 3.5 -1.875 C 3.5 -1.75 3.492188 -1.632812 3.484375 -1.53125 L 0.6875 -1.53125 C 0.707031 -1.144531 0.828125 -0.835938 1.046875 -0.609375 C 1.265625 -0.390625 1.539062 -0.28125 1.875 -0.28125 C 2.132812 -0.28125 2.351562 -0.335938 2.53125 -0.453125 C 2.71875 -0.578125 2.847656 -0.738281 2.921875 -0.9375 L 3.390625 -0.9375 C 3.273438 -0.644531 3.09375 -0.40625 2.84375 -0.21875 C 2.59375 -0.03125 2.269531 0.0625 1.875 0.0625 Z M 3.0625 -1.875 C 3.0625 -2.25 2.945312 -2.546875 2.71875 -2.765625 C 2.488281 -2.984375 2.207031 -3.09375 1.875 -3.09375 C 1.550781 -3.09375 1.273438 -2.984375 1.046875 -2.765625 C 0.828125 -2.546875 0.707031 -2.25 0.6875 -1.875 Z M 3.0625 -1.875 "/></g></g></g><g fill="#ffffff" fill-opacity="1"><g transform="translate(373.793279, 85.031021)"><g><path d="M 2.828125 -0.6875 C 3.078125 -0.945312 3.203125 -1.28125 3.203125 -1.6875 C 3.203125 -2.101562 3.078125 -2.4375 2.828125 -2.6875 C 2.585938 -2.9375 2.289062 -3.0625 1.9375 -3.0625 C 1.59375 -3.0625 1.296875 -2.941406 1.046875 -2.703125 C 0.804688 -2.460938 0.6875 -2.132812 0.6875 -1.71875 C 0.6875 -1.300781 0.804688 -0.960938 1.046875 -0.703125 C 1.296875 -0.441406 1.59375 -0.3125 1.9375 -0.3125 C 2.289062 -0.3125 2.585938 -0.4375 2.828125 -0.6875 Z M 1.875 0.0625 C 1.40625 0.0625 1.015625 -0.101562 0.703125 -0.4375 C 0.398438 -0.769531 0.25 -1.195312 0.25 -1.71875 C 0.25 -2.238281 0.398438 -2.65625 0.703125 -2.96875 C 1.015625 -3.28125 1.40625 -3.4375 1.875 -3.4375 C 2.1875 -3.4375 2.457031 -3.363281 2.6875 -3.21875 C 2.914062 -3.070312 3.085938 -2.878906 3.203125 -2.640625 L 3.203125 -4.578125 L 3.625 -4.578125 L 3.625 0 L 3.203125 0 L 3.203125 -0.75 C 3.085938 -0.507812 2.914062 -0.3125 2.6875 -0.15625 C 2.457031 -0.0078125 2.1875 0.0625 1.875 0.0625 Z M 1.875 0.0625 "/></g></g></g><g fill="#ffffff" fill-opacity="1"><g transform="translate(377.883744, 85.031021)"><g/></g></g><g fill="#ffffff" fill-opacity="1"><g transform="translate(379.737427, 85.031021)"><g><path d="M 2.140625 -0.3125 C 2.492188 -0.3125 2.789062 -0.441406 3.03125 -0.703125 C 3.28125 -0.960938 3.40625 -1.300781 3.40625 -1.71875 C 3.40625 -2.132812 3.28125 -2.460938 3.03125 -2.703125 C 2.789062 -2.941406 2.492188 -3.0625 2.140625 -3.0625 C 1.796875 -3.0625 1.5 -2.9375 1.25 -2.6875 C 1.007812 -2.4375 0.890625 -2.101562 0.890625 -1.6875 C 0.890625 -1.28125 1.007812 -0.945312 1.25 -0.6875 C 1.5 -0.4375 1.796875 -0.3125 2.140625 -0.3125 Z M 2.21875 -3.4375 C 2.6875 -3.4375 3.070312 -3.28125 3.375 -2.96875 C 3.6875 -2.65625 3.84375 -2.238281 3.84375 -1.71875 C 3.84375 -1.195312 3.6875 -0.769531 3.375 -0.4375 C 3.070312 -0.101562 2.6875 0.0625 2.21875 0.0625 C 1.90625 0.0625 1.632812 -0.0078125 1.40625 -0.15625 C 1.175781 -0.3125 1.003906 -0.507812 0.890625 -0.75 L 0.890625 0 L 0.46875 0 L 0.46875 -4.578125 L 0.890625 -4.578125 L 0.890625 -2.640625 C 1.003906 -2.878906 1.175781 -3.070312 1.40625 -3.21875 C 1.632812 -3.363281 1.90625 -3.4375 2.21875 -3.4375 Z M 2.21875 -3.4375 "/></g></g></g><g fill="#ffffff" fill-opacity="1"><g transform="translate(383.827892, 85.031021)"><g><path d="M 1.421875 -0.046875 L 0.09375 -3.375 L 0.546875 -3.375 L 1.671875 -0.5 L 2.78125 -3.375 L 3.21875 -3.375 L 1.21875 1.578125 L 0.765625 1.578125 Z M 1.421875 -0.046875 "/></g></g></g></svg>