<svg width="16" height="16" viewBox="0 0 16 16" fill="none" xmlns="http://www.w3.org/2000/svg">
<g clip-path="url(#clip0_7_30)">
<path d="M8.04113 0.669984C13.5808 5.01292 13.6922 8.2153 12.015 9.87092L13.7541 11.6099C16.3118 8.46673 16.0896 2.98702 8.04113 0.669922V0.669984ZM6.85612 1.34698C6.33384 1.49845 5.77269 1.5678 5.27456 1.55792C4.84694 1.54948 4.47113 1.51292 4.18281 1.35761L0.660313 4.88008L2.38375 6.6037L7.24831 1.73923L6.85612 1.34698ZM5.56581 4.2173L4.19581 5.5873L13.8125 15.2038C13.9064 15.2978 14.0136 15.3137 14.2057 15.2553C14.3977 15.1968 14.6344 15.0448 14.8289 14.8504C15.0234 14.6559 15.1754 14.4191 15.2338 14.2271C15.2922 14.035 15.2764 13.9278 15.1825 13.8339L5.56578 4.21727L5.56581 4.2173ZM5.29503 9.83401L4.02159 10.9941L5.60953 12.5675C7.47659 14.1239 9.55469 14.2311 11.2981 13.485L8.94578 11.1326C7.57891 11.2175 6.17556 10.8057 5.29506 9.83398L5.29503 9.83401ZM3.45328 11.2675C3.28063 11.3008 3.17275 11.36 3.09969 11.4316C3.03853 11.4917 2.99813 11.574 2.96688 11.668L4.69156 13.3194C4.86241 13.2879 4.981 13.232 5.044 13.1729C5.10641 13.1144 5.14075 13.0522 5.14075 12.9376L3.45325 11.2676L3.45328 11.2675ZM2.68078 12.2149L0.9425 13.7988C0.419469 14.6425 1.40169 15.7113 2.53919 15.1944L4.1495 13.6232L2.68075 12.215V12.2149H2.68078Z" fill="#E9D100"/>
</g>
<defs>
<clipPath id="clip0_7_30">
<rect width="16" height="16" fill="white"/>
</clipPath>
</defs>
</svg>
