<svg width="124" height="124" viewBox="0 0 124 124" fill="none" xmlns="http://www.w3.org/2000/svg">
<rect x="0.25" y="0.25" width="123.75" height="123.75" rx="61.875" fill="#786960"/>
<rect x="7.75" y="7.75" width="108.75" height="106.875" rx="53.4375" fill="#8A8787"/>
<g clip-path="url(#clip0_0_55)">
<path d="M91.4218 54.2453V36.5782C91.4218 32.7004 88.2685 29.5469 84.3905 29.5469H31.6561C27.7784 29.5469 24.625 32.7002 24.625 36.5782V71.7344C24.625 75.6122 27.7784 78.7657 31.6563 78.7657H71.0777C73.3809 86.8691 80.8321 92.8281 89.6641 92.8281C93.063 92.8281 96.4052 91.9338 99.3338 90.2395C100.173 89.7537 100.462 88.6791 99.974 87.838C99.4882 86.9969 98.4119 86.7067 97.5725 87.1977C95.1795 88.5814 92.4449 89.3126 89.664 89.3126C80.94 89.3126 73.8436 82.216 73.8436 73.4922C73.8436 64.7685 80.9402 57.6719 89.664 57.6719C98.3877 57.6719 105.484 64.7685 105.484 73.4922V75.2501C105.484 77.1881 103.907 78.7657 101.969 78.7657C100.031 78.7657 98.4531 77.1881 98.4531 75.2501V68.2188C98.4531 67.2472 97.6669 66.4609 96.6953 66.4609C96.2225 66.4609 95.7976 66.6523 95.482 66.9553C93.9284 65.5709 91.9037 64.7031 89.664 64.7031C84.818 64.7031 80.8749 68.6461 80.8749 73.4921C80.8749 78.338 84.818 82.2812 89.6641 82.2812C92.2837 82.2812 94.6129 81.1061 96.2246 79.2817C97.498 81.0906 99.593 82.2812 101.969 82.2812C105.847 82.2812 109 79.1279 109 75.2499V73.4921C109 63.4236 101.262 55.1375 91.4218 54.2453ZM31.6563 33.0624H84.3907C84.4638 33.0624 84.5252 33.0999 84.5973 33.1043L59.4689 53.7305C58.5746 54.2936 57.2785 54.1768 56.6966 53.8198L31.4518 33.104C31.5232 33.0997 31.5838 33.0624 31.6563 33.0624ZM87.9062 54.2453C78.0662 55.1375 70.3281 63.4236 70.3281 73.4922C70.3281 74.0855 70.3645 74.6702 70.4171 75.2501H31.6563C29.7183 75.2501 28.1407 73.6725 28.1407 71.7345V36.5782C28.1407 36.0803 28.2507 35.6102 28.4382 35.1807L54.6213 56.6523C55.6443 57.3201 56.8203 57.6721 58.0237 57.6721C59.1807 57.6721 60.3118 57.346 61.3075 56.728C61.4071 56.6748 61.5015 56.6113 61.5908 56.5375L87.6086 35.1804C87.7963 35.6102 87.9064 36.0803 87.9064 36.5783V54.2453H87.9062ZM89.6641 78.7657C86.7561 78.7657 84.3907 76.4002 84.3907 73.4922C84.3907 70.5843 86.7561 68.2188 89.6641 68.2188C92.5721 68.2188 94.9376 70.5843 94.9376 73.4922C94.9376 76.4002 92.5721 78.7657 89.6641 78.7657Z" fill="white"/>
</g>
<defs>
<clipPath id="clip0_0_55">
<rect width="84.375" height="84.375" fill="white" transform="translate(24.625 19)"/>
</clipPath>
</defs>
</svg>
