<svg width="124" height="124" viewBox="0 0 124 124" fill="none" xmlns="http://www.w3.org/2000/svg">
<rect x="0.25" width="123.75" height="123.75" rx="61.875" fill="#786960"/>
<rect x="7.75" y="7.5" width="108.75" height="106.875" rx="53.4375" fill="#8A8787"/>
<g clip-path="url(#clip0_0_65)">
<path d="M85.6814 71.0174C83.954 69.2188 81.8705 68.2571 79.6623 68.2571C77.472 68.2571 75.3706 69.201 73.572 70.9996L67.9447 76.6091C67.4817 76.3598 67.0187 76.1283 66.5735 75.8967C65.9324 75.5762 65.327 75.2735 64.8105 74.9529C59.5394 71.605 54.7491 67.2421 50.1546 61.597C47.9286 58.7833 46.4328 56.4149 45.3465 54.0108C46.8067 52.6752 48.1601 51.2862 49.4779 49.9506C49.9765 49.452 50.4752 48.9355 50.9738 48.4369C54.7134 44.6973 54.7134 39.8535 50.9738 36.1138L46.1122 31.2523C45.5602 30.7002 44.9903 30.1304 44.4561 29.5605C43.3876 28.4564 42.2657 27.3167 41.1082 26.2483C39.3808 24.5387 37.3151 23.6305 35.1425 23.6305C32.97 23.6305 30.8686 24.5387 29.0878 26.2483C29.07 26.2661 29.07 26.2661 29.0522 26.2839L22.9975 32.392C20.7181 34.6714 19.4181 37.4494 19.1332 40.6727C18.7058 45.8726 20.2373 50.7163 21.4126 53.8862C24.2975 61.6682 28.607 68.8804 35.0357 76.6091C42.8356 85.9226 52.2203 93.2773 62.9407 98.4594C67.0365 100.4 72.5036 102.698 78.6117 103.089C78.9856 103.107 79.3774 103.125 79.7336 103.125C83.8472 103.125 87.3019 101.647 90.0087 98.7087C90.0266 98.6731 90.0622 98.6553 90.08 98.6197C91.006 97.4978 92.0745 96.4827 93.1964 95.3964C93.9621 94.6663 94.7457 93.9006 95.5114 93.0992C97.2744 91.265 98.2004 89.128 98.2004 86.9377C98.2004 84.7295 97.2566 82.6103 95.458 80.8295L85.6814 71.0174ZM92.0567 89.7691C92.0388 89.7691 92.0388 89.7869 92.0567 89.7691C91.3621 90.5171 90.6498 91.1938 89.8841 91.9417C88.7266 93.0458 87.5513 94.2033 86.4472 95.5033C84.6486 97.4265 82.5294 98.3347 79.7514 98.3347C79.4843 98.3347 79.1993 98.3347 78.9322 98.3169C73.6433 97.9786 68.7283 95.9129 65.042 94.1499C54.9628 89.2705 46.1122 82.3432 38.7575 73.5639C32.685 66.2449 28.6248 59.4778 25.9358 52.2122C24.2797 47.778 23.6742 44.3233 23.9414 41.0645C24.1194 38.9809 24.9208 37.2536 26.3988 35.7755L32.4713 29.703C33.3439 28.8838 34.2699 28.4386 35.1782 28.4386C36.3001 28.4386 37.2083 29.1153 37.7781 29.6852C37.7959 29.703 37.8137 29.7208 37.8315 29.7386C38.9178 30.7537 39.9507 31.8043 41.037 32.9262C41.589 33.4961 42.1589 34.0659 42.7287 34.6536L47.5903 39.5152C49.4779 41.4028 49.4779 43.148 47.5903 45.0356C47.0738 45.552 46.5752 46.0685 46.0588 46.5671C44.5629 48.0986 43.1383 49.5232 41.589 50.9122C41.5534 50.9478 41.5178 50.9657 41.5 51.0013C39.9685 52.5328 40.2534 54.0286 40.574 55.0437C40.5918 55.0971 40.6096 55.1505 40.6274 55.2039C41.8917 58.2669 43.6725 61.1518 46.3793 64.5887L46.3971 64.6065C51.3121 70.6612 56.4942 75.3803 62.2106 78.9953C62.9407 79.4583 63.6886 79.8323 64.4009 80.1885C65.042 80.509 65.6475 80.8117 66.1639 81.1323C66.2352 81.1679 66.3064 81.2213 66.3776 81.2569C66.9831 81.5597 67.553 81.7021 68.1406 81.7021C69.6187 81.7021 70.5447 80.7761 70.8474 80.4734L76.9377 74.3831C77.5432 73.7776 78.5048 73.0475 79.6267 73.0475C80.7308 73.0475 81.639 73.742 82.1911 74.3475C82.2089 74.3653 82.2089 74.3653 82.2267 74.3831L92.0388 84.1952C93.8731 86.0116 93.8731 87.8815 92.0567 89.7691Z" fill="white"/>
<path d="M64.5982 38.8205C69.2639 39.604 73.5022 41.8122 76.8857 45.1957C80.2692 48.5792 82.4596 52.8175 83.2609 57.4832C83.4568 58.6585 84.4719 59.4777 85.6294 59.4777C85.7719 59.4777 85.8965 59.4599 86.039 59.4421C87.3568 59.2284 88.2294 57.9818 88.0157 56.664C87.054 51.0189 84.3828 45.8724 80.3048 41.7944C76.2268 37.7164 71.0803 35.0452 65.4352 34.0836C64.1174 33.8699 62.8887 34.7425 62.6572 36.0424C62.4257 37.3424 63.2804 38.6068 64.5982 38.8205Z" fill="white"/>
<path d="M103.277 55.9696C101.692 46.6739 97.3113 38.2151 90.5799 31.4837C83.8486 24.7523 75.3898 20.3716 66.0941 18.7867C64.7941 18.5551 63.5653 19.4455 63.3338 20.7455C63.1201 22.0633 63.9927 23.2921 65.3105 23.5236C73.609 24.9304 81.1774 28.8659 87.1964 34.8672C93.2155 40.8863 97.1333 48.4547 98.5401 56.7531C98.736 57.9285 99.751 58.7476 100.909 58.7476C101.051 58.7476 101.176 58.7298 101.318 58.712C102.618 58.5161 103.509 57.2696 103.277 55.9696Z" fill="white"/>
</g>
<defs>
<clipPath id="clip0_0_65">
<rect width="84.375" height="84.375" fill="white" transform="translate(19 18.75)"/>
</clipPath>
</defs>
</svg>
