<svg width="249" height="68" viewBox="0 0 249 68" fill="none" xmlns="http://www.w3.org/2000/svg">
<path fill-rule="evenodd" clip-rule="evenodd" d="M102.944 55.7923H102.833C102.883 55.7923 102.917 55.8479 102.967 55.8535H103L102.944 55.7978V55.7923ZM102.967 55.8535C102.45 55.859 101.15 56.1316 99.7778 56.1316C95.4444 56.1316 93.9445 54.1291 93.9445 51.5147V34.0985H102.778C103.278 34.0985 103.667 33.6535 103.667 33.0416V23.5854C103.667 23.0848 103.222 22.6398 102.778 22.6398H93.9445V10.9029C93.9445 10.4579 93.6667 10.1798 93.1667 10.1798H81.1667C80.6667 10.1798 80.3889 10.4579 80.3889 10.9029V22.9735C80.3889 22.9735 74.3333 24.4754 73.9445 24.531C73.5 24.6423 73.2222 25.0316 73.2222 25.4766V33.0416C73.2222 33.6535 73.6667 34.0985 74.1667 34.0985H80.3333V52.3435C80.3333 65.916 89.7778 67.3066 96.2222 67.3066C99.1667 67.3066 102.722 66.361 103.278 66.0829C103.611 65.9716 103.778 65.5823 103.778 65.1929V56.8491C103.785 56.6125 103.708 56.381 103.559 56.1971C103.41 56.0132 103.2 55.8892 102.967 55.8479V55.8535ZM234.611 43.6104C234.611 33.5423 230.556 32.2073 226.278 32.6523C222.944 32.8748 220.278 34.5435 220.278 34.5435V54.1235C220.278 54.1235 223 56.0148 227.056 56.126C232.778 56.2929 234.611 54.2348 234.611 43.6104ZM248.111 42.7204C248.111 61.7998 241.944 67.251 231.167 67.251C222.056 67.251 217.167 62.6341 217.167 62.6341C217.167 62.6341 216.944 65.1929 216.667 65.5266C216.5 65.8604 216.222 65.9716 215.889 65.9716H207.667C207.111 65.9716 206.611 65.5266 206.611 65.026L206.722 3.22664C206.722 2.72601 207.167 2.28101 207.667 2.28101H219.5C220 2.28101 220.444 2.72601 220.444 3.22664V24.1973C220.444 24.1973 225 21.2491 231.667 21.2491L231.611 21.1379C238.278 21.1379 248.111 23.641 248.111 42.7204ZM199.667 22.6398H188C187.389 22.6398 187.056 23.0848 187.056 23.6966V53.9566C187.056 53.9566 184 56.126 179.833 56.126C175.667 56.126 174.444 54.2348 174.444 50.0629V23.641C174.444 23.1404 174 22.6954 173.5 22.6954H161.611C161.111 22.6954 160.667 23.1404 160.667 23.641V52.0654C160.667 64.3029 167.5 67.3623 176.889 67.3623C184.611 67.3623 190.889 63.0791 190.889 63.0791C190.889 63.0791 191.167 65.2485 191.333 65.5823C191.444 65.8604 191.833 66.0829 192.222 66.0829H199.667C200.278 66.0829 200.611 65.6379 200.611 65.1373L200.722 23.5854C200.722 23.0848 200.278 22.6398 199.667 22.6398ZM68 22.5841H56.1667C55.6667 22.5841 55.2222 23.0848 55.2222 23.6966V64.5254C55.2222 65.6379 55.9444 66.0273 56.8889 66.0273H67.5556C68.6667 66.0273 68.9445 65.5266 68.9445 64.5254V23.5298C68.9445 23.0291 68.5 22.5841 68 22.5841ZM62.1667 3.78289C57.8889 3.78289 54.5 7.17601 54.5 11.4591C54.5 15.7423 57.8889 19.1354 62.1667 19.1354C66.3333 19.1354 69.7222 15.7423 69.7222 11.4591C69.7222 7.17601 66.3333 3.78289 62.1667 3.78289ZM153.778 2.39226H142.056C141.556 2.39226 141.111 2.83726 141.111 3.33789V26.0885H122.722V3.33789C122.722 2.83726 122.278 2.39226 121.778 2.39226H109.944C109.444 2.39226 109 2.83726 109 3.33789V65.1373C109 65.6379 109.5 66.0829 109.944 66.0829H121.778C122.278 66.0829 122.722 65.6379 122.722 65.1373V38.7154H141.111L141 65.1373C141 65.6379 141.444 66.0829 141.944 66.0829H153.778C154.278 66.0829 154.722 65.6379 154.722 65.1373V3.33789C154.722 2.83726 154.278 2.39226 153.778 2.39226ZM48.9445 29.7598V61.6885C48.9445 61.911 48.8889 62.3004 48.6111 62.4116C48.6111 62.4116 41.6667 67.3623 30.2222 67.3623C16.3889 67.3623 0 63.0235 0 34.4323C0 5.84101 14.3333 -0.0552368 28.3333 0.000388203C40.4444 0.000388203 45.3333 2.72601 46.1111 3.22664C46.3333 3.50476 46.4444 3.72726 46.4444 4.00539L44.1111 13.9066C44.1111 14.4073 43.6111 15.0191 43 14.8523C41 14.2404 38 13.0166 30.9444 13.0166C22.7778 13.0166 14 15.3529 14 33.7648C14 52.1766 22.3333 54.346 28.3333 54.346C33.4444 54.346 35.2778 53.7341 35.2778 53.7341V40.9404H27.1111C26.5 40.9404 26.0556 40.4954 26.0556 39.9948V29.7598C26.0556 29.2591 26.5 28.8141 27.1111 28.8141H47.8889C48.5 28.8141 48.9445 29.2591 48.9445 29.7598Z" fill="white"/>
</svg>
