<svg xmlns="http://www.w3.org/2000/svg" xmlns:xlink="http://www.w3.org/1999/xlink" width="194" zoomAndPan="magnify" viewBox="0 0 145.5 104.999996" height="140" preserveAspectRatio="xMidYMid meet" version="1.0"><defs><clipPath id="id1"><path d="M 0 46 L 145 46 L 145 59 L 0 59 Z M 0 46 " clip-rule="nonzero"/></clipPath><clipPath id="id2"><path d="M 0 0.179688 L 145 0.179688 L 145 13 L 0 13 Z M 0 0.179688 " clip-rule="nonzero"/></clipPath><clipPath id="id3"><path d="M 0 93 L 145 93 L 145 104.820312 L 0 104.820312 Z M 0 93 " clip-rule="nonzero"/></clipPath></defs><g clip-path="url(#id1)"><path fill="rgb(65.098572%, 65.098572%, 65.098572%)" d="M 139.347656 58.738281 L 6.152344 58.738281 C 2.8125 58.738281 0.0976562 56.023438 0.0976562 52.679688 C 0.0976562 49.335938 2.8125 46.621094 6.152344 46.621094 L 139.347656 46.621094 C 142.6875 46.621094 145.402344 49.335938 145.402344 52.679688 C 145.402344 56.023438 142.6875 58.738281 139.347656 58.738281 Z M 139.347656 58.738281 " fill-opacity="1" fill-rule="nonzero"/></g><g clip-path="url(#id2)"><path fill="rgb(65.098572%, 65.098572%, 65.098572%)" d="M 139.347656 12.296875 L 6.152344 12.296875 C 2.8125 12.296875 0.0976562 9.582031 0.0976562 6.238281 C 0.0976562 2.894531 2.8125 0.179688 6.152344 0.179688 L 139.347656 0.179688 C 142.6875 0.179688 145.402344 2.894531 145.402344 6.238281 C 145.402344 9.582031 142.6875 12.296875 139.347656 12.296875 Z M 139.347656 12.296875 " fill-opacity="1" fill-rule="nonzero"/></g><g clip-path="url(#id3)"><path fill="rgb(65.098572%, 65.098572%, 65.098572%)" d="M 139.347656 105.179688 L 6.152344 105.179688 C 2.8125 105.179688 0.0976562 102.464844 0.0976562 99.121094 C 0.0976562 95.777344 2.8125 93.0625 6.152344 93.0625 L 139.347656 93.0625 C 142.6875 93.0625 145.402344 95.777344 145.402344 99.121094 C 145.402344 102.464844 142.6875 105.179688 139.347656 105.179688 Z M 139.347656 105.179688 " fill-opacity="1" fill-rule="nonzero"/></g></svg>