<svg width="76" height="40" viewBox="0 0 76 40" fill="none" xmlns="http://www.w3.org/2000/svg">
<path d="M73.816 38.9784C73.8442 38.9727 73.8717 38.9651 73.8995 38.958C73.9231 38.9519 73.947 38.9469 73.9702 38.9398C73.9973 38.9315 74.0237 38.9213 74.0502 38.9118C74.0736 38.9033 74.0973 38.8957 74.1205 38.886C74.1454 38.8756 74.1695 38.8634 74.1938 38.8519C74.2174 38.8407 74.2415 38.8303 74.2647 38.8177C74.2879 38.8053 74.3098 38.7912 74.3323 38.7778C74.3556 38.7639 74.379 38.7509 74.4015 38.7357C74.4256 38.7197 74.4479 38.7019 74.4711 38.6845C74.4907 38.67 74.5106 38.6563 74.5297 38.6407C74.5648 38.6119 74.5982 38.5811 74.6308 38.5494C74.6366 38.5438 74.6429 38.539 74.6488 38.5332C74.6548 38.5271 74.66 38.5204 74.6659 38.5141C74.6971 38.482 74.7275 38.449 74.7561 38.4143C74.7728 38.3939 74.7873 38.3727 74.803 38.3516C74.819 38.3299 74.8359 38.3089 74.8509 38.2864C74.8669 38.2623 74.881 38.2373 74.8958 38.2126C74.9081 38.1918 74.9214 38.1714 74.9329 38.1499C74.9463 38.125 74.9576 38.0992 74.9695 38.0738C74.9801 38.0513 74.9914 38.0289 75.0012 38.0057C75.0116 37.9808 75.0198 37.9554 75.0289 37.93C75.0378 37.9053 75.0474 37.8808 75.0549 37.8557C75.0628 37.8301 75.0684 37.804 75.0749 37.778C75.0812 37.7524 75.0886 37.7273 75.0936 37.7015C75.0996 37.6709 75.1033 37.6401 75.1077 37.6093C75.1107 37.5876 75.1148 37.5661 75.117 37.5442C75.1224 37.4902 75.1252 37.4362 75.1252 37.382V2.61649C75.1252 1.71801 74.3972 0.98999 73.4987 0.98999H22.2639C22.2496 0.98999 22.2357 0.991724 22.2214 0.992158C22.1904 0.993025 22.1596 0.994327 22.1288 0.996929C22.1043 0.998881 22.08 1.0017 22.0557 1.00495C22.0279 1.00842 22.0004 1.01254 21.9728 1.01753C21.947 1.02209 21.9214 1.02751 21.8961 1.03336C21.8703 1.03944 21.8444 1.04594 21.8189 1.05332C21.7935 1.06047 21.7685 1.06828 21.7438 1.07652C21.7184 1.08519 21.6931 1.0943 21.6681 1.10428C21.6445 1.1136 21.6213 1.12315 21.5983 1.13356C21.5727 1.14505 21.5473 1.15741 21.5222 1.17021C21.5007 1.18127 21.4797 1.19254 21.4589 1.20447C21.4337 1.21878 21.409 1.23397 21.3845 1.24958C21.3643 1.26259 21.3446 1.27604 21.3251 1.2897C21.3021 1.30596 21.2793 1.32288 21.257 1.34066C21.2366 1.35693 21.2166 1.37363 21.1969 1.39076C21.1774 1.40789 21.1581 1.42502 21.1392 1.44324C21.1177 1.46384 21.0971 1.48531 21.0767 1.507C21.0665 1.51784 21.0557 1.52739 21.0459 1.53845C21.0401 1.54495 21.0355 1.55211 21.0299 1.55862C21.0095 1.58225 20.9904 1.60698 20.9713 1.63192C20.9575 1.65013 20.9431 1.66835 20.9301 1.687C20.9132 1.71129 20.8976 1.73623 20.882 1.76139C20.8692 1.78199 20.856 1.80237 20.8443 1.82341C20.8306 1.8477 20.8187 1.87264 20.8063 1.89758C20.795 1.92035 20.7833 1.94312 20.7731 1.96633C20.7625 1.99083 20.7532 2.01621 20.7438 2.04114C20.7345 2.06565 20.725 2.08994 20.717 2.11466C20.7089 2.1396 20.7024 2.16498 20.6955 2.19035C20.6885 2.21637 20.6812 2.24218 20.6753 2.26842C20.6699 2.29293 20.6662 2.31787 20.6619 2.34259C20.6571 2.37078 20.6523 2.39898 20.6489 2.42717C20.646 2.45059 20.6447 2.47444 20.643 2.4983C20.6408 2.52866 20.6389 2.55902 20.6385 2.5896C20.6382 2.59849 20.6371 2.60717 20.6371 2.61606V12.6466C20.6371 13.5451 21.3652 14.2731 22.2637 14.2731C23.1621 14.2731 23.8902 13.5451 23.8902 12.6466V6.22841L38.3511 19.0316C38.2756 19.0847 38.2029 19.1435 38.1353 19.2109L23.8899 33.4563V22.7673C23.8899 21.8689 23.1619 21.1408 22.2634 21.1408C21.365 21.1408 20.6369 21.8689 20.6369 22.7673V24.7547H12.2333C11.3349 24.7547 10.6068 25.4827 10.6068 26.3812C10.6068 27.2797 11.3349 28.0077 12.2333 28.0077H20.6369V37.3831C20.6369 38.2816 21.365 39.0096 22.2634 39.0096H73.4983C73.5518 39.0096 73.6054 39.0068 73.6588 39.0016C73.6837 38.9992 73.7078 38.9944 73.7323 38.991C73.7605 38.9871 73.7882 38.9838 73.816 38.9784ZM71.872 33.4565L57.6264 19.2112C57.6173 19.2021 57.6076 19.1945 57.5982 19.1858L68.3078 10.0997C68.9926 9.5185 69.0768 8.49229 68.4956 7.80721C67.9148 7.12256 66.8886 7.03798 66.2031 7.6194L47.9036 23.1449L26.5544 4.24321H71.872V33.4565V33.4565ZM40.4358 21.5117C40.5518 21.3957 40.646 21.2664 40.7195 21.1289L46.8028 26.5148C47.1103 26.787 47.4955 26.9236 47.8811 26.9236C48.2554 26.9236 48.6295 26.795 48.9335 26.5374L55.1331 21.2775C55.1895 21.3599 55.253 21.4386 55.3261 21.5117L69.5715 35.757H26.1905L40.4358 21.5117Z" fill="white"/>
<path d="M1.7515 19.514H29.2214C30.1199 19.514 30.8479 18.786 30.8479 17.8875C30.8479 16.989 30.1199 16.261 29.2214 16.261H1.7515C0.853023 16.261 0.125 16.989 0.125 17.8875C0.125 18.786 0.853023 19.514 1.7515 19.514Z" fill="white"/>
<path d="M4.59791 10.5507H16.9322C17.8307 10.5507 18.5587 9.82271 18.5587 8.92423C18.5587 8.02575 17.8307 7.29773 16.9322 7.29773H4.59791C3.69943 7.29773 2.97141 8.02575 2.97141 8.92423C2.97141 9.82271 3.69943 10.5507 4.59791 10.5507Z" fill="white"/>
<path d="M13.6792 31.6226H1.7515C0.853023 31.6226 0.125 32.3506 0.125 33.2491C0.125 34.1475 0.853023 34.8756 1.7515 34.8756H13.6792C14.5777 34.8756 15.3057 34.1475 15.3057 33.2491C15.3057 32.3506 14.5777 31.6226 13.6792 31.6226Z" fill="white"/>
</svg>
