<svg width="124" height="125" viewBox="0 0 124 125" fill="none" xmlns="http://www.w3.org/2000/svg">
<rect x="0.25" y="0.75" width="123.75" height="123.75" rx="61.875" fill="#786960"/>
<rect x="7.75" y="8.25" width="108.75" height="106.875" rx="53.4375" fill="#8A8787"/>
<g clip-path="url(#clip0_0_42)">
<path d="M75.2735 75.2477C84.252 61.1588 83.1234 62.9165 83.3821 62.5492C86.651 57.9386 88.3787 52.512 88.3787 46.856C88.3787 31.8563 76.2067 19.5 61.1875 19.5C46.2172 19.5 33.9963 31.8319 33.9963 46.856C33.9963 52.5084 35.7603 58.077 39.1363 62.7498L47.1012 75.2478C38.5854 76.5565 24.1086 80.4563 24.1086 89.0435C24.1086 92.1737 26.1518 96.6347 35.8852 100.111C42.6817 102.538 51.6675 103.875 61.1875 103.875C78.9895 103.875 98.2664 98.8534 98.2664 89.0435C98.2664 80.4548 83.8066 76.5591 75.2735 75.2477ZM43.2659 60.0305C43.2387 59.988 43.2104 59.9464 43.1807 59.9056C40.3714 56.0408 38.9402 51.4605 38.9402 46.856C38.9402 34.4934 48.8948 24.4438 61.1875 24.4438C73.4547 24.4438 83.4348 34.4978 83.4348 46.856C83.4348 51.4679 82.0306 55.8928 79.3733 59.6557C79.1352 59.9698 80.3775 58.0398 61.1875 88.1517L43.2659 60.0305ZM61.1875 98.9312C41.7427 98.9312 29.0525 93.2156 29.0525 89.0435C29.0525 86.2393 35.5731 81.6285 50.0223 79.8313L59.1028 94.0799C59.5567 94.7922 60.3428 95.2233 61.1873 95.2233C62.0319 95.2233 62.8181 94.792 63.2718 94.0799L72.3522 79.8313C86.8017 81.6285 93.3225 86.2393 93.3225 89.0435C93.3225 93.1801 80.7465 98.9312 61.1875 98.9312Z" fill="white"/>
<path d="M61.1875 34.4963C54.3724 34.4963 48.8279 40.0409 48.8279 46.856C48.8279 53.6711 54.3724 59.2156 61.1875 59.2156C68.0026 59.2156 73.5471 53.6711 73.5471 46.856C73.5471 40.0409 68.0026 34.4963 61.1875 34.4963ZM61.1875 54.2717C57.0984 54.2717 53.7717 50.945 53.7717 46.856C53.7717 42.7669 57.0984 39.4402 61.1875 39.4402C65.2766 39.4402 68.6033 42.7669 68.6033 46.856C68.6033 50.945 65.2766 54.2717 61.1875 54.2717Z" fill="white"/>
</g>
<defs>
<clipPath id="clip0_0_42">
<rect width="84.375" height="84.375" fill="white" transform="translate(19 19.5)"/>
</clipPath>
</defs>
</svg>
