<svg xmlns="http://www.w3.org/2000/svg" xmlns:xlink="http://www.w3.org/1999/xlink" width="500" zoomAndPan="magnify" viewBox="0 0 375 84.749999" height="113" preserveAspectRatio="xMidYMid meet" version="1.0"><defs><g/><clipPath id="id1"><path d="M 4.320312 1 L 77.277344 1 L 77.277344 83 L 4.320312 83 Z M 4.320312 1 " clip-rule="nonzero"/></clipPath></defs><g clip-path="url(#id1)"><path fill="#ffffff" d="M 4.367188 72.960938 L 4.367188 11.652344 C 4.367188 11.222656 4.394531 10.796875 4.453125 10.371094 C 4.507812 9.945312 4.589844 9.527344 4.703125 9.113281 C 4.8125 8.699219 4.953125 8.292969 5.117188 7.894531 C 5.28125 7.5 5.46875 7.117188 5.683594 6.746094 C 5.898438 6.371094 6.136719 6.015625 6.398438 5.675781 C 6.660156 5.335938 6.945312 5.015625 7.246094 4.710938 C 7.550781 4.40625 7.875 4.125 8.214844 3.863281 C 8.554688 3.601562 8.910156 3.363281 9.28125 3.148438 C 9.65625 2.933594 10.039062 2.746094 10.4375 2.582031 C 10.832031 2.417969 11.238281 2.28125 11.652344 2.167969 C 12.070312 2.058594 12.488281 1.972656 12.914062 1.917969 C 13.339844 1.859375 13.769531 1.832031 14.199219 1.832031 C 14.628906 1.832031 15.058594 1.859375 15.484375 1.914062 C 15.910156 1.96875 16.328125 2.054688 16.746094 2.164062 C 17.160156 2.273438 17.566406 2.414062 17.960938 2.574219 C 18.359375 2.738281 18.746094 2.929688 19.117188 3.144531 L 72.308594 33.777344 C 72.683594 33.992188 73.039062 34.230469 73.378906 34.492188 C 73.722656 34.753906 74.042969 35.035156 74.347656 35.339844 C 74.652344 35.640625 74.933594 35.964844 75.195312 36.304688 C 75.457031 36.644531 75.695312 37 75.910156 37.375 C 76.125 37.746094 76.316406 38.128906 76.480469 38.527344 C 76.644531 38.921875 76.78125 39.328125 76.894531 39.742188 C 77.003906 40.160156 77.089844 40.578125 77.144531 41.003906 C 77.199219 41.429688 77.230469 41.855469 77.230469 42.285156 C 77.230469 42.714844 77.199219 43.144531 77.144531 43.570312 C 77.089844 43.996094 77.003906 44.414062 76.894531 44.828125 C 76.78125 45.246094 76.644531 45.648438 76.480469 46.046875 C 76.316406 46.441406 76.125 46.828125 75.910156 47.199219 C 75.695312 47.570312 75.457031 47.925781 75.195312 48.269531 C 74.933594 48.609375 74.652344 48.929688 74.347656 49.234375 C 74.042969 49.539062 73.722656 49.820312 73.378906 50.082031 C 73.039062 50.34375 72.683594 50.582031 72.308594 50.796875 L 19.878906 80.996094 C 18.183594 82.222656 16.292969 82.824219 14.203125 82.792969 C 13.5625 82.792969 12.929688 82.730469 12.300781 82.609375 C 11.671875 82.484375 11.0625 82.300781 10.46875 82.058594 C 9.875 81.816406 9.3125 81.519531 8.78125 81.164062 C 8.246094 80.8125 7.75 80.410156 7.296875 79.960938 C 6.839844 79.511719 6.433594 79.023438 6.070312 78.496094 C 5.710938 77.96875 5.40625 77.410156 5.15625 76.820312 C 4.90625 76.230469 4.714844 75.625 4.582031 75 C 4.453125 74.375 4.382812 73.742188 4.375 73.101562 Z M 4.367188 72.960938 " fill-opacity="1" fill-rule="nonzero"/></g><g fill="#ffffff" fill-opacity="1"><g transform="translate(237.099848, 76.274126)"><g><path d="M 32.71875 -68.875 C 39.945312 -68.875 46.28125 -67.421875 51.71875 -64.515625 C 57.15625 -61.617188 61.335938 -57.566406 64.265625 -52.359375 C 67.203125 -47.148438 68.671875 -41.191406 68.671875 -34.484375 C 68.671875 -27.835938 67.1875 -21.910156 64.21875 -16.703125 C 61.257812 -11.492188 57.0625 -7.40625 51.625 -4.4375 C 46.1875 -1.476562 39.882812 0 32.71875 0 L 5.46875 0 L 5.46875 -68.875 Z M 31.265625 -16.90625 C 36.859375 -16.90625 41.25 -18.429688 44.4375 -21.484375 C 47.632812 -24.546875 49.234375 -28.878906 49.234375 -34.484375 C 49.234375 -40.148438 47.632812 -44.53125 44.4375 -47.625 C 41.25 -50.71875 36.859375 -52.265625 31.265625 -52.265625 L 24.625 -52.265625 L 24.625 -16.90625 Z M 31.265625 -16.90625 "/></g></g></g><g fill="#ffffff" fill-opacity="1"><g transform="translate(308.896231, 76.274126)"><g><path d="M 49.4375 -35.359375 C 53.46875 -34.453125 56.671875 -32.453125 59.046875 -29.359375 C 61.429688 -26.265625 62.625 -22.726562 62.625 -18.75 C 62.625 -12.894531 60.601562 -8.304688 56.5625 -4.984375 C 52.519531 -1.660156 46.851562 0 39.5625 0 L 5.46875 0 L 5.46875 -68.875 L 38.484375 -68.875 C 45.523438 -68.875 51.046875 -67.304688 55.046875 -64.171875 C 59.046875 -61.046875 61.046875 -56.65625 61.046875 -51 C 61.046875 -46.957031 59.988281 -43.582031 57.875 -40.875 C 55.757812 -38.175781 52.945312 -36.335938 49.4375 -35.359375 Z M 24.625 -41.515625 L 34.28125 -41.515625 C 39.101562 -41.515625 41.515625 -43.5 41.515625 -47.46875 C 41.515625 -51.570312 39.101562 -53.625 34.28125 -53.625 L 24.625 -53.625 Z M 35.75 -15.4375 C 40.570312 -15.4375 42.984375 -17.453125 42.984375 -21.484375 C 42.984375 -23.578125 42.347656 -25.175781 41.078125 -26.28125 C 39.804688 -27.382812 38 -27.9375 35.65625 -27.9375 L 24.625 -27.9375 L 24.625 -15.4375 Z M 35.75 -15.4375 "/></g></g></g><g fill="#ffffff" fill-opacity="1"><g transform="translate(96.912995, 66.405175)"><g><path d="M 33.265625 -25.5 C 33.265625 -23.1875 32.726562 -21.078125 31.65625 -19.171875 C 30.59375 -17.273438 28.984375 -15.757812 26.828125 -14.625 C 24.679688 -13.488281 22.050781 -12.921875 18.9375 -12.921875 L 13.671875 -12.921875 L 13.671875 0 L 3.03125 0 L 3.03125 -38.25 L 18.9375 -38.25 C 22.007812 -38.25 24.625 -37.707031 26.78125 -36.625 C 28.9375 -35.539062 30.554688 -34.039062 31.640625 -32.125 C 32.722656 -30.207031 33.265625 -28 33.265625 -25.5 Z M 17.90625 -21.375 C 20.90625 -21.375 22.40625 -22.75 22.40625 -25.5 C 22.40625 -28.289062 20.90625 -29.6875 17.90625 -29.6875 L 13.671875 -29.6875 L 13.671875 -21.375 Z M 17.90625 -21.375 "/></g></g></g><g fill="#ffffff" fill-opacity="1"><g transform="translate(131.42652, 66.405175)"><g><path d="M 13.671875 -8.140625 L 25.5625 -8.140625 L 25.5625 0 L 3.03125 0 L 3.03125 -38.25 L 13.671875 -38.25 Z M 13.671875 -8.140625 "/></g></g></g><g fill="#ffffff" fill-opacity="1"><g transform="translate(158.071394, 66.405175)"><g><path d="M 27.234375 -6.234375 L 13.671875 -6.234375 L 11.609375 0 L 0.4375 0 L 14.375 -38.25 L 26.640625 -38.25 L 40.53125 0 L 29.296875 0 Z M 24.578125 -14.375 L 20.453125 -26.75 L 16.390625 -14.375 Z M 24.578125 -14.375 "/></g></g></g><g fill="#ffffff" fill-opacity="1"><g transform="translate(199.042642, 66.405175)"><g><path d="M 37.828125 -38.25 L 24.359375 -12.15625 L 24.359375 0 L 13.671875 0 L 13.671875 -12.15625 L 0.21875 -38.25 L 12.375 -38.25 L 19.09375 -23.5 L 25.828125 -38.25 Z M 37.828125 -38.25 "/></g></g></g></svg>