<svg xmlns="http://www.w3.org/2000/svg" xmlns:xlink="http://www.w3.org/1999/xlink" width="202" zoomAndPan="magnify" viewBox="0 0 151.5 74.999997" height="100" preserveAspectRatio="xMidYMid meet" version="1.0"><defs><g/><clipPath id="id1"><path d="M 107 8.257812 L 151 8.257812 L 151 50 L 107 50 Z M 107 8.257812 " clip-rule="nonzero"/></clipPath><clipPath id="id2"><path d="M 65 50 L 84 50 L 84 67.863281 L 65 67.863281 Z M 65 50 " clip-rule="nonzero"/></clipPath><clipPath id="id3"><path d="M 145 57 L 151 57 L 151 63 L 145 63 Z M 145 57 " clip-rule="nonzero"/></clipPath></defs><g clip-path="url(#id1)"><path fill="#ffffff" d="M 109.167969 8.523438 C 108.859375 8.679688 108.4375 9.191406 108.195312 9.679688 C 107.84375 10.414062 107.820312 10.636719 108.0625 11.4375 C 108.195312 11.949219 108.835938 13.058594 109.476562 13.929688 C 111.003906 15.972656 111.246094 16.441406 112.128906 18.953125 C 113.035156 21.554688 113.898438 23.292969 114.628906 24.09375 C 115.136719 24.625 115.160156 24.78125 114.960938 25.316406 C 114.648438 26.09375 114.121094 28.472656 113.941406 29.941406 C 113.742188 31.34375 114.097656 33.878906 114.714844 35.546875 C 115.3125 37.125 116.773438 38.726562 117.65625 38.726562 C 118.539062 38.726562 119.269531 37.859375 119.445312 36.589844 C 119.535156 35.992188 119.667969 35.191406 119.753906 34.835938 L 119.933594 34.167969 L 120.550781 35.390625 C 121.367188 37.058594 122.253906 38.082031 124.664062 40.304688 C 126.695312 42.152344 126.71875 42.152344 125.589844 40.839844 C 123.757812 38.660156 120.972656 33.832031 120.21875 31.542969 C 120 30.832031 119.910156 30.742188 119.621094 30.964844 C 118.960938 31.542969 118.253906 33.121094 118.007812 34.613281 C 117.546875 37.347656 117.613281 37.214844 117.101562 36.925781 C 116 36.347656 114.960938 32.386719 115.203125 29.71875 C 115.269531 28.964844 115.578125 27.582031 115.886719 26.628906 C 116.195312 25.671875 116.460938 24.738281 116.460938 24.582031 C 116.460938 24.425781 116.175781 23.957031 115.820312 23.558594 C 114.871094 22.46875 114.164062 21.023438 113.28125 18.308594 C 112.816406 16.929688 112.152344 15.441406 111.710938 14.816406 C 109.125 11.148438 108.882812 10.636719 109.433594 10.082031 C 110.054688 9.457031 112.019531 10.101562 114.296875 11.636719 C 115.378906 12.347656 115.820312 12.503906 117.414062 12.683594 C 118.429688 12.792969 119.6875 13.058594 120.242188 13.28125 C 123.425781 14.507812 127.644531 17.886719 130.011719 21.066406 C 131.515625 23.070312 132.15625 24.269531 134.144531 28.71875 C 136.175781 33.253906 136.753906 34.410156 137.304688 34.96875 C 137.613281 35.257812 138.742188 35.789062 139.800781 36.167969 C 141.128906 36.613281 142.519531 37.324219 144.089844 38.347656 C 147.671875 40.730469 147.625 40.574219 144.972656 40.882812 C 142.609375 41.152344 140.640625 41.730469 140.464844 42.195312 C 140.265625 42.6875 141.59375 44.421875 142.960938 45.488281 C 143.714844 46.066406 144.996094 46.84375 145.8125 47.222656 C 146.632812 47.601562 147.957031 48.378906 148.796875 48.980469 C 149.617188 49.582031 150.277344 49.980469 150.277344 49.847656 C 150.277344 49.558594 147.980469 47.023438 146.964844 46.222656 C 146.542969 45.867188 145.527344 45.132812 144.6875 44.578125 C 142.386719 43.042969 142.386719 42.886719 144.820312 42.417969 C 148.113281 41.820312 148.953125 41.597656 148.953125 41.328125 C 148.953125 41.171875 148.578125 40.660156 148.113281 40.148438 C 146.476562 38.347656 143.207031 36.058594 140.507812 34.855469 L 138.609375 34.011719 L 137.105469 30.964844 C 136.308594 29.296875 135.25 27.003906 134.785156 25.871094 C 131.800781 18.53125 123.160156 11.148438 117.566406 11.148438 C 116.792969 11.148438 116.351562 10.992188 115.535156 10.414062 C 113.191406 8.722656 110.363281 7.902344 109.167969 8.523438 Z M 109.167969 8.523438 " fill-opacity="1" fill-rule="nonzero"/></g><path fill="#ffffff" d="M 117.28125 16.929688 C 117.988281 18.132812 118.097656 18.21875 118.363281 17.863281 C 118.519531 17.664062 118.671875 17.285156 118.671875 17.019531 C 118.671875 16.398438 117.789062 15.597656 117.082031 15.597656 L 116.507812 15.597656 Z M 117.28125 16.929688 " fill-opacity="1" fill-rule="nonzero"/><path fill="#ffffff" d="M 38.15625 45.042969 C 37.027344 45.464844 36.71875 45.753906 36.453125 46.710938 C 36.320312 47.179688 36.230469 50.648438 36.230469 55.007812 L 36.230469 62.523438 L 39.988281 62.523438 L 40.035156 55.050781 L 40.101562 47.578125 L 43.082031 54.296875 C 44.984375 58.589844 46.308594 61.300781 46.730469 61.769531 C 47.96875 63.082031 50.820312 63.082031 52.035156 61.746094 C 52.453125 61.300781 53.804688 58.542969 55.683594 54.316406 L 58.664062 47.601562 L 58.730469 55.050781 L 58.777344 62.523438 L 62.554688 62.523438 L 62.488281 54.429688 L 62.421875 46.332031 L 61.914062 45.777344 C 61.316406 45.15625 59.949219 44.730469 58.445312 44.730469 C 57.316406 44.730469 56.476562 45.085938 55.75 45.886719 C 55.503906 46.15625 53.957031 49.378906 52.34375 53.003906 C 50.730469 56.652344 49.339844 59.566406 49.25 59.457031 C 49.160156 59.367188 47.988281 56.699219 46.621094 53.515625 C 43.480469 46.199219 43.214844 45.6875 42.15625 45.15625 C 41.183594 44.664062 39.390625 44.597656 38.15625 45.042969 Z M 38.15625 45.042969 " fill-opacity="1" fill-rule="nonzero"/><path fill="#ffffff" d="M 90.800781 45.15625 C 89.121094 45.398438 87.6875 46.265625 87.132812 47.402344 C 86.515625 48.601562 86.425781 51.269531 86.957031 52.292969 C 87.839844 54.007812 89.917969 54.742188 93.808594 54.742188 C 96.835938 54.742188 98.671875 55.007812 99.265625 55.5625 C 99.820312 56.074219 99.839844 58.476562 99.289062 59.167969 C 98.671875 59.921875 97.5 60.078125 91.886719 60.078125 L 86.625 60.078125 L 86.625 62.523438 L 92.660156 62.523438 C 99.132812 62.523438 100.152344 62.390625 101.652344 61.367188 C 103.023438 60.410156 103.3125 59.8125 103.378906 57.566406 C 103.464844 55.140625 103.113281 54.382812 101.609375 53.605469 C 100.039062 52.804688 99.488281 52.714844 95.3125 52.5625 C 90.515625 52.382812 90.535156 52.40625 90.425781 50.113281 C 90.292969 47.488281 90.515625 47.421875 98.292969 47.402344 L 103.644531 47.402344 L 103.644531 44.953125 L 97.742188 44.976562 C 94.472656 45 91.355469 45.085938 90.800781 45.15625 Z M 90.800781 45.15625 " fill-opacity="1" fill-rule="nonzero"/><path fill="#ffffff" d="M 110.382812 45.15625 C 109.015625 45.378906 107.6875 45.933594 106.980469 46.578125 C 105.941406 47.535156 105.851562 48.136719 105.851562 53.804688 C 105.851562 58.898438 105.875 59.167969 106.363281 60.101562 C 106.757812 60.878906 107.136719 61.210938 108.175781 61.746094 L 109.5 62.414062 L 114.140625 62.457031 L 118.78125 62.503906 L 120.285156 63.835938 L 121.765625 65.195312 L 123.933594 65.195312 L 126.078125 65.171875 L 125.191406 64.347656 C 124.707031 63.902344 123.867188 63.148438 123.335938 62.679688 C 122.828125 62.214844 122.429688 61.789062 122.472656 61.769531 C 122.496094 61.746094 122.871094 61.480469 123.269531 61.210938 C 124.53125 60.324219 124.640625 59.746094 124.640625 53.828125 C 124.640625 50.625 124.550781 48.289062 124.398438 47.914062 C 124.042969 46.933594 123.113281 46.109375 121.789062 45.597656 C 120.683594 45.175781 120.042969 45.109375 116.019531 45.042969 C 113.523438 45.019531 111.003906 45.066406 110.382812 45.15625 Z M 120.574219 48.355469 C 121.105469 48.980469 121.105469 49.023438 121.105469 53.804688 C 121.105469 57.832031 121.039062 58.722656 120.75 59.144531 C 120.574219 59.410156 120.332031 59.632812 120.199219 59.632812 C 120.085938 59.632812 119.402344 59.078125 118.671875 58.410156 L 117.347656 57.1875 L 115.203125 57.1875 L 113.035156 57.210938 L 114.582031 58.632812 L 116.132812 60.054688 L 113.898438 60.078125 C 111.929688 60.078125 111.578125 60.011719 110.914062 59.566406 C 110.515625 59.300781 110.121094 58.832031 110.03125 58.523438 C 109.832031 57.808594 109.789062 50.136719 109.964844 49.179688 C 110.074219 48.714844 110.363281 48.3125 110.804688 48.046875 C 111.421875 47.644531 111.863281 47.625 115.753906 47.667969 L 120.042969 47.734375 Z M 120.574219 48.355469 " fill-opacity="1" fill-rule="nonzero"/><path fill="#ffffff" d="M 127.117188 52.25 L 127.183594 59.566406 L 127.800781 60.367188 C 129.171875 62.191406 130.808594 62.523438 138.277344 62.523438 L 143.867188 62.523438 L 143.867188 60.101562 L 138.035156 60.035156 C 132.488281 59.96875 132.15625 59.945312 131.558594 59.5 L 130.9375 59.03125 L 130.871094 51.984375 L 130.828125 44.953125 L 127.050781 44.953125 Z M 127.117188 52.25 " fill-opacity="1" fill-rule="nonzero"/><g clip-path="url(#id2)"><path fill="#ffffff" d="M 65.628906 54.628906 C 65.628906 59.523438 65.761719 60.078125 67.019531 61.078125 C 68.433594 62.148438 69.429688 62.300781 74.976562 62.300781 L 80.058594 62.300781 L 79.925781 63.324219 C 79.707031 65.28125 79.265625 65.394531 71.660156 65.417969 L 65.847656 65.417969 L 65.847656 67.90625 L 72.65625 67.820312 C 78.335938 67.730469 79.640625 67.664062 80.613281 67.328125 C 82.136719 66.839844 83.417969 65.570312 83.597656 64.394531 C 83.683594 63.925781 83.75 60.546875 83.75 56.898438 L 83.75 50.292969 L 79.992188 50.292969 L 79.992188 60.078125 L 75.242188 60.078125 C 68.898438 60.078125 69.386719 60.523438 69.386719 54.628906 L 69.386719 50.292969 L 65.628906 50.292969 Z M 65.628906 54.628906 " fill-opacity="1" fill-rule="nonzero"/></g><g clip-path="url(#id3)"><path fill="#ffffff" d="M 147.140625 57.433594 C 146.300781 57.742188 145.636719 58.921875 145.636719 60.078125 C 145.636719 60.835938 145.769531 61.144531 146.367188 61.746094 C 147.316406 62.703125 148.113281 62.902344 149.261719 62.503906 C 150.984375 61.902344 151.648438 59.988281 150.65625 58.5 C 149.835938 57.277344 148.597656 56.898438 147.140625 57.433594 Z M 149.902344 58.476562 C 151.25 59.746094 150.257812 62.082031 148.332031 62.082031 C 145.96875 62.082031 145.417969 58.5 147.714844 57.898438 C 148.621094 57.652344 149.152344 57.789062 149.902344 58.476562 Z M 149.902344 58.476562 " fill-opacity="1" fill-rule="nonzero"/></g><path fill="#ffffff" d="M 147.183594 59.855469 C 147.183594 61.101562 147.25 61.414062 147.515625 61.414062 C 147.738281 61.414062 147.847656 61.191406 147.847656 60.746094 C 147.847656 60.367188 147.9375 60.078125 148.046875 60.078125 C 148.179688 60.078125 148.445312 60.367188 148.664062 60.746094 C 148.863281 61.101562 149.171875 61.414062 149.328125 61.414062 C 149.550781 61.414062 149.527344 61.257812 149.238281 60.835938 C 148.886719 60.300781 148.886719 60.234375 149.238281 60.035156 C 149.75 59.765625 149.726562 58.8125 149.195312 58.523438 C 148.953125 58.410156 148.398438 58.300781 147.980469 58.300781 L 147.183594 58.300781 Z M 149.0625 59.1875 C 149.0625 59.390625 148.820312 59.542969 148.464844 59.589844 C 147.957031 59.65625 147.847656 59.566406 147.847656 59.1875 C 147.847656 58.8125 147.957031 58.722656 148.464844 58.789062 C 148.820312 58.832031 149.0625 58.988281 149.0625 59.1875 Z M 149.0625 59.1875 " fill-opacity="1" fill-rule="nonzero"/><g fill="#ffffff" fill-opacity="1"><g transform="translate(0.189719, 32.594125)"><g><path d="M 7.5625 -10.390625 C 8.21875 -9.785156 8.546875 -8.988281 8.546875 -8 C 8.546875 -7.019531 8.21875 -6.226562 7.5625 -5.625 C 6.914062 -5.03125 5.957031 -4.734375 4.6875 -4.734375 L 2.375 -4.734375 L 2.375 0 L 1.234375 0 L 1.234375 -11.296875 L 4.6875 -11.296875 C 5.945312 -11.296875 6.90625 -10.992188 7.5625 -10.390625 Z M 2.375 -5.671875 L 4.6875 -5.671875 C 6.488281 -5.671875 7.390625 -6.453125 7.390625 -8.015625 C 7.390625 -9.578125 6.488281 -10.359375 4.6875 -10.359375 L 2.375 -10.359375 Z M 2.375 -5.671875 "/></g></g></g><g fill="#ffffff" fill-opacity="1"><g transform="translate(9.390299, 32.594125)"><g><path d="M 4.984375 -0.75 C 5.910156 -0.75 6.710938 -1.082031 7.390625 -1.75 C 8.066406 -2.414062 8.40625 -3.320312 8.40625 -4.46875 C 8.40625 -5.625 8.082031 -6.53125 7.4375 -7.1875 C 6.789062 -7.851562 6.003906 -8.1875 5.078125 -8.1875 C 4.148438 -8.1875 3.375 -7.859375 2.75 -7.203125 C 2.125 -6.546875 1.8125 -5.632812 1.8125 -4.46875 C 1.8125 -3.300781 2.109375 -2.390625 2.703125 -1.734375 C 3.296875 -1.078125 4.054688 -0.75 4.984375 -0.75 Z M 4.984375 0.15625 C 3.703125 0.15625 2.660156 -0.265625 1.859375 -1.109375 C 1.054688 -1.960938 0.65625 -3.078125 0.65625 -4.453125 C 0.65625 -5.835938 1.078125 -6.957031 1.921875 -7.8125 C 2.773438 -8.675781 3.84375 -9.109375 5.125 -9.109375 C 6.40625 -9.109375 7.46875 -8.675781 8.3125 -7.8125 C 9.164062 -6.957031 9.59375 -5.84375 9.59375 -4.46875 C 9.59375 -3.101562 9.144531 -1.988281 8.25 -1.125 C 7.351562 -0.269531 6.265625 0.15625 4.984375 0.15625 Z M 4.984375 0.15625 "/></g></g></g><g fill="#ffffff" fill-opacity="1"><g transform="translate(19.638632, 32.594125)"><g><path d="M 11.53125 -8.9375 L 12.734375 -8.9375 L 9.890625 0 L 8.734375 0 L 6.5 -7.53125 L 4.28125 0 L 3.109375 0 L 0.234375 -8.9375 L 1.4375 -8.9375 L 3.6875 -1.234375 L 6 -8.9375 L 7.140625 -8.9375 L 9.296875 -1.25 Z M 11.53125 -8.9375 "/></g></g></g><g fill="#ffffff" fill-opacity="1"><g transform="translate(32.60457, 32.594125)"><g><path d="M 4.96875 0.15625 C 3.6875 0.15625 2.644531 -0.265625 1.84375 -1.109375 C 1.050781 -1.960938 0.65625 -3.082031 0.65625 -4.46875 C 0.65625 -5.863281 1.0625 -6.984375 1.875 -7.828125 C 2.6875 -8.679688 3.738281 -9.109375 5.03125 -9.109375 C 6.320312 -9.109375 7.347656 -8.707031 8.109375 -7.90625 C 8.878906 -7.113281 9.265625 -6.125 9.265625 -4.9375 C 9.265625 -4.625 9.242188 -4.332031 9.203125 -4.0625 L 1.828125 -4.0625 C 1.878906 -3.03125 2.191406 -2.21875 2.765625 -1.625 C 3.347656 -1.039062 4.082031 -0.75 4.96875 -0.75 C 5.65625 -0.75 6.238281 -0.90625 6.71875 -1.21875 C 7.207031 -1.539062 7.546875 -1.957031 7.734375 -2.46875 L 8.953125 -2.46875 C 8.660156 -1.707031 8.179688 -1.078125 7.515625 -0.578125 C 6.847656 -0.0859375 6 0.15625 4.96875 0.15625 Z M 8.09375 -4.96875 C 8.09375 -5.945312 7.789062 -6.726562 7.1875 -7.3125 C 6.59375 -7.894531 5.859375 -8.1875 4.984375 -8.1875 C 4.109375 -8.1875 3.378906 -7.898438 2.796875 -7.328125 C 2.210938 -6.753906 1.890625 -5.96875 1.828125 -4.96875 Z M 8.09375 -4.96875 "/></g></g></g><g fill="#ffffff" fill-opacity="1"><g transform="translate(42.509099, 32.594125)"><g><path d="M 2.375 -8.9375 L 2.375 -7.46875 C 2.863281 -8.5625 3.785156 -9.109375 5.140625 -9.109375 L 5.140625 -7.90625 L 4.8125 -7.90625 C 4.03125 -7.90625 3.425781 -7.691406 3 -7.265625 C 2.582031 -6.835938 2.375 -6.109375 2.375 -5.078125 L 2.375 0 L 1.234375 0 L 1.234375 -8.9375 Z M 2.375 -8.9375 "/></g></g></g><g fill="#ffffff" fill-opacity="1"><g transform="translate(48.288113, 32.594125)"><g><path d="M 4.96875 0.15625 C 3.6875 0.15625 2.644531 -0.265625 1.84375 -1.109375 C 1.050781 -1.960938 0.65625 -3.082031 0.65625 -4.46875 C 0.65625 -5.863281 1.0625 -6.984375 1.875 -7.828125 C 2.6875 -8.679688 3.738281 -9.109375 5.03125 -9.109375 C 6.320312 -9.109375 7.347656 -8.707031 8.109375 -7.90625 C 8.878906 -7.113281 9.265625 -6.125 9.265625 -4.9375 C 9.265625 -4.625 9.242188 -4.332031 9.203125 -4.0625 L 1.828125 -4.0625 C 1.878906 -3.03125 2.191406 -2.21875 2.765625 -1.625 C 3.347656 -1.039062 4.082031 -0.75 4.96875 -0.75 C 5.65625 -0.75 6.238281 -0.90625 6.71875 -1.21875 C 7.207031 -1.539062 7.546875 -1.957031 7.734375 -2.46875 L 8.953125 -2.46875 C 8.660156 -1.707031 8.179688 -1.078125 7.515625 -0.578125 C 6.847656 -0.0859375 6 0.15625 4.96875 0.15625 Z M 8.09375 -4.96875 C 8.09375 -5.945312 7.789062 -6.726562 7.1875 -7.3125 C 6.59375 -7.894531 5.859375 -8.1875 4.984375 -8.1875 C 4.109375 -8.1875 3.378906 -7.898438 2.796875 -7.328125 C 2.210938 -6.753906 1.890625 -5.96875 1.828125 -4.96875 Z M 8.09375 -4.96875 "/></g></g></g><g fill="#ffffff" fill-opacity="1"><g transform="translate(58.192642, 32.594125)"><g><path d="M 7.484375 -1.8125 C 8.140625 -2.488281 8.46875 -3.375 8.46875 -4.46875 C 8.46875 -5.5625 8.140625 -6.441406 7.484375 -7.109375 C 6.835938 -7.785156 6.054688 -8.125 5.140625 -8.125 C 4.222656 -8.125 3.441406 -7.800781 2.796875 -7.15625 C 2.148438 -6.507812 1.828125 -5.632812 1.828125 -4.53125 C 1.828125 -3.4375 2.148438 -2.539062 2.796875 -1.84375 C 3.453125 -1.15625 4.234375 -0.8125 5.140625 -0.8125 C 6.054688 -0.8125 6.835938 -1.144531 7.484375 -1.8125 Z M 4.984375 0.15625 C 3.734375 0.15625 2.695312 -0.28125 1.875 -1.15625 C 1.0625 -2.039062 0.65625 -3.164062 0.65625 -4.53125 C 0.65625 -5.90625 1.0625 -7.007812 1.875 -7.84375 C 2.6875 -8.6875 3.722656 -9.109375 4.984375 -9.109375 C 5.785156 -9.109375 6.492188 -8.910156 7.109375 -8.515625 C 7.722656 -8.117188 8.175781 -7.609375 8.46875 -6.984375 L 8.46875 -12.125 L 9.609375 -12.125 L 9.609375 0 L 8.46875 0 L 8.46875 -1.96875 C 8.175781 -1.34375 7.722656 -0.832031 7.109375 -0.4375 C 6.492188 -0.0390625 5.785156 0.15625 4.984375 0.15625 Z M 4.984375 0.15625 "/></g></g></g><g fill="#ffffff" fill-opacity="1"><g transform="translate(69.030334, 32.594125)"><g/></g></g><g fill="#ffffff" fill-opacity="1"><g transform="translate(73.941668, 32.594125)"><g><path d="M 5.6875 -0.8125 C 6.601562 -0.8125 7.382812 -1.15625 8.03125 -1.84375 C 8.675781 -2.539062 9 -3.4375 9 -4.53125 C 9 -5.632812 8.675781 -6.507812 8.03125 -7.15625 C 7.394531 -7.800781 6.613281 -8.125 5.6875 -8.125 C 4.769531 -8.125 3.988281 -7.785156 3.34375 -7.109375 C 2.695312 -6.441406 2.375 -5.5625 2.375 -4.46875 C 2.375 -3.375 2.695312 -2.488281 3.34375 -1.8125 C 3.988281 -1.144531 4.769531 -0.8125 5.6875 -0.8125 Z M 5.859375 -9.109375 C 7.117188 -9.109375 8.15625 -8.6875 8.96875 -7.84375 C 9.78125 -7.007812 10.1875 -5.90625 10.1875 -4.53125 C 10.1875 -3.164062 9.773438 -2.039062 8.953125 -1.15625 C 8.140625 -0.28125 7.109375 0.15625 5.859375 0.15625 C 5.054688 0.15625 4.347656 -0.0390625 3.734375 -0.4375 C 3.117188 -0.832031 2.664062 -1.34375 2.375 -1.96875 L 2.375 0 L 1.234375 0 L 1.234375 -12.125 L 2.375 -12.125 L 2.375 -6.984375 C 2.664062 -7.609375 3.117188 -8.117188 3.734375 -8.515625 C 4.347656 -8.910156 5.054688 -9.109375 5.859375 -9.109375 Z M 5.859375 -9.109375 "/></g></g></g><g fill="#ffffff" fill-opacity="1"><g transform="translate(84.77936, 32.594125)"><g><path d="M 3.78125 -0.125 L 0.234375 -8.9375 L 1.453125 -8.9375 L 4.40625 -1.34375 L 7.359375 -8.9375 L 8.515625 -8.9375 L 3.203125 4.15625 L 2.046875 4.15625 Z M 3.78125 -0.125 "/></g></g></g></svg>