<svg xmlns="http://www.w3.org/2000/svg" xmlns:xlink="http://www.w3.org/1999/xlink" width="500" zoomAndPan="magnify" viewBox="0 0 375 177.000001" height="236" preserveAspectRatio="xMidYMid meet" version="1.0"><defs><clipPath id="id1"><path d="M 1.054688 1 L 373 1 L 373 176 L 1.054688 176 Z M 1.054688 1 " clip-rule="nonzero"/></clipPath></defs><g clip-path="url(#id1)"><path fill="#ffffff" d="M 294.992188 171.175781 L 368.796875 97.480469 C 373.90625 92.382812 373.90625 83.992188 368.796875 78.894531 L 295.160156 5.367188 C 290.050781 0.269531 281.648438 0.269531 276.542969 5.367188 C 271.4375 10.464844 271.4375 18.855469 276.542969 23.953125 L 327.613281 75.113281 L 14.273438 75.113281 C 7.027344 75.113281 1.09375 81.035156 1.09375 88.269531 C 1.09375 95.507812 7.027344 101.429688 14.273438 101.429688 L 327.613281 101.429688 L 276.378906 152.585938 C 273.742188 155.21875 272.589844 158.507812 272.589844 161.964844 C 272.589844 165.417969 273.90625 168.707031 276.378906 171.339844 C 281.484375 176.273438 289.886719 176.273438 294.992188 171.175781 Z M 294.992188 171.175781 " fill-opacity="1" fill-rule="nonzero"/></g></svg>