<svg xmlns="http://www.w3.org/2000/svg" xmlns:xlink="http://www.w3.org/1999/xlink" width="1556" zoomAndPan="magnify" viewBox="0 0 1167 228.749995" height="305" preserveAspectRatio="xMidYMid meet" version="1.0"><defs><g/><clipPath id="id1"><path d="M 0.640625 32 L 133.246094 32 L 133.246094 180 L 0.640625 180 Z M 0.640625 32 " clip-rule="nonzero"/></clipPath></defs><g clip-path="url(#id1)"><path fill="#ffffff" d="M 0.726562 161.820312 L 0.726562 50.367188 C 0.726562 49.980469 0.742188 49.589844 0.765625 49.203125 C 0.792969 48.8125 0.832031 48.425781 0.882812 48.039062 C 0.933594 47.652344 0.996094 47.269531 1.070312 46.886719 C 1.148438 46.503906 1.238281 46.125 1.335938 45.75 C 1.4375 45.375 1.550781 45 1.675781 44.632812 C 1.800781 44.261719 1.941406 43.898438 2.089844 43.539062 C 2.238281 43.179688 2.398438 42.824219 2.570312 42.476562 C 2.742188 42.125 2.925781 41.78125 3.121094 41.445312 C 3.316406 41.109375 3.523438 40.777344 3.738281 40.453125 C 3.957031 40.128906 4.183594 39.8125 4.421875 39.503906 C 4.660156 39.195312 4.90625 38.894531 5.164062 38.601562 C 5.421875 38.308594 5.6875 38.023438 5.960938 37.75 C 6.238281 37.472656 6.523438 37.207031 6.816406 36.949219 C 7.109375 36.691406 7.410156 36.445312 7.71875 36.207031 C 8.027344 35.972656 8.34375 35.746094 8.667969 35.527344 C 8.992188 35.3125 9.324219 35.105469 9.664062 34.910156 C 10 34.714844 10.34375 34.53125 10.695312 34.359375 C 11.042969 34.1875 11.398438 34.027344 11.757812 33.878906 C 12.121094 33.726562 12.484375 33.589844 12.851562 33.464844 C 13.222656 33.339844 13.597656 33.226562 13.972656 33.125 C 14.347656 33.023438 14.730469 32.9375 15.113281 32.859375 C 15.492188 32.785156 15.878906 32.71875 16.265625 32.667969 C 16.652344 32.617188 17.039062 32.578125 17.429688 32.554688 C 17.816406 32.527344 18.207031 32.515625 18.597656 32.515625 C 18.988281 32.515625 19.378906 32.527344 19.765625 32.550781 C 20.15625 32.578125 20.542969 32.617188 20.929688 32.664062 C 21.316406 32.714844 21.703125 32.78125 22.085938 32.855469 C 22.46875 32.929688 22.847656 33.019531 23.222656 33.121094 C 23.601562 33.21875 23.972656 33.332031 24.34375 33.457031 C 24.714844 33.582031 25.078125 33.71875 25.4375 33.867188 C 25.800781 34.015625 26.15625 34.175781 26.503906 34.347656 C 26.855469 34.519531 27.199219 34.703125 27.535156 34.898438 L 124.21875 90.585938 C 124.558594 90.78125 124.890625 90.988281 125.214844 91.203125 C 125.539062 91.421875 125.855469 91.648438 126.164062 91.882812 C 126.472656 92.121094 126.777344 92.367188 127.070312 92.625 C 127.363281 92.882812 127.648438 93.148438 127.921875 93.425781 C 128.199219 93.703125 128.464844 93.984375 128.722656 94.277344 C 128.980469 94.570312 129.226562 94.875 129.464844 95.183594 C 129.703125 95.492188 129.929688 95.808594 130.148438 96.132812 C 130.363281 96.457031 130.570312 96.789062 130.765625 97.125 C 130.960938 97.464844 131.144531 97.808594 131.316406 98.15625 C 131.488281 98.507812 131.648438 98.859375 131.796875 99.222656 C 131.949219 99.582031 132.085938 99.945312 132.210938 100.316406 C 132.335938 100.683594 132.449219 101.058594 132.550781 101.433594 C 132.652344 101.808594 132.738281 102.191406 132.816406 102.570312 C 132.890625 102.953125 132.957031 103.339844 133.007812 103.726562 C 133.058594 104.113281 133.097656 104.5 133.121094 104.886719 C 133.148438 105.277344 133.160156 105.667969 133.160156 106.054688 C 133.160156 106.445312 133.148438 106.835938 133.121094 107.222656 C 133.097656 107.613281 133.058594 108 133.007812 108.386719 C 132.957031 108.773438 132.890625 109.160156 132.816406 109.539062 C 132.738281 109.921875 132.652344 110.300781 132.550781 110.679688 C 132.449219 111.054688 132.335938 111.429688 132.210938 111.796875 C 132.085938 112.167969 131.949219 112.53125 131.796875 112.890625 C 131.648438 113.25 131.488281 113.605469 131.316406 113.957031 C 131.144531 114.304688 130.960938 114.648438 130.765625 114.988281 C 130.570312 115.324219 130.363281 115.65625 130.148438 115.980469 C 129.929688 116.304688 129.703125 116.621094 129.464844 116.929688 C 129.226562 117.238281 128.980469 117.539062 128.722656 117.832031 C 128.464844 118.125 128.199219 118.410156 127.921875 118.6875 C 127.648438 118.960938 127.363281 119.230469 127.070312 119.488281 C 126.777344 119.742188 126.472656 119.992188 126.164062 120.226562 C 125.855469 120.464844 125.539062 120.691406 125.214844 120.910156 C 124.890625 121.125 124.558594 121.332031 124.21875 121.527344 L 28.917969 176.425781 C 27.421875 177.511719 25.789062 178.335938 24.027344 178.894531 C 22.261719 179.453125 20.457031 179.71875 18.605469 179.695312 C 18.023438 179.695312 17.445312 179.664062 16.867188 179.609375 C 16.289062 179.554688 15.714844 179.46875 15.144531 179.355469 C 14.578125 179.246094 14.015625 179.105469 13.457031 178.9375 C 12.902344 178.769531 12.355469 178.578125 11.820312 178.359375 C 11.28125 178.136719 10.757812 177.890625 10.242188 177.621094 C 9.730469 177.347656 9.230469 177.054688 8.746094 176.734375 C 8.261719 176.414062 7.796875 176.070312 7.34375 175.707031 C 6.894531 175.339844 6.460938 174.953125 6.050781 174.546875 C 5.636719 174.140625 5.246094 173.714844 4.871094 173.269531 C 4.5 172.820312 4.152344 172.359375 3.828125 171.878906 C 3.5 171.402344 3.199219 170.90625 2.921875 170.398438 C 2.640625 169.886719 2.390625 169.367188 2.164062 168.832031 C 1.9375 168.300781 1.734375 167.757812 1.5625 167.203125 C 1.386719 166.652344 1.238281 166.089844 1.121094 165.523438 C 1 164.957031 0.910156 164.382812 0.847656 163.808594 C 0.78125 163.230469 0.746094 162.65625 0.742188 162.074219 Z M 0.726562 161.820312 " fill-opacity="1" fill-rule="nonzero"/></g><g fill="#ffffff" fill-opacity="1"><g transform="translate(424.388477, 168.749914)"><g><path d="M 59.609375 -125.453125 C 72.773438 -125.453125 84.3125 -122.8125 94.21875 -117.53125 C 104.125 -112.257812 111.742188 -104.875 117.078125 -95.375 C 122.421875 -85.882812 125.09375 -75.03125 125.09375 -62.8125 C 125.09375 -50.71875 122.394531 -39.921875 117 -30.421875 C 111.601562 -20.929688 103.953125 -13.488281 94.046875 -8.09375 C 84.140625 -2.695312 72.660156 0 59.609375 0 L 9.96875 0 L 9.96875 -125.453125 Z M 56.9375 -30.78125 C 67.144531 -30.78125 75.15625 -33.566406 80.96875 -39.140625 C 86.78125 -44.722656 89.6875 -52.613281 89.6875 -62.8125 C 89.6875 -73.132812 86.78125 -81.113281 80.96875 -86.75 C 75.15625 -92.382812 67.144531 -95.203125 56.9375 -95.203125 L 44.84375 -95.203125 L 44.84375 -30.78125 Z M 56.9375 -30.78125 "/></g></g></g><g fill="#ffffff" fill-opacity="1"><g transform="translate(555.184587, 168.749914)"><g><path d="M 90.046875 -64.421875 C 97.398438 -62.753906 103.238281 -59.101562 107.5625 -53.46875 C 111.894531 -47.832031 114.0625 -41.398438 114.0625 -34.171875 C 114.0625 -23.492188 110.382812 -15.128906 103.03125 -9.078125 C 95.675781 -3.023438 85.359375 0 72.078125 0 L 9.96875 0 L 9.96875 -125.453125 L 70.109375 -125.453125 C 82.921875 -125.453125 92.972656 -122.601562 100.265625 -116.90625 C 107.566406 -111.21875 111.21875 -103.210938 111.21875 -92.890625 C 111.21875 -85.535156 109.289062 -79.394531 105.4375 -74.46875 C 101.582031 -69.550781 96.453125 -66.203125 90.046875 -64.421875 Z M 44.84375 -75.625 L 62.46875 -75.625 C 71.238281 -75.625 75.625 -79.242188 75.625 -86.484375 C 75.625 -93.960938 71.238281 -97.703125 62.46875 -97.703125 L 44.84375 -97.703125 Z M 65.125 -28.109375 C 73.90625 -28.109375 78.296875 -31.789062 78.296875 -39.15625 C 78.296875 -42.945312 77.140625 -45.847656 74.828125 -47.859375 C 72.515625 -49.878906 69.222656 -50.890625 64.953125 -50.890625 L 44.84375 -50.890625 L 44.84375 -28.109375 Z M 65.125 -28.109375 "/></g></g></g><g fill="#ffffff" fill-opacity="1"><g transform="translate(169.005599, 151.145612)"><g><path d="M 60.59375 -46.46875 C 60.59375 -42.25 59.617188 -38.40625 57.671875 -34.9375 C 55.734375 -31.476562 52.800781 -28.710938 48.875 -26.640625 C 44.957031 -24.566406 40.164062 -23.53125 34.5 -23.53125 L 24.90625 -23.53125 L 24.90625 0 L 5.53125 0 L 5.53125 -69.703125 L 34.5 -69.703125 C 40.101562 -69.703125 44.863281 -68.710938 48.78125 -66.734375 C 52.707031 -64.753906 55.65625 -62.015625 57.625 -58.515625 C 59.601562 -55.023438 60.59375 -51.007812 60.59375 -46.46875 Z M 32.625 -38.953125 C 38.09375 -38.953125 40.828125 -41.457031 40.828125 -46.46875 C 40.828125 -51.539062 38.09375 -54.078125 32.625 -54.078125 L 24.90625 -54.078125 L 24.90625 -38.953125 Z M 32.625 -38.953125 "/></g></g></g><g fill="#ffffff" fill-opacity="1"><g transform="translate(231.878573, 151.145612)"><g><path d="M 24.90625 -14.828125 L 46.5625 -14.828125 L 46.5625 0 L 5.53125 0 L 5.53125 -69.703125 L 24.90625 -69.703125 Z M 24.90625 -14.828125 "/></g></g></g><g fill="#ffffff" fill-opacity="1"><g transform="translate(280.417307, 151.145612)"><g><path d="M 49.625 -11.375 L 24.90625 -11.375 L 21.15625 0 L 0.796875 0 L 26.203125 -69.703125 L 48.546875 -69.703125 L 73.84375 0 L 53.390625 0 Z M 44.78125 -26.203125 L 37.265625 -48.734375 L 29.859375 -26.203125 Z M 44.78125 -26.203125 "/></g></g></g><g fill="#ffffff" fill-opacity="1"><g transform="translate(355.054253, 151.145612)"><g><path d="M 68.90625 -69.703125 L 44.390625 -22.140625 L 44.390625 0 L 24.90625 0 L 24.90625 -22.140625 L 0.390625 -69.703125 L 22.546875 -69.703125 L 34.796875 -42.8125 L 47.0625 -69.703125 Z M 68.90625 -69.703125 "/></g></g></g><path stroke-linecap="butt" transform="matrix(0.000000000000000229, -3.7373, 3.757649, 0.00000000000000023, 722.033236, 172.791117)" fill="none" stroke-linejoin="miter" d="M -0.000495355 0.000510909 L 38.087868 0.000510909 " stroke="#ffffff" stroke-width="1" stroke-opacity="1" stroke-miterlimit="4"/><g fill="#ffffff" fill-opacity="1"><g transform="translate(168.993893, 218.57927)"><g><path d="M 4.515625 -2.96875 C 2.359375 -5.082031 1.28125 -7.765625 1.28125 -11.015625 C 1.28125 -14.273438 2.359375 -16.960938 4.515625 -19.078125 C 6.679688 -21.203125 9.34375 -22.265625 12.5 -22.265625 C 14.75 -22.265625 16.753906 -21.753906 18.515625 -20.734375 C 20.273438 -19.710938 21.601562 -18.222656 22.5 -16.265625 L 19.78125 -16.265625 C 19.09375 -17.566406 18.109375 -18.566406 16.828125 -19.265625 C 15.554688 -19.972656 14.113281 -20.328125 12.5 -20.328125 C 9.914062 -20.328125 7.78125 -19.472656 6.09375 -17.765625 C 4.414062 -16.054688 3.578125 -13.804688 3.578125 -11.015625 C 3.578125 -8.234375 4.414062 -5.988281 6.09375 -4.28125 C 7.78125 -2.570312 9.894531 -1.71875 12.4375 -1.71875 C 14.988281 -1.71875 17.050781 -2.460938 18.625 -3.953125 C 20.207031 -5.453125 21.113281 -7.488281 21.34375 -10.0625 L 11.4375 -10.0625 L 11.4375 -11.859375 L 23.671875 -11.859375 L 23.671875 -10.0625 C 23.378906 -7 22.1875 -4.523438 20.09375 -2.640625 C 18.007812 -0.753906 15.429688 0.1875 12.359375 0.1875 C 9.296875 0.1875 6.679688 -0.863281 4.515625 -2.96875 Z M 4.515625 -2.96875 "/></g></g></g><g fill="#ffffff" fill-opacity="1"><g transform="translate(201.453842, 218.57927)"><g><path d="M 17.953125 0 L 16.109375 -5.140625 L 5.8125 -5.140625 L 3.9375 0 L 1.6875 0 L 9.8125 -22.046875 L 12.109375 -22.046875 L 20.1875 0 Z M 6.453125 -6.9375 L 15.4375 -6.9375 L 10.953125 -19.265625 Z M 6.453125 -6.9375 "/></g></g></g><g fill="#ffffff" fill-opacity="1"><g transform="translate(230.878966, 218.57927)"><g><path d="M 24.21875 -22.046875 L 24.21875 0 L 21.984375 0 L 21.984375 -16.96875 L 13.96875 0 L 12.65625 0 L 4.640625 -16.90625 L 4.640625 0 L 2.390625 0 L 2.390625 -22.046875 L 4.46875 -22.046875 L 13.328125 -3.234375 L 22.140625 -22.046875 Z M 24.21875 -22.046875 "/></g></g></g><g fill="#ffffff" fill-opacity="1"><g transform="translate(265.032035, 218.57927)"><g><path d="M 13.609375 -22.046875 L 13.609375 -20.21875 L 4.640625 -20.21875 L 4.640625 -11.984375 L 12.65625 -11.984375 L 12.65625 -10.1875 L 4.640625 -10.1875 L 4.640625 -1.796875 L 13.609375 -1.796875 L 13.609375 0 L 2.390625 0 L 2.390625 -22.046875 Z M 13.609375 -22.046875 "/></g></g></g><g fill="#ffffff" fill-opacity="1"><g transform="translate(288.131933, 218.57927)"><g/></g></g><g fill="#ffffff" fill-opacity="1"><g transform="translate(305.257998, 218.57927)"><g><path d="M 4 -16.234375 C 4 -15.359375 4.226562 -14.644531 4.6875 -14.09375 C 5.144531 -13.539062 5.734375 -13.128906 6.453125 -12.859375 C 7.179688 -12.597656 7.976562 -12.367188 8.84375 -12.171875 C 9.71875 -11.984375 10.59375 -11.769531 11.46875 -11.53125 C 12.34375 -11.300781 13.140625 -11 13.859375 -10.625 C 14.585938 -10.25 15.179688 -9.675781 15.640625 -8.90625 C 16.097656 -8.144531 16.328125 -7.203125 16.328125 -6.078125 C 16.328125 -4.390625 15.695312 -2.914062 14.4375 -1.65625 C 13.1875 -0.40625 11.46875 0.21875 9.28125 0.21875 C 7.09375 0.21875 5.316406 -0.269531 3.953125 -1.25 C 2.597656 -2.226562 1.921875 -3.546875 1.921875 -5.203125 L 4.28125 -5.203125 C 4.363281 -4.179688 4.800781 -3.332031 5.59375 -2.65625 C 6.382812 -1.988281 7.5625 -1.65625 9.125 -1.65625 C 10.6875 -1.65625 11.929688 -2.0625 12.859375 -2.875 C 13.785156 -3.6875 14.25 -4.691406 14.25 -5.890625 C 14.25 -7.097656 13.820312 -8.003906 12.96875 -8.609375 C 12.113281 -9.210938 11.082031 -9.628906 9.875 -9.859375 C 8.675781 -10.097656 7.472656 -10.375 6.265625 -10.6875 C 5.066406 -11 4.039062 -11.597656 3.1875 -12.484375 C 2.34375 -13.378906 1.921875 -14.679688 1.921875 -16.390625 C 1.921875 -18.097656 2.550781 -19.503906 3.8125 -20.609375 C 5.082031 -21.710938 6.753906 -22.265625 8.828125 -22.265625 C 10.910156 -22.265625 12.546875 -21.785156 13.734375 -20.828125 C 14.929688 -19.867188 15.65625 -18.59375 15.90625 -17 L 13.390625 -17 C 13.304688 -17.894531 12.859375 -18.675781 12.046875 -19.34375 C 11.234375 -20.019531 10.125 -20.359375 8.71875 -20.359375 C 7.3125 -20.359375 6.171875 -20.003906 5.296875 -19.296875 C 4.429688 -18.597656 4 -17.578125 4 -16.234375 Z M 4 -16.234375 "/></g></g></g><g fill="#ffffff" fill-opacity="1"><g transform="translate(331.041326, 218.57927)"><g><path d="M 1.5625 -20.21875 L 1.5625 -22.046875 L 15.34375 -22.046875 L 15.34375 -20.21875 L 9.546875 -20.21875 L 9.546875 0 L 7.34375 0 L 7.34375 -20.21875 Z M 1.5625 -20.21875 "/></g></g></g><g fill="#ffffff" fill-opacity="1"><g transform="translate(355.482939, 218.57927)"><g><path d="M 18.859375 -4.265625 C 20.554688 -5.984375 21.40625 -8.234375 21.40625 -11.015625 C 21.40625 -13.804688 20.5625 -16.054688 18.875 -17.765625 C 17.195312 -19.472656 15.066406 -20.328125 12.484375 -20.328125 C 9.910156 -20.328125 7.773438 -19.472656 6.078125 -17.765625 C 4.390625 -16.054688 3.546875 -13.804688 3.546875 -11.015625 C 3.546875 -8.234375 4.390625 -5.984375 6.078125 -4.265625 C 7.773438 -2.546875 9.90625 -1.6875 12.46875 -1.6875 C 15.039062 -1.6875 17.171875 -2.546875 18.859375 -4.265625 Z M 4.515625 -2.953125 C 2.359375 -5.078125 1.28125 -7.765625 1.28125 -11.015625 C 1.28125 -14.273438 2.359375 -16.960938 4.515625 -19.078125 C 6.679688 -21.203125 9.34375 -22.265625 12.5 -22.265625 C 15.664062 -22.265625 18.320312 -21.203125 20.46875 -19.078125 C 22.625 -16.960938 23.703125 -14.273438 23.703125 -11.015625 C 23.703125 -7.765625 22.625 -5.078125 20.46875 -2.953125 C 18.320312 -0.835938 15.664062 0.21875 12.5 0.21875 C 9.34375 0.21875 6.679688 -0.835938 4.515625 -2.953125 Z M 4.515625 -2.953125 "/></g></g></g><g fill="#ffffff" fill-opacity="1"><g transform="translate(387.974831, 218.57927)"><g><path d="M 4.640625 -9.234375 L 4.640625 0 L 2.390625 0 L 2.390625 -22.046875 L 9.140625 -22.046875 C 11.609375 -22.046875 13.476562 -21.453125 14.75 -20.265625 C 16.03125 -19.085938 16.671875 -17.59375 16.671875 -15.78125 C 16.671875 -13.96875 16.171875 -12.503906 15.171875 -11.390625 C 14.171875 -10.273438 12.679688 -9.585938 10.703125 -9.328125 L 16.96875 0 L 14.0625 0 L 8.078125 -9.234375 Z M 4.640625 -20.21875 L 4.640625 -11.0625 L 9.140625 -11.0625 C 12.648438 -11.0625 14.40625 -12.585938 14.40625 -15.640625 C 14.40625 -18.691406 12.648438 -20.21875 9.140625 -20.21875 Z M 4.640625 -20.21875 "/></g></g></g><g fill="#ffffff" fill-opacity="1"><g transform="translate(414.780418, 218.57927)"><g><path d="M 13.609375 -22.046875 L 13.609375 -20.21875 L 4.640625 -20.21875 L 4.640625 -11.984375 L 12.65625 -11.984375 L 12.65625 -10.1875 L 4.640625 -10.1875 L 4.640625 -1.796875 L 13.609375 -1.796875 L 13.609375 0 L 2.390625 0 L 2.390625 -22.046875 Z M 13.609375 -22.046875 "/></g></g></g><g fill="#ffffff" fill-opacity="1"><g transform="translate(437.880316, 218.57927)"><g/></g></g><g fill="#ffffff" fill-opacity="1"><g transform="translate(455.006381, 218.57927)"><g><path d="M 4.640625 -1.71875 L 9.171875 -1.71875 C 12.128906 -1.71875 14.378906 -2.519531 15.921875 -4.125 C 17.472656 -5.738281 18.25 -7.992188 18.25 -10.890625 C 18.25 -13.785156 17.472656 -16.035156 15.921875 -17.640625 C 14.378906 -19.253906 12.128906 -20.0625 9.171875 -20.0625 L 4.640625 -20.0625 Z M 9.171875 -22.046875 C 12.722656 -22.046875 15.503906 -21.0625 17.515625 -19.09375 C 19.535156 -17.125 20.546875 -14.390625 20.546875 -10.890625 C 20.546875 -7.398438 19.539062 -4.710938 17.53125 -2.828125 C 15.53125 -0.941406 12.742188 0 9.171875 0 L 2.390625 0 L 2.390625 -22.046875 Z M 9.171875 -22.046875 "/></g></g></g><g fill="#ffffff" fill-opacity="1"><g transform="translate(484.431496, 218.57927)"><g><path d="M 17.953125 0 L 16.109375 -5.140625 L 5.8125 -5.140625 L 3.9375 0 L 1.6875 0 L 9.8125 -22.046875 L 12.109375 -22.046875 L 20.1875 0 Z M 6.453125 -6.9375 L 15.4375 -6.9375 L 10.953125 -19.265625 Z M 6.453125 -6.9375 "/></g></g></g><g fill="#ffffff" fill-opacity="1"><g transform="translate(513.856611, 218.57927)"><g><path d="M 1.5625 -20.21875 L 1.5625 -22.046875 L 15.34375 -22.046875 L 15.34375 -20.21875 L 9.546875 -20.21875 L 9.546875 0 L 7.34375 0 L 7.34375 -20.21875 Z M 1.5625 -20.21875 "/></g></g></g><g fill="#ffffff" fill-opacity="1"><g transform="translate(538.298212, 218.57927)"><g><path d="M 17.953125 0 L 16.109375 -5.140625 L 5.8125 -5.140625 L 3.9375 0 L 1.6875 0 L 9.8125 -22.046875 L 12.109375 -22.046875 L 20.1875 0 Z M 6.453125 -6.9375 L 15.4375 -6.9375 L 10.953125 -19.265625 Z M 6.453125 -6.9375 "/></g></g></g><g fill="#ffffff" fill-opacity="1"><g transform="translate(567.72335, 218.57927)"><g><path d="M 2.390625 -22.046875 L 9.84375 -22.046875 C 12.101562 -22.046875 13.832031 -21.492188 15.03125 -20.390625 C 16.238281 -19.296875 16.84375 -17.890625 16.84375 -16.171875 C 16.84375 -13.722656 15.4375 -12.125 12.625 -11.375 C 14.03125 -11.144531 15.164062 -10.5 16.03125 -9.4375 C 16.90625 -8.382812 17.34375 -7.113281 17.34375 -5.625 C 17.34375 -4.132812 16.679688 -2.820312 15.359375 -1.6875 C 14.046875 -0.5625 12.320312 0 10.1875 0 L 2.390625 0 Z M 4.640625 -20.21875 L 4.640625 -12.265625 L 9.84375 -12.265625 C 11.332031 -12.265625 12.492188 -12.617188 13.328125 -13.328125 C 14.160156 -14.046875 14.578125 -15.007812 14.578125 -16.21875 C 14.578125 -17.4375 14.160156 -18.40625 13.328125 -19.125 C 12.492188 -19.851562 11.332031 -20.21875 9.84375 -20.21875 Z M 4.640625 -1.796875 L 10.15625 -1.796875 C 11.757812 -1.796875 12.992188 -2.175781 13.859375 -2.9375 C 14.734375 -3.707031 15.171875 -4.757812 15.171875 -6.09375 C 15.171875 -7.4375 14.6875 -8.5 13.71875 -9.28125 C 12.75 -10.0625 11.46875 -10.453125 9.875 -10.453125 L 4.640625 -10.453125 Z M 4.640625 -1.796875 "/></g></g></g><g fill="#ffffff" fill-opacity="1"><g transform="translate(594.273373, 218.57927)"><g><path d="M 17.953125 0 L 16.109375 -5.140625 L 5.8125 -5.140625 L 3.9375 0 L 1.6875 0 L 9.8125 -22.046875 L 12.109375 -22.046875 L 20.1875 0 Z M 6.453125 -6.9375 L 15.4375 -6.9375 L 10.953125 -19.265625 Z M 6.453125 -6.9375 "/></g></g></g><g fill="#ffffff" fill-opacity="1"><g transform="translate(623.698488, 218.57927)"><g><path d="M 4 -16.234375 C 4 -15.359375 4.226562 -14.644531 4.6875 -14.09375 C 5.144531 -13.539062 5.734375 -13.128906 6.453125 -12.859375 C 7.179688 -12.597656 7.976562 -12.367188 8.84375 -12.171875 C 9.71875 -11.984375 10.59375 -11.769531 11.46875 -11.53125 C 12.34375 -11.300781 13.140625 -11 13.859375 -10.625 C 14.585938 -10.25 15.179688 -9.675781 15.640625 -8.90625 C 16.097656 -8.144531 16.328125 -7.203125 16.328125 -6.078125 C 16.328125 -4.390625 15.695312 -2.914062 14.4375 -1.65625 C 13.1875 -0.40625 11.46875 0.21875 9.28125 0.21875 C 7.09375 0.21875 5.316406 -0.269531 3.953125 -1.25 C 2.597656 -2.226562 1.921875 -3.546875 1.921875 -5.203125 L 4.28125 -5.203125 C 4.363281 -4.179688 4.800781 -3.332031 5.59375 -2.65625 C 6.382812 -1.988281 7.5625 -1.65625 9.125 -1.65625 C 10.6875 -1.65625 11.929688 -2.0625 12.859375 -2.875 C 13.785156 -3.6875 14.25 -4.691406 14.25 -5.890625 C 14.25 -7.097656 13.820312 -8.003906 12.96875 -8.609375 C 12.113281 -9.210938 11.082031 -9.628906 9.875 -9.859375 C 8.675781 -10.097656 7.472656 -10.375 6.265625 -10.6875 C 5.066406 -11 4.039062 -11.597656 3.1875 -12.484375 C 2.34375 -13.378906 1.921875 -14.679688 1.921875 -16.390625 C 1.921875 -18.097656 2.550781 -19.503906 3.8125 -20.609375 C 5.082031 -21.710938 6.753906 -22.265625 8.828125 -22.265625 C 10.910156 -22.265625 12.546875 -21.785156 13.734375 -20.828125 C 14.929688 -19.867188 15.65625 -18.59375 15.90625 -17 L 13.390625 -17 C 13.304688 -17.894531 12.859375 -18.675781 12.046875 -19.34375 C 11.234375 -20.019531 10.125 -20.359375 8.71875 -20.359375 C 7.3125 -20.359375 6.171875 -20.003906 5.296875 -19.296875 C 4.429688 -18.597656 4 -17.578125 4 -16.234375 Z M 4 -16.234375 "/></g></g></g><g fill="#ffffff" fill-opacity="1"><g transform="translate(649.481815, 218.57927)"><g><path d="M 13.609375 -22.046875 L 13.609375 -20.21875 L 4.640625 -20.21875 L 4.640625 -11.984375 L 12.65625 -11.984375 L 12.65625 -10.1875 L 4.640625 -10.1875 L 4.640625 -1.796875 L 13.609375 -1.796875 L 13.609375 0 L 2.390625 0 L 2.390625 -22.046875 Z M 13.609375 -22.046875 "/></g></g></g><g fill="#ffffff" fill-opacity="1"><g transform="translate(769.586463, 116.024262)"><g><path d="M 2.6875 -24.78125 L 5.203125 -24.78125 L 5.203125 -1.9375 L 14.21875 -1.9375 L 14.21875 0 L 2.6875 0 Z M 2.6875 -24.78125 "/></g></g></g><g fill="#ffffff" fill-opacity="1"><g transform="translate(784.526601, 116.024262)"><g><path d="M 10.890625 0.359375 C 8.085938 0.359375 5.8125 -0.570312 4.0625 -2.4375 C 2.3125 -4.3125 1.4375 -6.773438 1.4375 -9.828125 C 1.4375 -12.878906 2.328125 -15.332031 4.109375 -17.1875 C 5.898438 -19.039062 8.210938 -19.96875 11.046875 -19.96875 C 13.878906 -19.96875 16.132812 -19.09375 17.8125 -17.34375 C 19.488281 -15.601562 20.328125 -13.4375 20.328125 -10.84375 C 20.328125 -10.15625 20.28125 -9.507812 20.1875 -8.90625 L 4.015625 -8.90625 C 4.117188 -6.65625 4.800781 -4.882812 6.0625 -3.59375 C 7.332031 -2.300781 8.941406 -1.65625 10.890625 -1.65625 C 12.390625 -1.65625 13.671875 -2 14.734375 -2.6875 C 15.804688 -3.382812 16.546875 -4.296875 16.953125 -5.421875 L 19.65625 -5.421875 C 19 -3.742188 17.941406 -2.359375 16.484375 -1.265625 C 15.023438 -0.179688 13.160156 0.359375 10.890625 0.359375 Z M 17.75 -10.890625 C 17.75 -13.046875 17.09375 -14.757812 15.78125 -16.03125 C 14.476562 -17.3125 12.863281 -17.953125 10.9375 -17.953125 C 9.007812 -17.953125 7.40625 -17.320312 6.125 -16.0625 C 4.84375 -14.8125 4.140625 -13.085938 4.015625 -10.890625 Z M 17.75 -10.890625 "/></g></g></g><g fill="#ffffff" fill-opacity="1"><g transform="translate(806.254444, 116.024262)"><g><path d="M 0.5 -19.609375 L 3.203125 -19.609375 L 9.625 -2.484375 L 16.09375 -19.609375 L 18.78125 -19.609375 L 10.921875 0 L 8.375 0 Z M 0.5 -19.609375 "/></g></g></g><g fill="#ffffff" fill-opacity="1"><g transform="translate(825.540155, 116.024262)"><g><path d="M 10.890625 0.359375 C 8.085938 0.359375 5.8125 -0.570312 4.0625 -2.4375 C 2.3125 -4.3125 1.4375 -6.773438 1.4375 -9.828125 C 1.4375 -12.878906 2.328125 -15.332031 4.109375 -17.1875 C 5.898438 -19.039062 8.210938 -19.96875 11.046875 -19.96875 C 13.878906 -19.96875 16.132812 -19.09375 17.8125 -17.34375 C 19.488281 -15.601562 20.328125 -13.4375 20.328125 -10.84375 C 20.328125 -10.15625 20.28125 -9.507812 20.1875 -8.90625 L 4.015625 -8.90625 C 4.117188 -6.65625 4.800781 -4.882812 6.0625 -3.59375 C 7.332031 -2.300781 8.941406 -1.65625 10.890625 -1.65625 C 12.390625 -1.65625 13.671875 -2 14.734375 -2.6875 C 15.804688 -3.382812 16.546875 -4.296875 16.953125 -5.421875 L 19.65625 -5.421875 C 19 -3.742188 17.941406 -2.359375 16.484375 -1.265625 C 15.023438 -0.179688 13.160156 0.359375 10.890625 0.359375 Z M 17.75 -10.890625 C 17.75 -13.046875 17.09375 -14.757812 15.78125 -16.03125 C 14.476562 -17.3125 12.863281 -17.953125 10.9375 -17.953125 C 9.007812 -17.953125 7.40625 -17.320312 6.125 -16.0625 C 4.84375 -14.8125 4.140625 -13.085938 4.015625 -10.890625 Z M 17.75 -10.890625 "/></g></g></g><g fill="#ffffff" fill-opacity="1"><g transform="translate(847.267998, 116.024262)"><g><path d="M 2.6875 0 L 2.6875 -26.578125 L 5.203125 -26.578125 L 5.203125 0 Z M 2.6875 0 "/></g></g></g><g fill="#ffffff" fill-opacity="1"><g transform="translate(855.169038, 116.024262)"><g/></g></g><g fill="#ffffff" fill-opacity="1"><g transform="translate(865.943181, 116.024262)"><g><path d="M 16.671875 -19.609375 L 19.1875 -19.609375 L 19.1875 0 L 16.671875 0 L 16.671875 -3.203125 C 15.347656 -0.828125 13.179688 0.359375 10.171875 0.359375 C 7.984375 0.359375 6.160156 -0.351562 4.703125 -1.78125 C 3.242188 -3.207031 2.515625 -5.257812 2.515625 -7.9375 L 2.515625 -19.609375 L 5 -19.609375 L 5 -8.40625 C 5 -6.25 5.519531 -4.609375 6.5625 -3.484375 C 7.601562 -2.359375 9.023438 -1.796875 10.828125 -1.796875 C 12.640625 -1.796875 14.066406 -2.359375 15.109375 -3.484375 C 16.148438 -4.609375 16.671875 -6.25 16.671875 -8.40625 Z M 16.671875 -19.609375 "/></g></g></g><g fill="#ffffff" fill-opacity="1"><g transform="translate(887.814685, 116.024262)"><g><path d="M 12.46875 -1.796875 C 14.476562 -1.796875 16.191406 -2.554688 17.609375 -4.078125 C 19.035156 -5.597656 19.75 -7.5625 19.75 -9.96875 C 19.75 -12.375 19.039062 -14.28125 17.625 -15.6875 C 16.21875 -17.101562 14.503906 -17.8125 12.484375 -17.8125 C 10.460938 -17.8125 8.742188 -17.078125 7.328125 -15.609375 C 5.910156 -14.140625 5.203125 -12.207031 5.203125 -9.8125 C 5.203125 -7.414062 5.910156 -5.476562 7.328125 -4 C 8.742188 -2.53125 10.457031 -1.796875 12.46875 -1.796875 Z M 12.859375 -19.96875 C 15.609375 -19.96875 17.875 -19.050781 19.65625 -17.21875 C 21.445312 -15.382812 22.34375 -12.960938 22.34375 -9.953125 C 22.34375 -6.953125 21.441406 -4.484375 19.640625 -2.546875 C 17.847656 -0.609375 15.585938 0.359375 12.859375 0.359375 C 11.085938 0.359375 9.53125 -0.078125 8.1875 -0.953125 C 6.84375 -1.828125 5.847656 -2.945312 5.203125 -4.3125 L 5.203125 9.265625 L 2.6875 9.265625 L 2.6875 -19.609375 L 5.203125 -19.609375 L 5.203125 -15.34375 C 5.847656 -16.707031 6.84375 -17.816406 8.1875 -18.671875 C 9.53125 -19.535156 11.085938 -19.96875 12.859375 -19.96875 Z M 12.859375 -19.96875 "/></g></g></g><g fill="#ffffff" fill-opacity="1"><g transform="translate(911.589619, 116.024262)"><g/></g></g><g fill="#ffffff" fill-opacity="1"><g transform="translate(922.363762, 116.024262)"><g><path d="M 8.296875 -0.28125 L 0.5 -19.609375 L 3.203125 -19.609375 L 9.65625 -2.953125 L 16.125 -19.609375 L 18.671875 -19.609375 L 7.046875 9.125 L 4.484375 9.125 Z M 8.296875 -0.28125 "/></g></g></g><g fill="#ffffff" fill-opacity="1"><g transform="translate(941.577637, 116.024262)"><g><path d="M 10.90625 -1.65625 C 12.945312 -1.65625 14.707031 -2.382812 16.1875 -3.84375 C 17.675781 -5.300781 18.421875 -7.289062 18.421875 -9.8125 C 18.421875 -12.34375 17.710938 -14.332031 16.296875 -15.78125 C 14.890625 -17.226562 13.164062 -17.953125 11.125 -17.953125 C 9.09375 -17.953125 7.394531 -17.234375 6.03125 -15.796875 C 4.664062 -14.367188 3.984375 -12.375 3.984375 -9.8125 C 3.984375 -7.25 4.628906 -5.25 5.921875 -3.8125 C 7.210938 -2.375 8.875 -1.65625 10.90625 -1.65625 Z M 10.9375 0.359375 C 8.125 0.359375 5.835938 -0.570312 4.078125 -2.4375 C 2.316406 -4.3125 1.4375 -6.757812 1.4375 -9.78125 C 1.4375 -12.8125 2.367188 -15.265625 4.234375 -17.140625 C 6.109375 -19.023438 8.445312 -19.96875 11.25 -19.96875 C 14.050781 -19.96875 16.382812 -19.023438 18.25 -17.140625 C 20.113281 -15.265625 21.046875 -12.820312 21.046875 -9.8125 C 21.046875 -6.8125 20.0625 -4.363281 18.09375 -2.46875 C 16.132812 -0.582031 13.75 0.359375 10.9375 0.359375 Z M 10.9375 0.359375 "/></g></g></g><g fill="#ffffff" fill-opacity="1"><g transform="translate(964.059657, 116.024262)"><g><path d="M 16.671875 -19.609375 L 19.1875 -19.609375 L 19.1875 0 L 16.671875 0 L 16.671875 -3.203125 C 15.347656 -0.828125 13.179688 0.359375 10.171875 0.359375 C 7.984375 0.359375 6.160156 -0.351562 4.703125 -1.78125 C 3.242188 -3.207031 2.515625 -5.257812 2.515625 -7.9375 L 2.515625 -19.609375 L 5 -19.609375 L 5 -8.40625 C 5 -6.25 5.519531 -4.609375 6.5625 -3.484375 C 7.601562 -2.359375 9.023438 -1.796875 10.828125 -1.796875 C 12.640625 -1.796875 14.066406 -2.359375 15.109375 -3.484375 C 16.148438 -4.609375 16.671875 -6.25 16.671875 -8.40625 Z M 16.671875 -19.609375 "/></g></g></g><g fill="#ffffff" fill-opacity="1"><g transform="translate(985.931161, 116.024262)"><g><path d="M 5.203125 -19.609375 L 5.203125 -16.375 C 6.285156 -18.769531 8.3125 -19.96875 11.28125 -19.96875 L 11.28125 -17.34375 L 10.5625 -17.34375 C 8.832031 -17.34375 7.503906 -16.875 6.578125 -15.9375 C 5.660156 -15.007812 5.203125 -13.410156 5.203125 -11.140625 L 5.203125 0 L 2.6875 0 L 2.6875 -19.609375 Z M 5.203125 -19.609375 "/></g></g></g><g fill="#ffffff" fill-opacity="1"><g transform="translate(998.608734, 116.024262)"><g/></g></g><g fill="#ffffff" fill-opacity="1"><g transform="translate(1009.382878, 116.024262)"><g><path d="M 12.46875 -1.796875 C 14.476562 -1.796875 16.191406 -2.554688 17.609375 -4.078125 C 19.035156 -5.597656 19.75 -7.5625 19.75 -9.96875 C 19.75 -12.375 19.039062 -14.28125 17.625 -15.6875 C 16.21875 -17.101562 14.503906 -17.8125 12.484375 -17.8125 C 10.460938 -17.8125 8.742188 -17.078125 7.328125 -15.609375 C 5.910156 -14.140625 5.203125 -12.207031 5.203125 -9.8125 C 5.203125 -7.414062 5.910156 -5.476562 7.328125 -4 C 8.742188 -2.53125 10.457031 -1.796875 12.46875 -1.796875 Z M 12.859375 -19.96875 C 15.609375 -19.96875 17.875 -19.050781 19.65625 -17.21875 C 21.445312 -15.382812 22.34375 -12.960938 22.34375 -9.953125 C 22.34375 -6.953125 21.441406 -4.484375 19.640625 -2.546875 C 17.847656 -0.609375 15.585938 0.359375 12.859375 0.359375 C 11.085938 0.359375 9.53125 -0.078125 8.1875 -0.953125 C 6.84375 -1.828125 5.847656 -2.945312 5.203125 -4.3125 L 5.203125 0 L 2.6875 0 L 2.6875 -26.578125 L 5.203125 -26.578125 L 5.203125 -15.34375 C 5.847656 -16.707031 6.84375 -17.816406 8.1875 -18.671875 C 9.53125 -19.535156 11.085938 -19.96875 12.859375 -19.96875 Z M 12.859375 -19.96875 "/></g></g></g><g fill="#ffffff" fill-opacity="1"><g transform="translate(1033.157811, 116.024262)"><g><path d="M 16.671875 -19.609375 L 19.1875 -19.609375 L 19.1875 0 L 16.671875 0 L 16.671875 -3.203125 C 15.347656 -0.828125 13.179688 0.359375 10.171875 0.359375 C 7.984375 0.359375 6.160156 -0.351562 4.703125 -1.78125 C 3.242188 -3.207031 2.515625 -5.257812 2.515625 -7.9375 L 2.515625 -19.609375 L 5 -19.609375 L 5 -8.40625 C 5 -6.25 5.519531 -4.609375 6.5625 -3.484375 C 7.601562 -2.359375 9.023438 -1.796875 10.828125 -1.796875 C 12.640625 -1.796875 14.066406 -2.359375 15.109375 -3.484375 C 16.148438 -4.609375 16.671875 -6.25 16.671875 -8.40625 Z M 16.671875 -19.609375 "/></g></g></g><g fill="#ffffff" fill-opacity="1"><g transform="translate(1055.029315, 116.024262)"><g><path d="M 2.15625 -14.1875 C 2.15625 -15.8125 2.820312 -17.179688 4.15625 -18.296875 C 5.5 -19.410156 7.210938 -19.96875 9.296875 -19.96875 C 11.378906 -19.96875 13 -19.421875 14.15625 -18.328125 C 15.320312 -17.242188 15.96875 -15.742188 16.09375 -13.828125 L 13.5 -13.828125 C 13.457031 -15.023438 13.050781 -16.007812 12.28125 -16.78125 C 11.519531 -17.5625 10.457031 -17.953125 9.09375 -17.953125 C 7.726562 -17.953125 6.65625 -17.617188 5.875 -16.953125 C 5.09375 -16.285156 4.703125 -15.476562 4.703125 -14.53125 C 4.703125 -13.582031 4.988281 -12.832031 5.5625 -12.28125 C 6.144531 -11.726562 6.867188 -11.359375 7.734375 -11.171875 C 8.609375 -10.984375 9.554688 -10.753906 10.578125 -10.484375 C 11.597656 -10.222656 12.546875 -9.941406 13.421875 -9.640625 C 14.296875 -9.347656 15.019531 -8.8125 15.59375 -8.03125 C 16.164062 -7.25 16.453125 -6.25 16.453125 -5.03125 C 16.453125 -3.445312 15.789062 -2.148438 14.46875 -1.140625 C 13.15625 -0.140625 11.425781 0.359375 9.28125 0.359375 C 7.144531 0.359375 5.453125 -0.191406 4.203125 -1.296875 C 2.953125 -2.398438 2.269531 -3.894531 2.15625 -5.78125 L 4.734375 -5.78125 C 4.785156 -4.5625 5.21875 -3.566406 6.03125 -2.796875 C 6.84375 -2.035156 7.960938 -1.65625 9.390625 -1.65625 C 10.816406 -1.65625 11.925781 -1.957031 12.71875 -2.5625 C 13.507812 -3.175781 13.90625 -3.960938 13.90625 -4.921875 C 13.90625 -5.878906 13.613281 -6.632812 13.03125 -7.1875 C 12.457031 -7.738281 11.734375 -8.113281 10.859375 -8.3125 C 9.992188 -8.519531 9.050781 -8.753906 8.03125 -9.015625 C 7.007812 -9.273438 6.0625 -9.550781 5.1875 -9.84375 C 4.3125 -10.132812 3.585938 -10.648438 3.015625 -11.390625 C 2.441406 -12.128906 2.15625 -13.0625 2.15625 -14.1875 Z M 2.15625 -14.1875 "/></g></g></g><g fill="#ffffff" fill-opacity="1"><g transform="translate(1073.632662, 116.024262)"><g><path d="M 5.8125 -25.15625 C 5.8125 -24.644531 5.640625 -24.207031 5.296875 -23.84375 C 4.953125 -23.488281 4.519531 -23.3125 4 -23.3125 C 3.488281 -23.3125 3.050781 -23.488281 2.6875 -23.84375 C 2.332031 -24.207031 2.15625 -24.644531 2.15625 -25.15625 C 2.15625 -25.675781 2.332031 -26.113281 2.6875 -26.46875 C 3.050781 -26.832031 3.488281 -27.015625 4 -27.015625 C 4.519531 -27.015625 4.953125 -26.832031 5.296875 -26.46875 C 5.640625 -26.113281 5.8125 -25.675781 5.8125 -25.15625 Z M 2.6875 0 L 2.6875 -19.609375 L 5.203125 -19.609375 L 5.203125 0 Z M 2.6875 0 "/></g></g></g><g fill="#ffffff" fill-opacity="1"><g transform="translate(1081.533702, 116.024262)"><g><path d="M 5.203125 -19.609375 L 5.203125 -16.421875 C 6.523438 -18.785156 8.691406 -19.96875 11.703125 -19.96875 C 13.890625 -19.96875 15.710938 -19.253906 17.171875 -17.828125 C 18.628906 -16.410156 19.359375 -14.359375 19.359375 -11.671875 L 19.359375 0 L 16.890625 0 L 16.890625 -11.203125 C 16.890625 -13.359375 16.367188 -15 15.328125 -16.125 C 14.285156 -17.25 12.859375 -17.8125 11.046875 -17.8125 C 9.234375 -17.8125 7.804688 -17.25 6.765625 -16.125 C 5.722656 -15 5.203125 -13.359375 5.203125 -11.203125 L 5.203125 0 L 2.6875 0 L 2.6875 -19.609375 Z M 5.203125 -19.609375 "/></g></g></g><g fill="#ffffff" fill-opacity="1"><g transform="translate(1103.405206, 116.024262)"><g><path d="M 10.890625 0.359375 C 8.085938 0.359375 5.8125 -0.570312 4.0625 -2.4375 C 2.3125 -4.3125 1.4375 -6.773438 1.4375 -9.828125 C 1.4375 -12.878906 2.328125 -15.332031 4.109375 -17.1875 C 5.898438 -19.039062 8.210938 -19.96875 11.046875 -19.96875 C 13.878906 -19.96875 16.132812 -19.09375 17.8125 -17.34375 C 19.488281 -15.601562 20.328125 -13.4375 20.328125 -10.84375 C 20.328125 -10.15625 20.28125 -9.507812 20.1875 -8.90625 L 4.015625 -8.90625 C 4.117188 -6.65625 4.800781 -4.882812 6.0625 -3.59375 C 7.332031 -2.300781 8.941406 -1.65625 10.890625 -1.65625 C 12.390625 -1.65625 13.671875 -2 14.734375 -2.6875 C 15.804688 -3.382812 16.546875 -4.296875 16.953125 -5.421875 L 19.65625 -5.421875 C 19 -3.742188 17.941406 -2.359375 16.484375 -1.265625 C 15.023438 -0.179688 13.160156 0.359375 10.890625 0.359375 Z M 17.75 -10.890625 C 17.75 -13.046875 17.09375 -14.757812 15.78125 -16.03125 C 14.476562 -17.3125 12.863281 -17.953125 10.9375 -17.953125 C 9.007812 -17.953125 7.40625 -17.320312 6.125 -16.0625 C 4.84375 -14.8125 4.140625 -13.085938 4.015625 -10.890625 Z M 17.75 -10.890625 "/></g></g></g><g fill="#ffffff" fill-opacity="1"><g transform="translate(1125.13306, 116.024262)"><g><path d="M 2.15625 -14.1875 C 2.15625 -15.8125 2.820312 -17.179688 4.15625 -18.296875 C 5.5 -19.410156 7.210938 -19.96875 9.296875 -19.96875 C 11.378906 -19.96875 13 -19.421875 14.15625 -18.328125 C 15.320312 -17.242188 15.96875 -15.742188 16.09375 -13.828125 L 13.5 -13.828125 C 13.457031 -15.023438 13.050781 -16.007812 12.28125 -16.78125 C 11.519531 -17.5625 10.457031 -17.953125 9.09375 -17.953125 C 7.726562 -17.953125 6.65625 -17.617188 5.875 -16.953125 C 5.09375 -16.285156 4.703125 -15.476562 4.703125 -14.53125 C 4.703125 -13.582031 4.988281 -12.832031 5.5625 -12.28125 C 6.144531 -11.726562 6.867188 -11.359375 7.734375 -11.171875 C 8.609375 -10.984375 9.554688 -10.753906 10.578125 -10.484375 C 11.597656 -10.222656 12.546875 -9.941406 13.421875 -9.640625 C 14.296875 -9.347656 15.019531 -8.8125 15.59375 -8.03125 C 16.164062 -7.25 16.453125 -6.25 16.453125 -5.03125 C 16.453125 -3.445312 15.789062 -2.148438 14.46875 -1.140625 C 13.15625 -0.140625 11.425781 0.359375 9.28125 0.359375 C 7.144531 0.359375 5.453125 -0.191406 4.203125 -1.296875 C 2.953125 -2.398438 2.269531 -3.894531 2.15625 -5.78125 L 4.734375 -5.78125 C 4.785156 -4.5625 5.21875 -3.566406 6.03125 -2.796875 C 6.84375 -2.035156 7.960938 -1.65625 9.390625 -1.65625 C 10.816406 -1.65625 11.925781 -1.957031 12.71875 -2.5625 C 13.507812 -3.175781 13.90625 -3.960938 13.90625 -4.921875 C 13.90625 -5.878906 13.613281 -6.632812 13.03125 -7.1875 C 12.457031 -7.738281 11.734375 -8.113281 10.859375 -8.3125 C 9.992188 -8.519531 9.050781 -8.753906 8.03125 -9.015625 C 7.007812 -9.273438 6.0625 -9.550781 5.1875 -9.84375 C 4.3125 -10.132812 3.585938 -10.648438 3.015625 -11.390625 C 2.441406 -12.128906 2.15625 -13.0625 2.15625 -14.1875 Z M 2.15625 -14.1875 "/></g></g></g><g fill="#ffffff" fill-opacity="1"><g transform="translate(1143.736407, 116.024262)"><g><path d="M 2.15625 -14.1875 C 2.15625 -15.8125 2.820312 -17.179688 4.15625 -18.296875 C 5.5 -19.410156 7.210938 -19.96875 9.296875 -19.96875 C 11.378906 -19.96875 13 -19.421875 14.15625 -18.328125 C 15.320312 -17.242188 15.96875 -15.742188 16.09375 -13.828125 L 13.5 -13.828125 C 13.457031 -15.023438 13.050781 -16.007812 12.28125 -16.78125 C 11.519531 -17.5625 10.457031 -17.953125 9.09375 -17.953125 C 7.726562 -17.953125 6.65625 -17.617188 5.875 -16.953125 C 5.09375 -16.285156 4.703125 -15.476562 4.703125 -14.53125 C 4.703125 -13.582031 4.988281 -12.832031 5.5625 -12.28125 C 6.144531 -11.726562 6.867188 -11.359375 7.734375 -11.171875 C 8.609375 -10.984375 9.554688 -10.753906 10.578125 -10.484375 C 11.597656 -10.222656 12.546875 -9.941406 13.421875 -9.640625 C 14.296875 -9.347656 15.019531 -8.8125 15.59375 -8.03125 C 16.164062 -7.25 16.453125 -6.25 16.453125 -5.03125 C 16.453125 -3.445312 15.789062 -2.148438 14.46875 -1.140625 C 13.15625 -0.140625 11.425781 0.359375 9.28125 0.359375 C 7.144531 0.359375 5.453125 -0.191406 4.203125 -1.296875 C 2.953125 -2.398438 2.269531 -3.894531 2.15625 -5.78125 L 4.734375 -5.78125 C 4.785156 -4.5625 5.21875 -3.566406 6.03125 -2.796875 C 6.84375 -2.035156 7.960938 -1.65625 9.390625 -1.65625 C 10.816406 -1.65625 11.925781 -1.957031 12.71875 -2.5625 C 13.507812 -3.175781 13.90625 -3.960938 13.90625 -4.921875 C 13.90625 -5.878906 13.613281 -6.632812 13.03125 -7.1875 C 12.457031 -7.738281 11.734375 -8.113281 10.859375 -8.3125 C 9.992188 -8.519531 9.050781 -8.753906 8.03125 -9.015625 C 7.007812 -9.273438 6.0625 -9.550781 5.1875 -9.84375 C 4.3125 -10.132812 3.585938 -10.648438 3.015625 -11.390625 C 2.441406 -12.128906 2.15625 -13.0625 2.15625 -14.1875 Z M 2.15625 -14.1875 "/></g></g></g></svg>