<svg xmlns="http://www.w3.org/2000/svg" xmlns:xlink="http://www.w3.org/1999/xlink" width="50" zoomAndPan="magnify" viewBox="0 0 224.87999 220.499993" height="294" preserveAspectRatio="xMidYMid meet" version="1.0"><defs><clipPath id="id1"><path d="M 0.195312 0 L 224.566406 0 L 224.566406 220 L 0.195312 220 Z M 0.195312 0 " clip-rule="nonzero"/></clipPath></defs><g clip-path="url(#id1)"><path fill="rgb(50, 50, 50)" d="M 112.597656 0 C 50.480469 0 0.109375 50.289062 0.109375 112.324219 C 0.109375 161.960938 32.339844 204.066406 77.039062 218.914062 C 82.660156 219.957031 84.722656 216.472656 84.722656 213.507812 C 84.722656 210.832031 84.617188 201.984375 84.570312 192.59375 C 53.277344 199.394531 46.671875 179.34375 46.671875 179.34375 C 41.554688 166.355469 34.179688 162.90625 34.179688 162.90625 C 23.976562 155.941406 34.953125 156.082031 34.953125 156.082031 C 46.246094 156.871094 52.195312 167.65625 52.195312 167.65625 C 62.226562 184.828125 78.511719 179.863281 84.929688 176.992188 C 85.941406 169.734375 88.851562 164.777344 92.070312 161.96875 C 67.085938 159.132812 40.820312 149.5 40.820312 106.464844 C 40.820312 94.195312 45.214844 84.175781 52.410156 76.308594 C 51.242188 73.480469 47.394531 62.054688 53.5 46.582031 C 53.5 46.582031 62.945312 43.566406 84.445312 58.097656 C 93.414062 55.609375 103.039062 54.363281 112.597656 54.320312 C 122.160156 54.363281 131.792969 55.609375 140.78125 58.097656 C 162.253906 43.566406 171.683594 46.582031 171.683594 46.582031 C 177.808594 62.054688 173.957031 73.480469 172.789062 76.308594 C 179.996094 84.175781 184.363281 94.195312 184.363281 106.464844 C 184.363281 149.605469 158.050781 159.097656 132.996094 161.882812 C 137.03125 165.363281 140.632812 172.199219 140.632812 182.6875 C 140.632812 197.710938 140.5 209.8125 140.5 213.507812 C 140.5 216.5 142.523438 220 148.226562 218.894531 C 192.898438 204.03125 225.089844 161.941406 225.089844 112.324219 C 225.089844 50.289062 174.722656 0 112.597656 0 Z M 42.242188 160.011719 C 41.992188 160.574219 41.113281 160.742188 40.3125 160.355469 C 39.496094 159.984375 39.039062 159.230469 39.304688 158.667969 C 39.542969 158.089844 40.425781 157.933594 41.238281 158.316406 C 42.058594 158.6875 42.523438 159.449219 42.242188 160.011719 Z M 47.773438 164.945312 C 47.238281 165.433594 46.1875 165.207031 45.476562 164.425781 C 44.742188 163.636719 44.601562 162.59375 45.148438 162.089844 C 45.699219 161.589844 46.71875 161.828125 47.457031 162.609375 C 48.191406 163.398438 48.335938 164.445312 47.773438 164.945312 Z M 51.570312 171.253906 C 50.882812 171.726562 49.753906 171.28125 49.058594 170.277344 C 48.367188 169.277344 48.367188 168.085938 49.070312 167.601562 C 49.769531 167.121094 50.882812 167.558594 51.585938 168.550781 C 52.273438 169.558594 52.273438 170.761719 51.570312 171.253906 Z M 57.988281 178.554688 C 57.375 179.230469 56.058594 179.054688 55.097656 178.125 C 54.113281 177.21875 53.839844 175.929688 54.460938 175.253906 C 55.085938 174.578125 56.40625 174.761719 57.375 175.683594 C 58.347656 176.589844 58.648438 177.886719 57.988281 178.554688 Z M 66.289062 181.019531 C 66.015625 181.898438 64.75 182.300781 63.476562 181.925781 C 62.203125 181.546875 61.371094 180.511719 61.628906 179.625 C 61.890625 178.738281 63.164062 178.316406 64.445312 178.722656 C 65.71875 179.105469 66.550781 180.125 66.289062 181.019531 Z M 75.730469 182.066406 C 75.761719 182.996094 74.679688 183.757812 73.34375 183.777344 C 72 183.8125 70.910156 183.054688 70.894531 182.144531 C 70.894531 181.214844 71.953125 180.449219 73.296875 180.433594 C 74.632812 180.40625 75.730469 181.144531 75.730469 182.066406 Z M 85.003906 181.714844 C 85.164062 182.617188 84.238281 183.546875 82.90625 183.792969 C 81.601562 184.03125 80.394531 183.46875 80.226562 182.574219 C 80.066406 181.652344 81.011719 180.722656 82.316406 180.484375 C 83.644531 180.25 84.835938 180.792969 85.003906 181.714844 Z M 85.003906 181.714844 " fill-opacity="1" fill-rule="nonzero"/></g></svg>