<svg width="68" height="15" viewBox="0 0 68 15" fill="none" xmlns="http://www.w3.org/2000/svg">
<rect width="34" height="15" fill="#464646"/>
<path d="M3.05682 12V3.27273H8.28977V4.21023H4.11364V7.15909H7.89773V8.09659H4.11364V12H3.05682ZM9.89311 12V5.45455H10.8647V6.44318H10.9329C11.0522 6.11932 11.2681 5.85653 11.5806 5.65483C11.8931 5.45312 12.2454 5.35227 12.6374 5.35227C12.7113 5.35227 12.8036 5.35369 12.9144 5.35653C13.0252 5.35937 13.109 5.36364 13.1658 5.36932V6.39205C13.1317 6.38352 13.0536 6.37074 12.9315 6.35369C12.8121 6.33381 12.6857 6.32386 12.5522 6.32386C12.234 6.32386 11.9499 6.39062 11.6999 6.52415C11.4528 6.65483 11.2567 6.83665 11.1119 7.0696C10.9698 7.29972 10.8988 7.5625 10.8988 7.85795V12H9.89311ZM16.8178 12.1364C16.2269 12.1364 15.7085 11.9957 15.2624 11.7145C14.8192 11.4332 14.4727 11.0398 14.2227 10.5341C13.9755 10.0284 13.8519 9.4375 13.8519 8.76136C13.8519 8.07955 13.9755 7.48437 14.2227 6.97585C14.4727 6.46733 14.8192 6.07244 15.2624 5.79119C15.7085 5.50994 16.2269 5.36932 16.8178 5.36932C17.4087 5.36932 17.9258 5.50994 18.369 5.79119C18.815 6.07244 19.1616 6.46733 19.4087 6.97585C19.6587 7.48437 19.7837 8.07955 19.7837 8.76136C19.7837 9.4375 19.6587 10.0284 19.4087 10.5341C19.1616 11.0398 18.815 11.4332 18.369 11.7145C17.9258 11.9957 17.4087 12.1364 16.8178 12.1364ZM16.8178 11.233C17.2667 11.233 17.636 11.1179 17.9258 10.8878C18.2156 10.6577 18.43 10.3551 18.5692 9.98011C18.7085 9.60511 18.7781 9.19886 18.7781 8.76136C18.7781 8.32386 18.7085 7.91619 18.5692 7.53835C18.43 7.16051 18.2156 6.85511 17.9258 6.62216C17.636 6.3892 17.2667 6.27273 16.8178 6.27273C16.369 6.27273 15.9996 6.3892 15.7099 6.62216C15.4201 6.85511 15.2056 7.16051 15.0664 7.53835C14.9272 7.91619 14.8576 8.32386 14.8576 8.76136C14.8576 9.19886 14.9272 9.60511 15.0664 9.98011C15.2056 10.3551 15.4201 10.6577 15.7099 10.8878C15.9996 11.1179 16.369 11.233 16.8178 11.233ZM22.3246 8.0625V12H21.3189V5.45455H22.2905V6.47727H22.3757C22.5291 6.14489 22.7621 5.87784 23.0746 5.67614C23.3871 5.47159 23.7905 5.36932 24.2848 5.36932C24.728 5.36932 25.1158 5.46023 25.4482 5.64205C25.7805 5.82102 26.0391 6.09375 26.2237 6.46023C26.4084 6.82386 26.5007 7.28409 26.5007 7.84091V12H25.495V7.90909C25.495 7.39489 25.3615 6.99432 25.0945 6.70739C24.8274 6.41761 24.4609 6.27273 23.995 6.27273C23.674 6.27273 23.3871 6.34233 23.1342 6.48153C22.8842 6.62074 22.6868 6.82386 22.5419 7.09091C22.397 7.35795 22.3246 7.68182 22.3246 8.0625ZM31.185 5.45455V6.30682H27.793V5.45455H31.185ZM28.7816 3.88636H29.7873V10.125C29.7873 10.4091 29.8285 10.6222 29.9109 10.7642C29.9961 10.9034 30.104 10.9972 30.2347 11.0455C30.3683 11.0909 30.5089 11.1136 30.6566 11.1136C30.7674 11.1136 30.8583 11.108 30.9293 11.0966C31.0004 11.0824 31.0572 11.071 31.0998 11.0625L31.3043 11.9659C31.2362 11.9915 31.141 12.017 31.0188 12.0426C30.8967 12.071 30.7418 12.0852 30.5543 12.0852C30.2702 12.0852 29.9918 12.0241 29.7191 11.902C29.4492 11.7798 29.2248 11.5938 29.0458 11.3438C28.8697 11.0938 28.7816 10.7784 28.7816 10.3977V3.88636Z" fill="white"/>
<path d="M43.1296 3.27273V12H42.1069L37.3512 5.14773H37.266V12H36.2092V3.27273H37.2319L42.0046 10.142H42.0898V3.27273H43.1296ZM47.8523 12.1364C47.2216 12.1364 46.6776 11.9972 46.2202 11.7188C45.7656 11.4375 45.4148 11.0455 45.1676 10.5426C44.9233 10.0369 44.8011 9.44886 44.8011 8.77841C44.8011 8.10795 44.9233 7.51705 45.1676 7.00568C45.4148 6.49148 45.7585 6.09091 46.1989 5.80398C46.642 5.5142 47.1591 5.36932 47.75 5.36932C48.0909 5.36932 48.4276 5.42614 48.7599 5.53977C49.0923 5.65341 49.3949 5.83807 49.6676 6.09375C49.9403 6.34659 50.1577 6.68182 50.3196 7.09943C50.4815 7.51705 50.5625 8.03125 50.5625 8.64205V9.06818H45.517V8.19886H49.5398C49.5398 7.82955 49.4659 7.5 49.3182 7.21023C49.1733 6.92045 48.9659 6.69176 48.696 6.52415C48.429 6.35653 48.1136 6.27273 47.75 6.27273C47.3494 6.27273 47.0028 6.37216 46.7102 6.57102C46.4205 6.76705 46.1974 7.02273 46.0412 7.33807C45.8849 7.65341 45.8068 7.99148 45.8068 8.35227V8.93182C45.8068 9.42614 45.892 9.84517 46.0625 10.1889C46.2358 10.5298 46.4759 10.7898 46.7827 10.9688C47.0895 11.1449 47.446 11.233 47.8523 11.233C48.1165 11.233 48.3551 11.196 48.5682 11.1222C48.7841 11.0455 48.9702 10.9318 49.1264 10.7812C49.2827 10.6278 49.4034 10.4375 49.4886 10.2102L50.4602 10.483C50.358 10.8125 50.1861 11.1023 49.9446 11.3523C49.7031 11.5994 49.4048 11.7926 49.0497 11.9318C48.6946 12.0682 48.2955 12.1364 47.8523 12.1364ZM53.5753 12L51.581 5.45455H52.6378L54.0526 10.4659H54.1207L55.5185 5.45455H56.5923L57.973 10.4489H58.0412L59.456 5.45455H60.5128L58.5185 12H57.5298L56.098 6.97159H55.9957L54.5639 12H53.5753ZM66.4787 6.92045L65.5753 7.17614C65.5185 7.02557 65.4347 6.87926 65.3239 6.73722C65.2159 6.59233 65.0682 6.47301 64.8807 6.37926C64.6932 6.28551 64.4531 6.23864 64.1605 6.23864C63.7599 6.23864 63.4261 6.33097 63.1591 6.51562C62.8949 6.69744 62.7628 6.92898 62.7628 7.21023C62.7628 7.46023 62.8537 7.65767 63.0355 7.80256C63.2173 7.94744 63.5014 8.06818 63.8878 8.16477L64.8594 8.40341C65.4446 8.54545 65.8807 8.76278 66.1676 9.0554C66.4545 9.34517 66.598 9.71875 66.598 10.1761C66.598 10.5511 66.4901 10.8864 66.2741 11.1818C66.0611 11.4773 65.7628 11.7102 65.3793 11.8807C64.9957 12.0511 64.5497 12.1364 64.0412 12.1364C63.3736 12.1364 62.821 11.9915 62.3835 11.7017C61.946 11.4119 61.669 10.9886 61.5526 10.4318L62.5071 10.1932C62.598 10.5455 62.7699 10.8097 63.0227 10.9858C63.2784 11.1619 63.6122 11.25 64.0241 11.25C64.4929 11.25 64.8651 11.1506 65.1406 10.9517C65.419 10.75 65.5582 10.5085 65.5582 10.2273C65.5582 10 65.4787 9.80966 65.3196 9.65625C65.1605 9.5 64.9162 9.38352 64.5866 9.30682L63.4957 9.05114C62.8963 8.90909 62.456 8.68892 62.1747 8.39062C61.8963 8.08949 61.7571 7.71307 61.7571 7.26136C61.7571 6.89205 61.8608 6.56534 62.0682 6.28125C62.2784 5.99716 62.5639 5.77415 62.9247 5.61222C63.2884 5.45028 63.7003 5.36932 64.1605 5.36932C64.8082 5.36932 65.3168 5.51136 65.6861 5.79545C66.0582 6.07955 66.3224 6.45455 66.4787 6.92045Z" fill="#464646"/>
<line x1="34" y1="14.5" x2="68" y2="14.5" stroke="#464646"/>
</svg>
